#N canvas 568 87 1075 625 10;
#X declare -path pdr/core;
#X declare -path pdr/core/rj;
#X declare -path pdr/core/stuff;
#X obj 179 278 c_frombus no-in;
#X obj 319 260 c_frombus no-in;
#X obj 846 310 u_dispatch \$0 in;
#X obj 178 308 +~;
#X obj 321 303 +~;
#X obj 180 348 *~;
#X obj 315 349 *~;
#X obj 407 349 line~;
#X obj 473 389 dbtorms;
#X obj 530 298 r \$0-gain;
#X obj 846 336 u_dispatch \$0 gain;
#X obj 534 321 + 100;
#X msg 467 419 \$1 20;
#X obj 535 358 f;
#X obj 452 326 select 1 0;
#X msg 468 355 0;
#X obj 846 364 u_parameter \$0 mute;
#X obj 464 296 t f f;
#X obj 607 375 == 0;
#X obj 569 406 spigot 1;
#X obj 645 552 s \$0-mute;
#X obj 462 262 r \$0-mute;
#X obj 669 490 r \$0-mute;
#X obj 586 483 select 1;
#X obj 644 511 f;
#X obj 681 528 == 0;
#X obj 624 464 > 0;
#X obj 101 101 cnv 15 188 68 empty \$0-background audio_in-4 0 7 0
14 -260818 -1 0;
#X obj 189 134 cnv 2 65 2 empty \$0-vu -35db 20 5 0 10 -24198 -1 0
;
#X text 197 99 src;
#X obj 139 130 tgl 40 0 \$0-mute \$0-mute-rcv MUTE 17 7 0 10 -262144
-1 -1 0 1;
#X obj 624 437 midi-colors \$0 mute \$0-mute-rcv;
#X obj 101 115 ui_vs \$0 gain -100 27;
#X obj 220 100 u_rollmenu bus_in 0;
#X obj 145 185 list split 1;
#X obj 229 223 unpack s s;
#X obj 29 252 s \$0-in;
#X obj 26 226 t b s b;
#X obj 18 313 r \$0-in;
#X obj 26 391 text search bus_in;
#X obj 28 371 symbol;
#X msg 32 288 1;
#X msg 71 285 0;
#X obj 28 343 spigot 1;
#X obj 123 469 select MODULE;
#X obj 184 152 bng 18 250 50 0 empty empty SetModule-> 0 10 0 10 -261682
-1 -1;
#X obj 319 533 s \$0-module-slot;
#X obj 289 569 r \$0-module-slot;
#X obj 265 544 f;
#X obj 354 383 delay 100;
#X msg 468 516 select_module \$1;
#X obj 414 489 list append \$0-module-slot;
#X floatatom 253 153 5 0 0 0 - #0-module-slot-rcv #0-module-slot;
#X msg 316 507 0;
#N canvas 663 241 1130 609 get_audio_from_module 0;
#X obj 331 208 select 0;
#X obj 241 304 f;
#X obj 242 128 t f f;
#X msg 72 337 error - slot \$1 non affecté;
#X obj 459 462 outlet~;
#X obj 584 468 outlet~;
#X obj 143 5 inlet slot.name;
#X obj 427 263 list prepend 0;
#X obj 499 233 f;
#X obj 540 233 == 0;
#X obj 427 218 t f b;
#X obj 455 294 route 0 1;
#N canvas 0 50 450 300 receive~ 0;
#X obj 92 29 inlet;
#X obj 122 72 select 0;
#X obj 105 223 line~;
#X msg 97 200 0 20;
#X msg 197 124 set \$1-send-0;
#X msg 307 124 set \$1-send-1;
#X obj 197 157 receive~ 0-send-0;
#X obj 339 157 receive~ 0-send-1;
#X msg 150 193 1 20;
#X obj 31 151 switch~;
#X msg 98 126 1;
#X obj 40 96 delay 20;
#X msg 29 127 0;
#X msg 44 67 stop;
#X obj 130 318 outlet~;
#X obj 261 319 outlet~;
#X obj 161 283 *~;
#X obj 251 283 *~;
#X connect 0 0 1 0;
#X connect 1 0 3 0;
#X connect 1 0 11 0;
#X connect 1 1 4 0;
#X connect 1 1 5 0;
#X connect 1 1 10 0;
#X connect 1 1 13 0;
#X connect 1 1 8 0;
#X connect 2 0 16 1;
#X connect 2 0 17 1;
#X connect 3 0 2 0;
#X connect 4 0 6 0;
#X connect 5 0 7 0;
#X connect 6 0 16 0;
#X connect 7 0 17 0;
#X connect 8 0 2 0;
#X connect 10 0 9 0;
#X connect 11 0 12 0;
#X connect 12 0 9 0;
#X connect 13 0 11 0;
#X connect 16 0 14 0;
#X connect 17 0 15 0;
#X restore 455 360 pd receive~;
#N canvas 0 50 450 300 receive~ 0;
#X obj 92 29 inlet;
#X obj 122 72 select 0;
#X obj 105 223 line~;
#X msg 97 200 0 20;
#X msg 197 124 set \$1-send-0;
#X msg 307 124 set \$1-send-1;
#X obj 197 157 receive~ 0-send-0;
#X obj 339 157 receive~ 0-send-1;
#X msg 150 193 1 20;
#X obj 31 151 switch~;
#X msg 98 126 1;
#X obj 40 96 delay 20;
#X msg 29 127 0;
#X msg 44 67 stop;
#X obj 130 318 outlet~;
#X obj 261 319 outlet~;
#X obj 161 283 *~;
#X obj 251 283 *~;
#X connect 0 0 1 0;
#X connect 1 0 3 0;
#X connect 1 0 11 0;
#X connect 1 1 4 0;
#X connect 1 1 5 0;
#X connect 1 1 10 0;
#X connect 1 1 13 0;
#X connect 1 1 8 0;
#X connect 2 0 16 1;
#X connect 2 0 17 1;
#X connect 3 0 2 0;
#X connect 4 0 6 0;
#X connect 5 0 7 0;
#X connect 6 0 16 0;
#X connect 7 0 17 0;
#X connect 8 0 2 0;
#X connect 10 0 9 0;
#X connect 11 0 12 0;
#X connect 12 0 9 0;
#X connect 13 0 11 0;
#X connect 16 0 14 0;
#X connect 17 0 15 0;
#X restore 573 359 pd receive~;
#X msg 461 337 0;
#X msg 578 339 0;
#X text 612 390 assure un crossefade entre deux branchements successifs
;
#X msg 323 265 0;
#X obj 178 99 select 0;
#X obj 287 175 tabread SLOTS_MAP;
#X obj 413 179 tabread SLOTS_MAP;
#X obj 571 154 f;
#X msg 638 277 0;
#X obj 593 181 select 0;
#N canvas 416 113 718 686 glocal.dollarzero 0;
#X obj 379 7 loadbang;
#X obj 379 66 v GLOCAL.current;
#X obj 379 95 select 0;
#X obj 155 66 spigot 1;
#X msg 456 146 0;
#X text 501 28 hot plug;
#X obj 380 36 delay 1;
#X obj 155 37 r GLOCAL.base;
#X obj 155 101 moses \$0;
#X obj 155 150 max;
#X obj 155 179 t f f;
#X obj 234 229 outlet;
#X connect 0 0 6 0;
#X connect 1 0 2 0;
#X connect 2 1 4 0;
#X connect 2 1 11 0;
#X connect 3 0 8 0;
#X connect 4 0 3 1;
#X connect 6 0 1 0;
#X connect 7 0 3 0;
#X connect 8 0 9 0;
#X connect 9 0 10 0;
#X connect 10 0 11 0;
#X connect 10 1 9 1;
#X restore 402 9 pd glocal.dollarzero;
#X obj 666 25 glocal/glocal.receive REFRESH_CONNEXIONS;
#X msg 398 70 set \$1-SLOTS_MAP;
#X obj 383 35 t b f;
#X obj 70 362 print audio_in;
#X connect 0 0 1 0;
#X connect 0 0 17 0;
#X connect 0 1 10 0;
#X connect 1 0 3 0;
#X connect 2 0 19 0;
#X connect 2 1 1 1;
#X connect 3 0 28 0;
#X connect 6 0 18 0;
#X connect 6 0 21 1;
#X connect 7 0 11 0;
#X connect 8 0 9 0;
#X connect 8 0 7 1;
#X connect 9 0 8 1;
#X connect 10 0 7 0;
#X connect 10 1 8 0;
#X connect 11 0 12 0;
#X connect 11 0 15 0;
#X connect 11 1 13 0;
#X connect 11 1 14 0;
#X connect 12 0 4 0;
#X connect 12 1 5 0;
#X connect 13 0 4 0;
#X connect 13 1 5 0;
#X connect 14 0 12 0;
#X connect 15 0 13 0;
#X connect 17 0 10 0;
#X connect 18 0 17 0;
#X connect 18 1 2 0;
#X connect 19 0 0 0;
#X connect 20 0 10 0;
#X connect 21 0 23 0;
#X connect 22 0 10 0;
#X connect 23 0 22 0;
#X connect 23 1 20 0;
#X connect 24 0 27 0;
#X connect 25 0 21 0;
#X connect 26 0 20 0;
#X connect 26 0 19 0;
#X connect 27 0 21 0;
#X connect 27 1 26 0;
#X restore 285 607 pd get_audio_from_module;
#X obj 126 519 delay 100;
#X obj 311 476 r \$0-module-slot;
#X obj 218 507 t b b;
#X obj 762 573 tgl 15 0 empty empty empty 17 7 0 10 -262144 -1 -1 0
1;
#X obj 770 528 * 127;
#X obj 846 386 u_parameter \$0 module-slot;
#X obj 145 432 outlet~ left;
#X obj 250 432 outlet~ right;
#X obj 845 283 module_loader audio_in \$0 \$1;
#X obj 840 245 inlet data;
#X obj 856 417 outlet data;
#X obj 166 253 inlet~;
#X obj 226 253 inlet~;
#X obj 196 395 meter \$0;
#N canvas 0 57 1920 1023 check_glocal_bus 0;
#X obj 87 17 inlet;
#X obj 93 263 outlet;
#X obj 105 131 glocal/glocal.dollarzero;
#X obj 87 100 t a b;
#X msg 120 223 list \$1-\$2 \$1-\$3;
#X obj 86 182 route 0;
#X obj 86 162 list prepend 0;
#X obj 60 225 list;
#X text 26 299 if glocal.dollarzero == 0 \, we are in global mode \,
else in local mode;
#X obj 87 39 list trim;
#X obj 270 227 list;
#X obj 86 66 route GLOCAL;
#X text 287 127 get dollarzero from (gran)parent patch;
#X text 284 142 if glocal mode is active;
#X connect 0 0 9 0;
#X connect 2 0 6 1;
#X connect 3 0 6 0;
#X connect 3 1 2 0;
#X connect 4 0 1 0;
#X connect 5 0 7 0;
#X connect 5 1 4 0;
#X connect 6 0 5 0;
#X connect 7 0 1 0;
#X connect 9 0 11 0;
#X connect 10 0 1 0;
#X connect 11 0 3 0;
#X connect 11 1 10 0;
#X restore 201 202 pd check_glocal_bus;
#X obj 804 34 declare -path pdr/core;
#X obj 804 64 declare -path pdr/core/rj;
#X obj 804 94 declare -path pdr/core/stuff;
#X obj 479 558 glocal/glocal.send ACTION;
#X obj 353 120 r \$0-module-slot;
#X obj 353 143 select 0;
#X obj 403 168 t b;
#X msg 345 192 symbol MODULE;
#X obj 1231 279 namecanvas \$0-this;
#X obj 1229 256 triggered_loadbang \$0-this;
#X text 1224 206 manually trigger loadbang if the instance of abstraction
is created dynamically, f 29;
#X connect 0 0 3 0;
#X connect 1 0 4 0;
#X connect 2 0 10 0;
#X connect 3 0 5 0;
#X connect 4 0 6 0;
#X connect 5 0 61 0;
#X connect 5 0 68 0;
#X connect 6 0 62 0;
#X connect 6 0 68 1;
#X connect 7 0 6 1;
#X connect 7 0 5 1;
#X connect 8 0 12 0;
#X connect 9 0 11 0;
#X connect 10 0 16 0;
#X connect 11 0 13 0;
#X connect 12 0 7 0;
#X connect 13 0 19 0;
#X connect 14 0 15 0;
#X connect 14 1 13 0;
#X connect 15 0 12 0;
#X connect 16 0 60 0;
#X connect 17 0 14 0;
#X connect 17 1 18 0;
#X connect 18 0 19 1;
#X connect 19 0 8 0;
#X connect 21 0 17 0;
#X connect 22 0 24 1;
#X connect 22 0 59 0;
#X connect 23 0 24 0;
#X connect 24 0 25 0;
#X connect 25 0 20 0;
#X connect 25 0 58 0;
#X connect 26 0 23 0;
#X connect 31 0 26 0;
#X connect 33 0 34 0;
#X connect 34 0 37 0;
#X connect 34 0 44 0;
#X connect 34 1 69 0;
#X connect 35 0 0 0;
#X connect 35 1 1 0;
#X connect 37 0 41 0;
#X connect 37 1 36 0;
#X connect 37 2 42 0;
#X connect 38 0 43 0;
#X connect 39 0 33 0;
#X connect 40 0 39 0;
#X connect 41 0 43 1;
#X connect 42 0 43 1;
#X connect 43 0 40 0;
#X connect 44 0 55 0;
#X connect 44 1 57 0;
#X connect 45 0 49 0;
#X connect 45 0 77 0;
#X connect 47 0 54 0;
#X connect 48 0 54 0;
#X connect 49 0 51 0;
#X connect 50 0 73 0;
#X connect 51 0 50 0;
#X connect 53 0 46 0;
#X connect 54 0 3 1;
#X connect 54 1 4 1;
#X connect 55 0 48 0;
#X connect 56 0 48 1;
#X connect 57 0 55 0;
#X connect 57 1 53 0;
#X connect 59 0 31 0;
#X connect 60 0 65 0;
#X connect 63 0 2 0;
#X connect 64 0 63 0;
#X connect 66 0 3 0;
#X connect 67 0 4 0;
#X connect 69 0 35 0;
#X connect 74 0 75 0;
#X connect 75 1 76 0;
#X connect 76 0 77 0;
#X connect 77 0 39 0;
#X coords 0 -1 1 1 190 70 1 100 100;
