#N canvas 462 56 981 500 10;
#X declare -path pdr/core;
#X declare -path pdr/core/rj;
#X declare -path pdr/core/stuff;
#X obj 1 1 cnv 15 188 68 empty \$0-background fx_repeat-0 0 7 0 14
-262144 -1 0;
#X obj 43 208 inlet~;
#X obj 36 364 outlet~;
#X obj 113 208 inlet~;
#X obj 106 364 outlet~;
#X obj 224 216 inlet data;
#X obj 228 369 outlet data;
#X msg 518 78 sn 13 \, bd 7 \, hh 22;
#X obj 514 36 loadbang;
#X obj 762 40 declare -path pdr/core;
#X obj 762 70 declare -path pdr/core/rj;
#X obj 762 100 declare -path pdr/core/stuff;
#X obj 782 265 namecanvas \$0-this;
#X obj 780 242 triggered_loadbang \$0-this;
#X text 775 192 manually trigger loadbang if the instance of abstraction
is created dynamically, f 29;
#X obj 522 141 module_loader fx_repeat \$0 \$1;
#X obj 388 241 table \$0-table-l 44100;
#X obj 388 271 table \$0-table-r 44100;
#N canvas 0 50 801 543 repeat 0;
#X obj 92 461 outlet~;
#X obj 103 20 inlet~;
#X obj 82 425 *~;
#X obj 125 371 == 0;
#X obj 364 380 *~;
#X obj 114 395 lop~ 100;
#X obj 512 363 lop~ 100;
#X obj 471 115 change;
#X msg 356 305 stop;
#X obj 445 243 select 1 0;
#X obj 416 311 metro 100;
#X msg 430 284 1;
#X msg 487 282 0;
#X obj 258 107 == 0;
#X obj 625 183 mtof;
#X obj 623 164 * 35;
#X obj 628 205 * 2.5;
#X obj 627 103 - 1;
#X obj 627 140 * -1;
#X obj 631 43 r \$0-y;
#X obj 475 39 r \$0-button1;
#X obj 512 336 r \$0-button1;
#X obj 128 347 r \$0-button1;
#X obj 367 23 inlet~;
#X obj 151 160 tabwrite~ \$0-table-l;
#X obj 331 160 tabwrite~ \$0-table-r;
#X obj 282 425 *~;
#X obj 282 447 outlet~;
#X obj 361 333 tabplay~ \$0-table-l;
#X obj 424 470 *~;
#X obj 421 423 tabplay~ \$0-table-r;
#X obj 141 285 loadbang;
#X msg 141 307 1;
#X obj 193 118 spigot 1;
#X obj 224 64 threshold~ 0.2 100 0.05 100;
#X connect 1 0 2 0;
#X connect 1 0 24 0;
#X connect 1 0 34 0;
#X connect 2 0 0 0;
#X connect 3 0 5 0;
#X connect 4 0 0 0;
#X connect 5 0 2 1;
#X connect 5 0 26 1;
#X connect 6 0 4 1;
#X connect 6 0 29 1;
#X connect 7 0 9 0;
#X connect 7 0 13 0;
#X connect 8 0 28 0;
#X connect 8 0 30 0;
#X connect 9 0 11 0;
#X connect 9 1 8 0;
#X connect 9 1 12 0;
#X connect 10 0 28 0;
#X connect 10 0 30 0;
#X connect 11 0 10 0;
#X connect 12 0 10 0;
#X connect 13 0 33 1;
#X connect 14 0 16 0;
#X connect 15 0 14 0;
#X connect 16 0 10 1;
#X connect 17 0 18 0;
#X connect 18 0 15 0;
#X connect 19 0 17 0;
#X connect 20 0 7 0;
#X connect 21 0 6 0;
#X connect 22 0 3 0;
#X connect 23 0 25 0;
#X connect 23 0 26 0;
#X connect 26 0 27 0;
#X connect 28 0 4 0;
#X connect 29 0 27 0;
#X connect 30 0 29 0;
#X connect 31 0 32 0;
#X connect 32 0 5 0;
#X connect 33 0 24 0;
#X connect 33 0 25 0;
#X connect 34 0 33 0;
#X restore 66 276 pd repeat;
#X obj 253 93 s \$0-button1;
#X obj 120 8 tgl 60 0 empty empty empty 17 7 0 10 -262144 -1 -1 0 1
;
#X obj 89 128 s \$0-y;
#X msg 84 95 0.2;
#X obj 681 88 savestate;
#X connect 1 0 18 0;
#X connect 3 0 18 1;
#X connect 5 0 6 0;
#X connect 5 0 15 0;
#X connect 8 0 7 0;
#X connect 15 1 23 0;
#X connect 18 0 2 0;
#X connect 18 1 4 0;
#X connect 20 0 19 0;
#X connect 22 0 21 0;
#X connect 23 0 15 1;
#X connect 23 1 15 2;
#X coords 0 -1 1 1 190 70 1 0 0;
