#N canvas 462 56 981 500 10;
#X declare -path pdr/core;
#X declare -path pdr/core/rj;
#X declare -path pdr/core/stuff;
#X obj 1 1 cnv 15 188 68 empty \$0-background fx_repeat-0 0 7 0 14
-262144 -1 0;
#X obj 43 208 inlet~;
#X obj 36 364 outlet~;
#X obj 113 208 inlet~;
#X obj 106 364 outlet~;
#X obj 224 216 inlet data;
#X obj 228 369 outlet data;
#X obj 762 40 declare -path pdr/core;
#X obj 762 70 declare -path pdr/core/rj;
#X obj 762 100 declare -path pdr/core/stuff;
#X obj 782 265 namecanvas \$0-this;
#X obj 780 242 triggered_loadbang \$0-this;
#X text 775 192 manually trigger loadbang if the instance of abstraction
is created dynamically, f 29;
#X obj 522 141 module_loader fx_repeat \$0 \$1;
#X obj 388 241 table \$0-table-l 44100;
#X obj 388 271 table \$0-table-r 44100;
#N canvas 938 156 801 543 repeat 0;
#X obj 92 461 outlet~;
#X obj 103 20 inlet~;
#X obj 82 425 *~;
#X obj 364 380 *~;
#X obj 170 331 lop~ 100;
#X obj 512 363 lop~ 100;
#X obj 471 115 change;
#X msg 356 305 stop;
#X obj 445 243 select 1 0;
#X obj 416 311 metro 100;
#X msg 430 284 1;
#X msg 487 282 0;
#X obj 258 107 == 0;
#X obj 625 183 mtof;
#X obj 623 164 * 35;
#X obj 628 205 * 2.5;
#X obj 627 103 - 1;
#X obj 627 140 * -1;
#X obj 367 23 inlet~;
#X obj 151 160 tabwrite~ \$0-table-l;
#X obj 331 160 tabwrite~ \$0-table-r;
#X obj 282 425 *~;
#X obj 282 447 outlet~;
#X obj 361 333 tabplay~ \$0-table-l;
#X obj 424 470 *~;
#X obj 421 423 tabplay~ \$0-table-r;
#X obj 131 200 loadbang;
#X msg 148 276 1;
#X obj 193 118 spigot 1;
#X obj 224 64 threshold~ 0.2 100 0.05 100;
#X obj 219 194 r \$0-repeat;
#X obj 475 39 r \$0-repeat;
#X obj 631 43 r \$0-speed;
#X obj 512 336 r \$0-repeat;
#X obj 241 248 r \$0-rep-att;
#X obj 198 221 select 0 1;
#X obj 241 271 - 1;
#X obj 241 294 * -1;
#X obj 203 293 f 1;
#X connect 1 0 2 0;
#X connect 1 0 19 0;
#X connect 1 0 29 0;
#X connect 2 0 0 0;
#X connect 3 0 0 0;
#X connect 4 0 2 1;
#X connect 4 0 21 1;
#X connect 5 0 3 1;
#X connect 5 0 24 1;
#X connect 6 0 8 0;
#X connect 6 0 12 0;
#X connect 7 0 23 0;
#X connect 7 0 25 0;
#X connect 8 0 10 0;
#X connect 8 1 7 0;
#X connect 8 1 11 0;
#X connect 9 0 23 0;
#X connect 9 0 25 0;
#X connect 10 0 9 0;
#X connect 11 0 9 0;
#X connect 12 0 28 1;
#X connect 13 0 15 0;
#X connect 14 0 13 0;
#X connect 15 0 9 1;
#X connect 16 0 17 0;
#X connect 17 0 14 0;
#X connect 18 0 20 0;
#X connect 18 0 21 0;
#X connect 21 0 22 0;
#X connect 23 0 3 0;
#X connect 24 0 22 0;
#X connect 25 0 24 0;
#X connect 26 0 27 0;
#X connect 27 0 4 0;
#X connect 28 0 19 0;
#X connect 28 0 20 0;
#X connect 29 0 28 0;
#X connect 30 0 35 0;
#X connect 31 0 6 0;
#X connect 32 0 16 0;
#X connect 33 0 5 0;
#X connect 34 0 36 0;
#X connect 35 0 27 0;
#X connect 35 1 38 0;
#X connect 36 0 37 0;
#X connect 37 0 38 1;
#X connect 38 0 4 0;
#X restore 66 276 pd repeat;
#X obj 0 30 tgl 40 0 \$0-repeat \$0-repeat-rcv REPEAT 2 7 0 10 -262144
-1 -1 0 1;
#X obj 681 88 savestate;
#X obj 522 164 u_parameter \$0 repeat;
#X obj 522 187 u_parameter \$0 speed;
#X obj 152 15 ui_vs \$0 speed 0 1;
#X obj 625 426 > 0;
#X obj 623 377 * 127;
#X obj 623 355 r \$0-repeat;
#X obj 624 403 midi-colors \$0 repeat \$0-repeat-rcv;
#X obj 620 448 s \$0-repeat;
#X text 616 331 midi support for repeat button;
#X obj 522 207 u_parameter \$0 rep-att;
#X obj 113 15 ui_vs \$0 rep-att 0 1;
#X connect 1 0 16 0;
#X connect 3 0 16 1;
#X connect 5 0 6 0;
#X connect 5 0 13 0;
#X connect 13 0 19 0;
#X connect 13 1 18 0;
#X connect 16 0 2 0;
#X connect 16 1 4 0;
#X connect 18 0 13 1;
#X connect 18 1 13 2;
#X connect 19 0 20 0;
#X connect 20 0 28 0;
#X connect 22 0 26 0;
#X connect 23 0 25 0;
#X connect 24 0 23 0;
#X connect 25 0 22 0;
#X coords 0 -1 1 1 190 70 1 0 0;
