#N canvas 855 58 1005 927 12;
#X declare -path pdr/core;
#X declare -path pdr/core/stuff;
#X declare -path pdr/core/rj;
#X declare -path pdr/core/fid_abs_vanilia-0.4;
#X obj 308 16 inlet~;
#X obj 388 16 inlet~;
#X obj 307 846 outlet~;
#X obj 389 848 outlet~;
#X obj 487 13 inlet;
#X obj 492 611 outlet;
#X obj 426 394 / 80181;
#X obj 884 75 namecanvas \$0-multitab;
#X obj 897 46 ui_multitab \$0;
#X obj 1227 129 declare -path pdr/core;
#X obj 1227 149 declare -path pdr/core/stuff;
#X obj 1227 169 declare -path pdr/core/rj;
#X obj 1225 196 declare -path pdr/core/fid_abs_vanilia-0.4;
#X obj 1241 299 namecanvas \$0-this;
#X obj 1239 276 triggered_loadbang \$0-this;
#X text 1234 226 manually trigger loadbang if the instance of abstraction
is created dynamically, f 29;
#X obj 670 44 module_loader inst_scratcher \$0 \$1;
#N canvas 0 50 742 369 openpanel 0;
#X obj 283 15 inlet;
#X obj 78 323 outlet;
#X obj 191 59 openpanel;
#X obj 199 271 soundfiler;
#X msg 198 238 read -resize \$1 \$2 \$3;
#X obj 198 213 list append \$0-l \$0-r;
#X obj 160 46 bng 15 250 50 0 empty empty empty 17 7 0 10 -262144 -1
-1;
#X msg 336 44 set symbol \$1;
#X msg 336 69 symbol /home/jyg/Documents/Pd/patches/PdRacks_v0.6/medias/sounds/soundfonts/others/Flute.wav
;
#X obj 142 22 inlet;
#X obj 178 134 s \$0-filename;
#X obj 194 180 r \$0-filename;
#X obj 238 328 s \$0-nb_samples;
#X connect 0 0 10 0;
#X connect 2 0 7 0;
#X connect 2 0 10 0;
#X connect 3 0 1 0;
#X connect 3 0 12 0;
#X connect 4 0 3 0;
#X connect 5 0 4 0;
#X connect 7 0 8 0;
#X connect 8 0 10 0;
#X connect 9 0 2 0;
#X connect 11 0 5 0;
#X restore 429 351 pd openpanel;
#X obj 1365 37 table \$0-l;
#X obj 1369 71 table \$0-r;
#X obj 274 100 bng 15 250 50 0 empty empty open... -30 7 0 10 -262144
-1 -258113;
#X obj 541 198 route touch rotate speed;
#X obj 541 246 t b f;
#X msg 792 311 feedback \$1;
#X obj 103 115 hsl 146 25 0.001 1 0 0 \$0-to \$0-to-rcv empty -2 -8
0 10 -261682 -1 -1 14500 1;
#X obj 104 145 hsl 146 25 0.001 1 0 0 \$0-from \$0-from-rcv empty -2
-8 0 10 -261682 -1 -1 0 1;
#X obj 103 135 hsl 146 15 0 1 0 0 empty empty 0:4 72 0 0 40 -204786
-1 -159808 6951 0;
#X obj 670 69 u_dispatch \$0 filename;
#X obj 252 115 ui_vs \$0 vol 0 127;
#X obj 670 94 u_dispatch \$0 vol;
#X obj 670 119 u_parameter \$0 to;
#X obj 670 144 u_parameter \$0 from;
#X obj 256 746 *~;
#X obj 413 643 r \$0-vol;
#X obj 413 668 dbtorms;
#X obj 413 693 lop~ 10;
#X obj 351 753 *~;
#X obj 574 726 stuff/splitfilename /;
#X obj 570 698 r \$0-filename;
#X text 669 706 vanilla version of splitfilename;
#X obj 101 153 cnv 1 1 1 empty \$0-displayname-rcv GrooveDarkness 2
8 0 14 -233017 -66577 0;
#X obj 629 878 s \$0-displayname-rcv;
#X msg 624 845 label \$1;
#X obj 577 765 stuff/splitfilename .;
#X msg 738 810 label;
#X obj 738 -3 loadbang;
#X msg 738 19 to 1 \, from 0;
#N canvas 0 57 1920 1023 scratchstuff2 0;
#X obj 127 11 inlet;
#X obj 59 834 outlet~;
#X obj 301 835 outlet~;
#X obj 112 701 rpole~ 1;
#X obj 190 132 -;
#X obj 98 351 spigot;
#X obj 190 155 t f f f;
#X obj 251 285 select 1;
#X obj 164 108 t f f f f f;
#X obj 225 385 f;
#X obj 209 411 t f f;
#X msg 416 548 set \$1;
#X obj 86 775 tabread4~ \$0-l;
#X obj 246 775 tabread4~ \$0-r;
#X obj 208 234 ||;
#X obj 135 285 == 0;
#X msg 107 428 \$1;
#X obj 74 561 -~;
#X obj 55 493 rzero~ 1;
#X obj 62 459 line~;
#N canvas 724 81 810 573 test 0;
#X obj 115 154 rzero~ 1;
#X obj 317 288 bng 15 250 50 0 empty empty empty 17 7 0 10 -262144
-1 -1;
#X obj 155 247 expr~ -($v1<-10)*($v1-$v2);
#X obj 195 388 rpole~ 1;
#X obj 158 461 wrap~;
#X obj 158 490 cos~;
#X msg 300 343 set 0;
#X obj 134 529 outlet~;
#X obj 184 107 inlet~;
#X obj 195 417 *~ 0.01;
#X msg 250 135 set 0;
#X obj 116 314 lop~ 10;
#X obj 113 347 lop~ 10;
#X obj 334 205 fexpr~ $x1[-1];
#X obj 434 75 inlet;
#X obj 493 325 gemscope~;
#X obj 521 148 phasor~ 1;
#X msg 580 276 1;
#X obj 335 440 *~ 0.001;
#X obj 115 283 *~ 1;
#X obj 168 471 wrap~;
#X obj 168 500 cos~;
#X obj 205 427 *~ 0.01;
#X connect 0 0 2 0;
#X connect 0 0 13 0;
#X connect 0 0 19 0;
#X connect 0 0 15 1;
#X connect 1 0 3 0;
#X connect 2 0 19 0;
#X connect 3 0 9 0;
#X connect 4 0 5 0;
#X connect 5 0 7 0;
#X connect 6 0 3 0;
#X connect 8 0 0 0;
#X connect 9 0 4 0;
#X connect 9 0 18 0;
#X connect 10 0 0 0;
#X connect 11 0 12 0;
#X connect 12 0 3 0;
#X connect 13 0 2 1;
#X connect 14 0 6 0;
#X connect 16 0 15 0;
#X connect 17 0 15 2;
#X connect 19 0 11 0;
#X connect 20 0 21 0;
#X connect 22 0 20 0;
#X restore 416 634 pd test;
#X obj 416 763 hip~ 10;
#X obj 559 27 inlet;
#X obj 164 73 / 1000;
#X obj 209 196 < -10;
#X obj 271 194 > 10;
#X obj 113 742 *~ 1000;
#X obj 88 527 expr~ (($v1<-10)+($v1>10))*($f2*$v1);
#X msg 98 376 \$1 30;
#X obj 408 99 r \$0-from;
#X obj 386 200 -;
#X obj 365 69 r \$0-to;
#X obj 384 250 *;
#X obj 408 124 t b f;
#X obj 373 319 /;
#X msg 376 295 1 \$1;
#X obj 335 407 + 1;
#X obj 361 373 * 934;
#X obj 182 47 * 80181;
#X obj 111 614 lop~ 8;
#X obj 115 636 lop~ 8;
#X obj 112 589 lop~ 3;
#X obj 541 122 t b f;
#X text 406 338 facteur de conmpensation inversement proportionnel
à la taille du saut entre debut et fin du sample;
#X connect 0 0 38 0;
#X connect 3 0 26 0;
#X connect 4 0 6 0;
#X connect 5 0 28 0;
#X connect 6 1 24 0;
#X connect 6 2 25 0;
#X connect 7 0 9 0;
#X connect 7 0 20 1;
#X connect 8 0 5 0;
#X connect 8 0 16 0;
#X connect 8 1 4 1;
#X connect 8 2 4 0;
#X connect 8 3 9 1;
#X connect 9 0 10 0;
#X connect 10 1 11 0;
#X connect 11 0 3 0;
#X connect 12 0 1 0;
#X connect 13 0 2 0;
#X connect 14 0 15 0;
#X connect 14 0 7 0;
#X connect 15 0 5 1;
#X connect 16 0 19 0;
#X connect 17 0 41 0;
#X connect 18 0 17 0;
#X connect 18 0 27 0;
#X connect 19 0 18 0;
#X connect 19 0 20 0;
#X connect 20 0 21 0;
#X connect 22 0 38 1;
#X connect 22 0 42 0;
#X connect 23 0 8 0;
#X connect 24 0 14 0;
#X connect 25 0 14 1;
#X connect 26 0 12 0;
#X connect 26 0 13 0;
#X connect 27 0 17 1;
#X connect 28 0 19 0;
#X connect 29 0 33 0;
#X connect 30 0 32 0;
#X connect 31 0 30 0;
#X connect 32 0 35 0;
#X connect 33 0 30 0;
#X connect 33 1 30 1;
#X connect 34 0 37 0;
#X connect 35 0 34 0;
#X connect 36 0 27 1;
#X connect 37 0 36 0;
#X connect 38 0 23 0;
#X connect 39 0 40 0;
#X connect 40 0 3 0;
#X connect 41 0 39 0;
#X connect 42 0 32 0;
#X connect 42 1 32 1;
#X restore 151 570 pd scratchstuff2;
#X obj 421 432 s \$0-nb_revolutions;
#N canvas 0 50 450 300 display_index 0;
#X obj 226 29 inlet;
#X obj 222 285 outlet;
#X obj 230 112 int;
#X obj 230 137 t f f;
#X obj 212 208 pack f f;
#X msg 167 238 label \$2:\$1;
#X obj 230 87 * 10;
#X obj 212 183 mod 10;
#X obj 275 183 div 10;
#X msg 301 243 label 0:0;
#X obj 328 63 * 1;
#X obj 359 41 r \$0-nb_revolutions;
#X obj 226 54 t f f;
#X msg 74 108 set \$1;
#X connect 0 0 12 0;
#X connect 2 0 3 0;
#X connect 3 0 7 0;
#X connect 3 1 8 0;
#X connect 4 0 5 0;
#X connect 5 0 1 0;
#X connect 6 0 2 0;
#X connect 7 0 4 0;
#X connect 8 0 4 1;
#X connect 9 0 1 0;
#X connect 10 0 6 0;
#X connect 11 0 10 1;
#X connect 12 0 13 0;
#X connect 12 1 10 0;
#X connect 13 0 1 0;
#X restore 61 79 pd display_index;
#X obj 256 771 hip~ 10;
#X obj 351 788 hip~ 10;
#N canvas 605 58 945 865 motor_stuff 0;
#X obj 110 43 inlet;
#X obj 183 222 / 2;
#X obj 180 253 + 0.5;
#X obj 260 175 > 0;
#X obj 260 204 change;
#X obj 183 193 / 3.14159;
#X obj 252 126 t f f f;
#X obj 342 202 abs;
#X obj 342 231 > 1;
#X obj 251 270 spigot;
#X obj 210 485 +;
#X obj 248 314 select 0 1;
#X obj 257 392 +;
#X obj 260 434 f;
#X msg 296 351 -1;
#X msg 248 343 1;
#X obj 654 403 == 0;
#X obj 577 571 f;
#X obj 716 257 -;
#X obj 706 580 f;
#X obj 706 374 +;
#X obj 749 390 * 0.8;
#X obj 699 412 t f f;
#X obj 560 364 select 0;
#X obj 583 476 t b b;
#X obj 575 696 line;
#X obj 411 734 +;
#X obj 550 813 f;
#X obj 490 763 spigot;
#X floatatom 803 447 5 0 0 0 - - -;
#X obj 716 344 * 0.2;
#X text 766 367 moyennage vitesse;
#X text 740 728 inertie;
#X obj 355 375 - 0.5;
#X obj 353 411 * 6.28318;
#X obj 360 338 -;
#X obj 407 333 int;
#X obj 726 180 f;
#N canvas 0 50 450 300 hysteresis 0;
#X obj 198 40 inlet;
#X obj 162 237 outlet;
#X msg 330 188 0;
#X obj 207 137 moses -0.001;
#X obj 234 91 moses 0.001;
#X connect 0 0 4 0;
#X connect 2 0 1 0;
#X connect 3 0 1 0;
#X connect 3 1 2 0;
#X connect 4 0 3 0;
#X connect 4 1 1 0;
#X restore 574 603 pd hysteresis;
#X text 765 417 = 50 fois par seconde;
#X obj 715 111 loadbang;
#X obj 577 632 pack f f;
#X obj 490 732 f, f 6;
#X obj 525 128 * 0.0111111;
#X obj 458 628 f;
#X obj 537 185 t b f;
#X obj 568 86 inlet motor_speed;
#X obj 323 842 outlet;
#X obj 237 845 outlet;
#X obj 726 212 t f f f;
#X obj 680 282 moses -0.1;
#X obj 745 315 moses 0.1;
#X floatatom 575 721 5 0 0 0 - - -;
#X obj 111 76 s \$0-touch;
#X obj 210 510 spigot;
#X obj 287 479 r \$0-touch;
#X obj 264 51 inlet rotator;
#X obj 418 167 r \$0-set;
#X obj 353 436 t f f;
#X obj 420 453 > 0;
#X msg 338 153 set \$1;
#X obj 210 535 t f f f;
#X obj 591 303 r \$0-touch;
#X obj 378 303 t f f f;
#X obj 418 192 t f f;
#X obj 682 129 bng 15 250 50 0 empty empty empty 17 7 0 10 -262144
-1 -1;
#X obj 711 146 metro 20;
#X msg 578 665 \$1 \, \$2 100;
#X connect 0 0 53 0;
#X connect 1 0 2 0;
#X connect 2 0 10 0;
#X connect 3 0 4 0;
#X connect 4 0 9 0;
#X connect 5 0 1 0;
#X connect 6 0 5 0;
#X connect 6 1 3 0;
#X connect 6 2 7 0;
#X connect 7 0 8 0;
#X connect 8 0 9 1;
#X connect 9 0 11 0;
#X connect 10 0 54 0;
#X connect 11 0 15 0;
#X connect 11 1 14 0;
#X connect 12 0 13 0;
#X connect 13 0 12 1;
#X connect 13 0 10 1;
#X connect 14 0 12 0;
#X connect 15 0 12 0;
#X connect 16 0 28 1;
#X connect 17 0 38 0;
#X connect 18 0 50 0;
#X connect 19 0 27 0;
#X connect 20 0 22 0;
#X connect 21 0 20 1;
#X connect 22 0 17 1;
#X connect 22 1 21 0;
#X connect 23 0 24 0;
#X connect 24 0 17 0;
#X connect 24 1 19 0;
#X connect 25 0 42 1;
#X connect 25 0 44 1;
#X connect 25 0 52 0;
#X connect 26 0 27 0;
#X connect 26 0 48 0;
#X connect 26 0 63 0;
#X connect 27 0 26 1;
#X connect 28 0 26 0;
#X connect 30 0 20 0;
#X connect 33 0 34 0;
#X connect 34 0 58 0;
#X connect 35 0 33 0;
#X connect 36 0 35 1;
#X connect 36 0 13 0;
#X connect 37 0 49 0;
#X connect 38 0 41 0;
#X connect 40 0 66 0;
#X connect 41 0 67 0;
#X connect 42 0 28 0;
#X connect 43 0 45 0;
#X connect 44 0 41 0;
#X connect 45 0 44 0;
#X connect 45 1 41 1;
#X connect 46 0 43 0;
#X connect 49 0 18 1;
#X connect 49 1 18 0;
#X connect 49 2 19 1;
#X connect 50 1 51 0;
#X connect 51 0 30 0;
#X connect 54 0 61 0;
#X connect 55 0 54 1;
#X connect 56 0 6 0;
#X connect 57 0 64 0;
#X connect 58 0 47 0;
#X connect 58 1 59 0;
#X connect 59 0 60 0;
#X connect 60 0 4 0;
#X connect 61 0 48 0;
#X connect 61 2 37 1;
#X connect 62 0 23 0;
#X connect 62 0 16 0;
#X connect 63 0 35 0;
#X connect 63 1 36 0;
#X connect 64 0 63 0;
#X connect 64 1 27 0;
#X connect 65 0 66 0;
#X connect 66 0 37 0;
#X connect 66 0 42 0;
#X connect 67 0 25 0;
#X restore 701 284 pd motor_stuff;
#N canvas 77 94 945 865 motor_stuff_old 0;
#X obj 110 43 inlet;
#X obj 264 51 inlet;
#X obj 183 222 / 2;
#X obj 180 253 + 0.5;
#X obj 260 175 > 0;
#X obj 260 204 change;
#X obj 183 193 / 3.14159;
#X obj 252 126 t f f f;
#X obj 342 202 abs;
#X obj 342 231 > 1;
#X obj 251 270 spigot;
#X obj 210 485 +;
#X obj 248 314 select 0 1;
#X obj 257 392 +;
#X obj 260 434 f;
#X msg 296 351 -1;
#X msg 248 343 1;
#X obj 654 403 == 0;
#X obj 577 571 f;
#X obj 716 257 -;
#X obj 706 580 f;
#X obj 706 374 +;
#X obj 749 390 * 0.8;
#X obj 699 412 t f f;
#X obj 574 434 select 0;
#X obj 583 476 t b b;
#X obj 575 696 line;
#X obj 481 814 +;
#X obj 550 813 f;
#X obj 490 763 spigot;
#X floatatom 803 447 5 0 0 0 - - -;
#X obj 716 344 * 0.2;
#X text 751 493 moyennage vitesse;
#X text 740 728 inertie;
#X obj 964 760 - 0.5;
#X obj 962 796 * 6.28318;
#X obj 991 669 t f f;
#X obj 969 723 -;
#X obj 1047 707 int;
#X obj 726 180 f;
#X obj 711 146 metro 20;
#X floatatom 693 535 5 0 0 0 - - -;
#N canvas 0 50 450 300 hysteresis 0;
#X obj 198 40 inlet;
#X obj 162 237 outlet;
#X msg 330 188 0;
#X obj 207 137 moses -0.001;
#X obj 234 91 moses 0.001;
#X connect 0 0 4 0;
#X connect 2 0 1 0;
#X connect 3 0 1 0;
#X connect 3 1 2 0;
#X connect 4 0 3 0;
#X connect 4 1 1 0;
#X restore 574 603 pd hysteresis;
#X text 817 509 = 50 fois par seconde;
#X obj 715 111 loadbang;
#X obj 577 632 pack f f;
#X obj 490 732 f, f 6;
#X obj 475 454 * 0.0111111;
#X obj 458 628 f;
#X obj 487 511 t b f;
#X msg 578 665 \$1 \, \$2 150;
#X obj 568 86 inlet motor_speed;
#X obj 962 825 outlet;
#X obj 237 845 outlet;
#X obj 343 322 r \$0-reset;
#X obj 331 454 t f f f f;
#X msg 345 360 0;
#X obj 726 212 t f f f;
#X obj 268 753 spigot;
#X obj 135 83 t f f f;
#X obj 223 709 moses 0;
#X obj 27 442 r \$0-to;
#X obj 64 653 *;
#X obj 43 223 t b;
#X obj 57 265 f;
#X obj 91 589 r \$0-nb_revolutions;
#X obj 91 614 t b f;
#X obj 122 419 -;
#X obj 131 368 int;
#X obj 300 785 t f f;
#X obj 102 333 t f f b;
#X obj 51 300 - 0.001;
#X obj 36 530 -;
#X obj 57 473 r \$0-from;
#X obj 57 498 t b f;
#X obj 28 177 r \$0-gotoend;
#X obj 680 282 moses -0.1;
#X obj 745 315 moses 0.1;
#X floatatom 575 721 5 0 0 0 - - -;
#X connect 0 0 59 0;
#X connect 1 0 7 0;
#X connect 2 0 3 0;
#X connect 3 0 11 0;
#X connect 4 0 5 0;
#X connect 5 0 10 0;
#X connect 6 0 2 0;
#X connect 7 0 6 0;
#X connect 7 1 4 0;
#X connect 7 2 8 0;
#X connect 8 0 9 0;
#X connect 9 0 10 1;
#X connect 10 0 12 0;
#X connect 11 0 39 1;
#X connect 11 0 60 0;
#X connect 12 0 16 0;
#X connect 12 1 15 0;
#X connect 13 0 14 0;
#X connect 14 0 13 1;
#X connect 14 0 11 1;
#X connect 15 0 13 0;
#X connect 16 0 13 0;
#X connect 17 0 29 1;
#X connect 18 0 42 0;
#X connect 19 0 76 0;
#X connect 20 0 28 0;
#X connect 21 0 23 0;
#X connect 22 0 21 1;
#X connect 23 0 18 1;
#X connect 23 0 41 0;
#X connect 23 1 22 0;
#X connect 24 0 25 0;
#X connect 25 0 18 0;
#X connect 25 1 20 0;
#X connect 26 0 46 1;
#X connect 26 0 48 1;
#X connect 26 0 78 0;
#X connect 27 0 28 0;
#X connect 27 0 69 0;
#X connect 28 0 27 1;
#X connect 29 0 27 0;
#X connect 31 0 21 0;
#X connect 34 0 35 0;
#X connect 35 0 52 0;
#X connect 36 0 37 0;
#X connect 36 1 38 0;
#X connect 37 0 34 0;
#X connect 38 0 37 1;
#X connect 39 0 57 0;
#X connect 40 0 39 0;
#X connect 40 0 46 0;
#X connect 42 0 45 0;
#X connect 44 0 40 0;
#X connect 45 0 50 0;
#X connect 46 0 29 0;
#X connect 47 0 49 0;
#X connect 48 0 45 0;
#X connect 49 0 48 0;
#X connect 49 1 45 1;
#X connect 50 0 26 0;
#X connect 51 0 47 0;
#X connect 54 0 56 0;
#X connect 55 0 11 0;
#X connect 55 1 14 0;
#X connect 55 2 27 0;
#X connect 55 3 28 0;
#X connect 56 0 55 0;
#X connect 57 0 19 1;
#X connect 57 1 19 0;
#X connect 57 2 20 1;
#X connect 58 0 69 0;
#X connect 59 0 24 0;
#X connect 59 1 17 0;
#X connect 59 2 58 1;
#X connect 60 1 58 0;
#X connect 61 0 72 0;
#X connect 62 0 64 1;
#X connect 63 0 64 0;
#X connect 64 0 71 0;
#X connect 65 0 66 0;
#X connect 66 0 62 0;
#X connect 66 1 62 1;
#X connect 67 0 11 0;
#X connect 68 0 67 1;
#X connect 68 0 14 0;
#X connect 69 0 53 0;
#X connect 69 1 36 0;
#X connect 70 0 67 0;
#X connect 70 1 68 0;
#X connect 71 0 70 0;
#X connect 72 0 62 0;
#X connect 73 0 74 0;
#X connect 74 0 72 0;
#X connect 74 1 72 1;
#X connect 75 0 63 0;
#X connect 76 1 77 0;
#X connect 77 0 31 0;
#X restore 840 189 pd motor_stuff_old;
#X obj 147 519 r \$0-index;
#X obj 49 0 r \$0-index;
#X text 503 376 nb samples/tour @ 33.33 rpm @ 44100Hz, f 27;
#X obj 700 445 moses 0;
#X obj 746 497 moses 1;
#X obj 734 345 r \$0-nb_revolutions;
#X obj 701 420 * 1;
#X obj 734 395 /;
#X msg 734 370 1 \$1;
#X obj 808 409 r \$0-from;
#X obj 827 439 r \$0-to;
#X obj 697 472 t b;
#X obj 697 497 f;
#X obj 790 523 t b;
#X obj 790 548 f;
#X obj 634 627 s \$0-index;
#X obj 700 582 t f f;
#X obj 758 623 * 1;
#X obj 758 648 s \$0-set;
#X obj 785 596 r \$0-nb_revolutions;
#X obj 212 100 bng 15 250 50 0 \$0-in empty IN 2 8 0 9 -1 -1 -257985
;
#X obj 228 100 bng 15 250 50 0 \$0-out empty OUT 0 8 0 9 -1 -1 -261234
;
#X obj 58 294 r \$0-index;
#X obj 41 354 f;
#X obj 112 359 f;
#X obj 28 327 r \$0-in;
#X obj 119 331 r \$0-out;
#X obj 41 376 s \$0-from;
#X obj 112 381 s \$0-to;
#N canvas 0 50 844 484 dnd/target 0;
#X obj 350 32 r dnd-dropped;
#X obj 156 282 list append;
#X obj 314 111 t l b;
#X msg 336 149 1;
#X obj 154 218 spigot;
#X obj 210 75 r dnd-done;
#X msg 211 160 0;
#X obj 210 104 delay 10;
#X obj 157 312 list split 2;
#X obj 107 157 inlet;
#X text 434 315 <- avoid white space problems;
#X obj 349 69 route -drop -path -name -ext;
#N canvas 696 149 327 493 tosymbol 0;
#X text 65 454 symbol out with correct spaces;
#X text 81 12 string in;
#X obj 91 31 inlet;
#X obj 91 431 outlet;
#X obj 85 31 cnv 5 5 17 empty empty empty 20 12 0 14 -118750 -66577
0;
#X obj 85 431 cnv 5 5 17 empty empty empty 20 12 0 14 -102336 -66577
0;
#X obj 91 55 list;
#X obj 91 193 list store, f 13;
#X obj 91 102 until;
#X obj 91 128 f, f 7;
#X obj 153 128 + 1;
#X msg 91 171 get \$1 1;
#X obj 134 103 0;
#X obj 91 263 list fromsymbol;
#X obj 91 215 route symbol float;
#X obj 109 239 makefilename %s;
#X obj 91 150 t f f;
#X obj 91 380 list store, f 19;
#X obj 91 355 list trim;
#X obj 91 332 list prepend append;
#X obj 157 286 spigot;
#X msg 157 308 32;
#X obj 91 286 t l b, f 9;
#X obj 91 77 t b b a b, f 19;
#X obj 91 404 list tosymbol;
#X connect 2 0 6 0;
#X connect 6 0 23 0;
#X connect 7 0 14 0;
#X connect 7 1 8 1;
#X connect 7 1 17 0;
#X connect 8 0 9 0;
#X connect 9 0 10 0;
#X connect 9 0 16 0;
#X connect 10 0 9 1;
#X connect 11 0 7 0;
#X connect 12 0 9 1;
#X connect 13 0 22 0;
#X connect 14 0 13 0;
#X connect 14 1 15 0;
#X connect 15 0 13 0;
#X connect 16 0 11 0;
#X connect 16 1 20 1;
#X connect 17 0 24 0;
#X connect 18 0 17 0;
#X connect 19 0 18 0;
#X connect 20 0 21 0;
#X connect 21 0 19 0;
#X connect 22 0 19 0;
#X connect 22 1 20 0;
#X connect 23 0 8 0;
#X connect 23 1 12 0;
#X connect 23 2 7 1;
#X connect 23 3 17 1;
#X connect 24 0 3 0;
#X restore 270 312 pd tosymbol;
#N canvas 696 119 327 493 tosymbol 0;
#X text 65 454 symbol out with correct spaces;
#X text 81 12 string in;
#X obj 91 31 inlet;
#X obj 91 431 outlet;
#X obj 85 31 cnv 5 5 17 empty empty empty 20 12 0 14 -118750 -66577
0;
#X obj 85 431 cnv 5 5 17 empty empty empty 20 12 0 14 -102336 -66577
0;
#X obj 91 55 list;
#X obj 91 193 list store, f 13;
#X obj 91 102 until;
#X obj 91 128 f, f 7;
#X obj 153 128 + 1;
#X msg 91 171 get \$1 1;
#X obj 134 103 0;
#X obj 91 263 list fromsymbol;
#X obj 91 215 route symbol float;
#X obj 109 239 makefilename %s;
#X obj 91 150 t f f;
#X obj 91 380 list store, f 19;
#X obj 91 355 list trim;
#X obj 91 332 list prepend append;
#X obj 157 286 spigot;
#X msg 157 308 32;
#X obj 91 286 t l b, f 9;
#X obj 91 77 t b b a b, f 19;
#X obj 91 404 list tosymbol;
#X connect 2 0 6 0;
#X connect 6 0 23 0;
#X connect 7 0 14 0;
#X connect 7 1 8 1;
#X connect 7 1 17 0;
#X connect 8 0 9 0;
#X connect 9 0 10 0;
#X connect 9 0 16 0;
#X connect 10 0 9 1;
#X connect 11 0 7 0;
#X connect 12 0 9 1;
#X connect 13 0 22 0;
#X connect 14 0 13 0;
#X connect 14 1 15 0;
#X connect 15 0 13 0;
#X connect 16 0 11 0;
#X connect 16 1 20 1;
#X connect 17 0 24 0;
#X connect 18 0 17 0;
#X connect 19 0 18 0;
#X connect 20 0 21 0;
#X connect 21 0 19 0;
#X connect 22 0 19 0;
#X connect 22 1 20 0;
#X connect 23 0 8 0;
#X connect 23 1 12 0;
#X connect 23 2 7 1;
#X connect 23 3 17 1;
#X connect 24 0 3 0;
#X restore 350 314 pd tosymbol;
#X obj 191 343 outlet;
#X obj 274 289 list append;
#X obj 356 288 list append;
#X obj 441 288 list append;
#X obj 155 244 t b b b b;
#X obj 271 343 outlet;
#X obj 366 343 outlet;
#X obj 443 348 outlet;
#X obj 109 275 t b b;
#X obj 77 312 s dnd-done;
#X connect 0 0 11 0;
#X connect 1 0 8 0;
#X connect 2 0 1 1;
#X connect 2 1 3 0;
#X connect 3 0 4 1;
#X connect 4 0 18 0;
#X connect 5 0 7 0;
#X connect 6 0 4 1;
#X connect 7 0 6 0;
#X connect 8 1 14 0;
#X connect 9 0 4 0;
#X connect 11 0 2 0;
#X connect 11 1 15 1;
#X connect 11 2 16 1;
#X connect 11 3 17 1;
#X connect 12 0 19 0;
#X connect 13 0 20 0;
#X connect 15 0 12 0;
#X connect 16 0 13 0;
#X connect 17 0 21 0;
#X connect 18 0 22 0;
#X connect 18 1 15 0;
#X connect 18 2 16 0;
#X connect 18 3 17 0;
#X connect 22 0 23 0;
#X connect 22 1 1 0;
#X restore 511 279 pd dnd/target;
#X connect 0 0 2 0;
#X connect 1 0 3 0;
#X connect 4 0 5 0;
#X connect 4 0 21 0;
#X connect 6 0 48 0;
#X connect 16 0 27 0;
#X connect 17 0 6 0;
#X connect 17 0 47 1;
#X connect 20 0 17 0;
#X connect 21 0 22 0;
#X connect 21 1 52 1;
#X connect 21 2 52 2;
#X connect 22 0 83 0;
#X connect 22 1 52 0;
#X connect 23 0 5 0;
#X connect 27 0 29 0;
#X connect 29 0 30 0;
#X connect 30 0 31 0;
#X connect 32 0 50 0;
#X connect 33 0 34 0;
#X connect 34 0 35 0;
#X connect 35 0 32 1;
#X connect 35 0 36 1;
#X connect 36 0 51 0;
#X connect 37 1 43 0;
#X connect 38 0 37 0;
#X connect 42 0 41 0;
#X connect 43 0 42 0;
#X connect 44 0 41 0;
#X connect 45 0 46 0;
#X connect 46 0 16 0;
#X connect 47 0 32 0;
#X connect 47 1 36 0;
#X connect 49 0 26 0;
#X connect 50 0 2 0;
#X connect 51 0 3 0;
#X connect 52 0 60 0;
#X connect 52 1 23 0;
#X connect 54 0 47 0;
#X connect 55 0 49 0;
#X connect 57 0 65 0;
#X connect 57 1 58 0;
#X connect 58 0 69 0;
#X connect 58 1 67 0;
#X connect 59 0 62 0;
#X connect 60 0 57 0;
#X connect 61 0 60 1;
#X connect 62 0 61 0;
#X connect 63 0 57 1;
#X connect 63 0 68 1;
#X connect 64 0 58 1;
#X connect 64 0 66 1;
#X connect 65 0 66 0;
#X connect 66 0 70 0;
#X connect 67 0 68 0;
#X connect 68 0 70 0;
#X connect 70 0 69 0;
#X connect 70 1 71 0;
#X connect 71 0 72 0;
#X connect 73 0 71 1;
#X connect 76 0 77 1;
#X connect 76 0 78 1;
#X connect 77 0 81 0;
#X connect 78 0 82 0;
#X connect 79 0 77 0;
#X connect 80 0 78 0;
#X connect 83 0 17 1;
#X coords 0 -1 1 1 190 70 1 100 100;
