#N struct 1287-symarray float x array symbols 1287-sym;
#N struct 1287-sym symbol name float on;
#N canvas 434 481 644 582 16;
#X obj 39 171 inst_ep-mk1;
#X obj 39 246 dac~;
#X text 29 327 Miguel Moreno 2018;
#X text 29 347 Email: mianmogra94@gmail.com;
#X text 29 372 GitHub: github.com/MikeMorenoAudio;
#X text 29 407 Facebook: fb.com/MikeMorenoAudio;
#X text 29 457 WordPress: mikemorenoaudio.wordpress.com;
#X text 29 482 PatchStorage: patchstorage.com/author/mianmogra;
#X text 29 432 Youtube: youtube.com/c/MikeMorenoAudio;
#X text 28 509 DONATE;
#X text 28 526 paypal.me/mianmogra;
#X text 27 40 PdRacks adaptation of ep-mk1 by jy gratius 2019;
#X text 28 301 CREDITS :;
#X text 27 18 Electric piano;
#X obj 40 81 data_azerty2midi;
#X connect 0 0 1 0;
#X connect 0 1 1 1;
#X connect 14 0 0 0;
#X connect 14 1 0 1;
#X connect 14 2 0 2;
