#N canvas 855 58 1005 927 12;
#X declare -path pdr/core;
#X declare -path pdr/core/stuff;
#X declare -path pdr/core/rj;
#X declare -path pdr/core/fid_abs_vanilia-0.4;
#X obj 308 16 inlet~;
#X obj 388 16 inlet~;
#X obj 307 846 outlet~;
#X obj 389 848 outlet~;
#X obj 487 13 inlet;
#X obj 492 611 outlet;
#X obj 426 394 / 80181;
#X obj 884 75 namecanvas \$0-multitab;
#X obj 897 46 ui_multitab \$0;
#X obj 1227 129 declare -path pdr/core;
#X obj 1227 149 declare -path pdr/core/stuff;
#X obj 1227 169 declare -path pdr/core/rj;
#X obj 1225 196 declare -path pdr/core/fid_abs_vanilia-0.4;
#X obj 1241 299 namecanvas \$0-this;
#X obj 1239 276 triggered_loadbang \$0-this;
#X text 1234 226 manually trigger loadbang if the instance of abstraction
is created dynamically, f 29;
#X obj 670 44 module_loader inst_scratcher \$0 \$1;
#N canvas 0 50 1263 963 openpanel 0;
#X obj 283 15 inlet;
#X obj 171 717 outlet;
#X obj 191 59 openpanel;
#X obj 209 670 soundfiler;
#X msg 202 562 read -resize \$1 \$2 \$3;
#X obj 202 537 list append \$0-l \$0-r;
#X obj 160 46 bng 15 250 50 0 empty empty empty 17 7 0 10 -262144 -1
-1;
#X msg 336 44 set symbol \$1;
#X msg 336 69 symbol /home/jyg/Documents/Pd/patches/PdRacks_v0.6/medias/sounds/soundfonts/others/Dj.wav
;
#X obj 142 22 inlet;
#X obj 178 134 s \$0-filename;
#X obj 198 164 r \$0-filename;
#X obj 331 722 s \$0-nb_samples;
#N canvas 0 50 819 560 sndfiler_with_readanysf~ 0;
#X obj 51 8 inlet;
#X obj 223 523 outlet;
#X obj 53 34 route read;
#X obj 179 114 list;
#X obj 61 85 route -resize -skip -raw -maxsize;
#X obj 53 56 list trim;
#X obj 118 372 *;
#X obj 150 305 samplerate~;
#N canvas 434 167 808 602 oversample 0;
#X obj 132 332 tabwrite~;
#X obj 218 327 tabwrite~;
#X msg 70 115 open \$1;
#X obj 53 288 t b b b;
#X msg 108 369 1;
#X msg 171 380 0;
#X obj 241 353 t b b b;
#X obj 74 12 inlet;
#X obj 76 460 outlet;
#X obj 114 422 switch~ 1024 1 64;
#X obj 264 466 outlet;
#X obj 71 60 unpack s s s, f 16;
#X text 631 266 autoresize;
#X obj 95 143 readanysf~ 2 16 1024;
#X msg 55 316 play;
#X obj 232 178 route ready bang length;
#X obj 601 294 * 44100;
#X obj 539 443 array size;
#X obj 637 443 array size;
#X obj 390 465 outlet;
#X obj 337 325 select 0;
#X obj 600 332 t b f f;
#X msg 147 288 set \$1;
#X msg 218 281 set \$1;
#X obj 46 227 delay 1;
#X obj 43 195 select 1;
#X obj 56 86 t b s b;
#X obj 546 230 pipe f 0;
#X obj 169 502 bang~;
#X obj 169 527 spigot;
#X obj 169 552 t b b;
#X msg 222 499 0;
#X msg 29 257 1;
#X connect 2 0 13 0;
#X connect 3 0 14 0;
#X connect 3 1 8 0;
#X connect 3 2 0 0;
#X connect 3 2 1 0;
#X connect 4 0 9 0;
#X connect 5 0 9 0;
#X connect 6 0 5 0;
#X connect 6 1 10 0;
#X connect 7 0 11 0;
#X connect 11 0 26 0;
#X connect 11 1 22 0;
#X connect 11 1 17 1;
#X connect 11 2 23 0;
#X connect 11 2 18 1;
#X connect 13 0 0 0;
#X connect 13 1 1 0;
#X connect 13 2 15 0;
#X connect 14 0 13 0;
#X connect 15 0 25 0;
#X connect 15 1 6 0;
#X connect 15 2 20 0;
#X connect 16 0 21 0;
#X connect 20 1 19 0;
#X connect 20 1 27 0;
#X connect 21 1 17 0;
#X connect 21 2 18 0;
#X connect 22 0 0 0;
#X connect 23 0 1 0;
#X connect 24 0 32 0;
#X connect 25 0 24 0;
#X connect 26 0 4 0;
#X connect 26 1 2 0;
#X connect 27 0 16 0;
#X connect 28 0 29 0;
#X connect 29 0 30 0;
#X connect 30 0 3 0;
#X connect 30 1 31 0;
#X connect 31 0 29 1;
#X connect 32 0 29 1;
#X restore 124 179 pd oversample;
#X obj 120 214 timer;
#X obj 120 236 * 64;
#X obj 120 258 * 0.001;
#X obj 120 280 t f b;
#X obj 120 437 spigot 1;
#X msg 176 399 1;
#X obj 179 136 t l l l b;
#X obj 286 389 * 44100;
#X obj 120 462 t b;
#X obj 120 487 f;
#X connect 0 0 2 0;
#X connect 2 0 5 0;
#X connect 3 0 15 0;
#X connect 4 0 3 0;
#X connect 4 4 3 0;
#X connect 5 0 4 0;
#X connect 6 0 13 0;
#X connect 7 0 6 1;
#X connect 8 0 9 0;
#X connect 8 1 9 1;
#X connect 8 2 16 0;
#X connect 9 0 10 0;
#X connect 10 0 11 0;
#X connect 11 0 12 0;
#X connect 12 0 6 0;
#X connect 12 1 7 0;
#X connect 13 0 17 0;
#X connect 14 0 13 1;
#X connect 15 0 8 0;
#X connect 15 3 14 0;
#X connect 16 0 18 1;
#X connect 17 0 18 0;
#X connect 18 0 1 0;
#X restore 365 668 pd sndfiler_with_readanysf~;
#X obj 345 600 list prepend 0;
#X obj 345 625 route 0 1;
#X obj 704 286 stuff/splitfilename /;
#X text 799 266 vanilla version of splitfilename;
#X obj 759 438 s \$0-displayname-rcv;
#X msg 754 405 label \$1;
#X obj 707 325 stuff/splitfilename .;
#X msg 828 406 label;
#X obj 198 189 t s s;
#X obj 907 361 select wav aiff WAV AIFF;
#X msg 937 414 0;
#X msg 1025 410 1;
#X obj 576 150 array define \$0-l;
#X obj 581 177 array define \$0-r;
#X obj 818 373 loadbang;
#X connect 0 0 10 0;
#X connect 2 0 7 0;
#X connect 2 0 10 0;
#X connect 3 0 1 0;
#X connect 3 0 12 0;
#X connect 4 0 14 0;
#X connect 5 0 4 0;
#X connect 7 0 8 0;
#X connect 8 0 10 0;
#X connect 9 0 2 0;
#X connect 11 0 22 0;
#X connect 13 0 12 0;
#X connect 13 0 1 0;
#X connect 14 0 15 0;
#X connect 15 0 3 0;
#X connect 15 1 13 0;
#X connect 16 1 20 0;
#X connect 19 0 18 0;
#X connect 20 0 19 0;
#X connect 20 1 23 0;
#X connect 21 0 18 0;
#X connect 22 0 5 0;
#X connect 22 1 16 0;
#X connect 23 0 24 0;
#X connect 23 1 24 0;
#X connect 23 2 24 0;
#X connect 23 3 24 0;
#X connect 23 4 25 0;
#X connect 24 0 14 1;
#X connect 25 0 14 1;
#X connect 28 0 21 0;
#X restore 429 351 pd openpanel;
#X obj 274 100 bng 15 250 50 0 empty empty open... -30 7 0 10 -262144
-1 -258113;
#X obj 541 198 route touch rotate speed;
#X obj 541 246 t b f;
#X msg 792 311 feedback \$1;
#X obj 103 115 hsl 146 20 0.001 1 0 0 \$0-to \$0-to-rcv empty -2 -8
0 10 -261682 -1 -1 14500 1;
#X obj 104 150 hsl 146 20 0 1 0 0 \$0-from \$0-from-rcv empty -2 -8
0 10 -261682 -1 -1 0 1;
#X obj 103 135 hsl 146 15 0 1 0 0 \$0-seek empty 0:0 12 0 0 40 -204786
-1 -159808 0 0;
#X obj 670 69 u_dispatch \$0 filename;
#X obj 252 115 ui_vs \$0 vol 0 127;
#X obj 670 94 u_dispatch \$0 vol;
#X obj 670 119 u_parameter \$0 to;
#X obj 670 144 u_parameter \$0 from;
#X obj 256 746 *~;
#X obj 413 643 r \$0-vol;
#X obj 413 668 dbtorms;
#X obj 413 693 lop~ 10;
#X obj 351 753 *~;
#X obj 101 153 cnv 1 1 1 empty \$0-displayname-rcv empty 2 8 0 14 -233017
-66577 0;
#X obj 738 -3 loadbang;
#X obj 421 432 s \$0-nb_revolutions;
#N canvas 0 50 450 300 display_index 0;
#X obj 226 29 inlet;
#X obj 222 285 outlet;
#X obj 230 112 int;
#X obj 230 137 t f f;
#X obj 212 208 pack f f;
#X msg 167 238 label \$2:\$1;
#X obj 230 87 * 10;
#X obj 212 183 mod 10;
#X obj 275 183 div 10;
#X msg 301 243 label 0:0;
#X obj 328 63 * 1;
#X obj 359 41 r \$0-nb_revolutions;
#X obj 226 54 t f f;
#X msg 74 108 set \$1;
#X obj 353 193 loadbang;
#X connect 0 0 12 0;
#X connect 2 0 3 0;
#X connect 3 0 7 0;
#X connect 3 1 8 0;
#X connect 4 0 5 0;
#X connect 5 0 1 0;
#X connect 6 0 2 0;
#X connect 7 0 4 0;
#X connect 8 0 4 1;
#X connect 9 0 1 0;
#X connect 10 0 6 0;
#X connect 11 0 10 1;
#X connect 12 0 13 0;
#X connect 12 1 10 0;
#X connect 13 0 1 0;
#X connect 14 0 9 0;
#X restore 61 79 pd display_index;
#N canvas 605 58 945 865 motor_stuff 0;
#X obj 110 43 inlet;
#X obj 183 222 / 2;
#X obj 180 253 + 0.5;
#X obj 260 175 > 0;
#X obj 260 204 change;
#X obj 183 193 / 3.14159;
#X obj 252 126 t f f f;
#X obj 342 202 abs;
#X obj 342 231 > 1;
#X obj 251 270 spigot;
#X obj 210 485 +;
#X obj 248 314 select 0 1;
#X obj 257 392 +;
#X obj 260 434 f;
#X msg 296 351 -1;
#X msg 248 343 1;
#X obj 654 403 == 0;
#X obj 574 532 f;
#X obj 716 257 -;
#X obj 706 580 f;
#X obj 706 374 +;
#X obj 749 390 * 0.8;
#X obj 699 412 t f f;
#X obj 560 364 select 0;
#X obj 583 476 t b b;
#X obj 575 696 line;
#X obj 411 734 +;
#X obj 550 813 f;
#X obj 490 763 spigot;
#X obj 716 344 * 0.2;
#X text 766 367 moyennage vitesse;
#X text 740 728 inertie;
#X obj 355 375 - 0.5;
#X obj 353 411 * 6.28318;
#X obj 360 338 -;
#X obj 407 333 int;
#X obj 726 180 f;
#N canvas 0 50 450 300 hysteresis 0;
#X obj 198 40 inlet;
#X obj 162 237 outlet;
#X msg 330 188 0;
#X obj 207 137 moses -0.001;
#X obj 234 91 moses 0.001;
#X connect 0 0 4 0;
#X connect 2 0 1 0;
#X connect 3 0 1 0;
#X connect 3 1 2 0;
#X connect 4 0 3 0;
#X connect 4 1 1 0;
#X restore 574 603 pd hysteresis;
#X text 765 417 = 50 fois par seconde;
#X obj 490 732 f, f 6;
#X obj 525 128 * 0.0111111;
#X obj 458 628 f;
#X obj 537 185 t b f;
#X obj 568 86 inlet motor_speed;
#X obj 323 842 outlet;
#X obj 237 845 outlet;
#X obj 726 212 t f f f;
#X obj 680 282 moses -0.1;
#X obj 745 315 moses 0.1;
#X floatatom 575 721 5 0 0 0 - - -;
#X obj 111 76 s \$0-touch;
#X obj 210 510 spigot;
#X obj 287 479 r \$0-touch;
#X obj 264 51 inlet rotator;
#X obj 418 167 r \$0-set;
#X obj 353 436 t f f;
#X obj 420 453 > 0;
#X msg 338 153 set \$1;
#X obj 210 535 t f f f;
#X obj 591 303 r \$0-touch;
#X obj 378 303 t f f f;
#X obj 418 192 t f f;
#X obj 711 146 metro 20;
#X obj 711 119 r \$0-busy;
#X obj 577 632 pack f f 100;
#X msg 578 665 \$1 \, \$2 \$3;
#X obj 773 629 r \$0-inertia;
#X connect 0 0 50 0;
#X connect 1 0 2 0;
#X connect 2 0 10 0;
#X connect 3 0 4 0;
#X connect 4 0 9 0;
#X connect 5 0 1 0;
#X connect 6 0 5 0;
#X connect 6 1 3 0;
#X connect 6 2 7 0;
#X connect 7 0 8 0;
#X connect 8 0 9 1;
#X connect 9 0 11 0;
#X connect 10 0 51 0;
#X connect 11 0 15 0;
#X connect 11 1 14 0;
#X connect 12 0 13 0;
#X connect 13 0 12 1;
#X connect 13 0 10 1;
#X connect 14 0 12 0;
#X connect 15 0 12 0;
#X connect 16 0 28 1;
#X connect 17 0 37 0;
#X connect 18 0 47 0;
#X connect 19 0 27 0;
#X connect 20 0 22 0;
#X connect 21 0 20 1;
#X connect 22 0 17 1;
#X connect 22 1 21 0;
#X connect 23 0 24 0;
#X connect 24 0 17 0;
#X connect 24 1 19 0;
#X connect 25 0 39 1;
#X connect 25 0 41 1;
#X connect 25 0 49 0;
#X connect 26 0 27 0;
#X connect 26 0 45 0;
#X connect 26 0 60 0;
#X connect 27 0 26 1;
#X connect 28 0 26 0;
#X connect 29 0 20 0;
#X connect 32 0 33 0;
#X connect 33 0 55 0;
#X connect 34 0 32 0;
#X connect 35 0 34 1;
#X connect 35 0 13 0;
#X connect 36 0 46 0;
#X connect 37 0 64 0;
#X connect 39 0 28 0;
#X connect 40 0 42 0;
#X connect 41 0 64 0;
#X connect 42 0 41 0;
#X connect 42 1 64 1;
#X connect 43 0 40 0;
#X connect 46 0 18 1;
#X connect 46 1 18 0;
#X connect 46 2 19 1;
#X connect 47 1 48 0;
#X connect 48 0 29 0;
#X connect 51 0 58 0;
#X connect 52 0 51 1;
#X connect 53 0 6 0;
#X connect 54 0 61 0;
#X connect 55 0 44 0;
#X connect 55 1 56 0;
#X connect 56 0 57 0;
#X connect 57 0 4 0;
#X connect 58 0 45 0;
#X connect 58 2 36 1;
#X connect 59 0 23 0;
#X connect 59 0 16 0;
#X connect 60 0 34 0;
#X connect 60 1 35 0;
#X connect 61 0 60 0;
#X connect 61 1 27 0;
#X connect 62 0 36 0;
#X connect 62 0 39 0;
#X connect 63 0 62 0;
#X connect 64 0 65 0;
#X connect 65 0 25 0;
#X connect 66 0 64 2;
#X restore 701 284 pd motor_stuff;
#X obj 49 0 r \$0-index;
#X text 503 376 nb samples/tour @ 33.33 rpm @ 44100Hz, f 27;
#X obj 700 445 moses 0;
#X obj 746 497 moses 1;
#X obj 734 345 r \$0-nb_revolutions;
#X obj 701 420 * 1;
#X obj 734 395 /;
#X msg 734 370 1 \$1;
#X obj 808 409 r \$0-from;
#X obj 827 439 r \$0-to;
#X obj 697 472 t b;
#X obj 697 497 f;
#X obj 790 523 t b;
#X obj 790 548 f;
#X obj 634 627 s \$0-index;
#X obj 700 582 t f f;
#X obj 758 623 * 1;
#X obj 758 648 s \$0-set;
#X obj 785 596 r \$0-nb_revolutions;
#X obj 212 100 bng 15 250 50 0 \$0-in empty IN 2 8 0 9 -1 -1 -257985
;
#X obj 228 100 bng 15 250 50 0 \$0-out empty OUT 0 8 0 9 -1 -1 -261234
;
#X obj 58 294 r \$0-index;
#X obj 41 354 f;
#X obj 112 359 f;
#X obj 28 327 r \$0-in;
#X obj 119 331 r \$0-out;
#X obj 41 376 s \$0-from;
#X obj 112 381 s \$0-to;
#N canvas 0 50 844 484 dnd/target 0;
#X obj 350 32 r dnd-dropped;
#X obj 156 282 list append;
#X obj 314 111 t l b;
#X msg 336 149 1;
#X obj 154 218 spigot;
#X obj 210 75 r dnd-done;
#X msg 211 160 0;
#X obj 210 104 delay 10;
#X obj 157 312 list split 2;
#X obj 107 157 inlet;
#X text 434 315 <- avoid white space problems;
#X obj 349 69 route -drop -path -name -ext;
#N canvas 696 149 327 493 tosymbol 0;
#X text 65 454 symbol out with correct spaces;
#X text 81 12 string in;
#X obj 91 31 inlet;
#X obj 91 431 outlet;
#X obj 85 31 cnv 5 5 17 empty empty empty 20 12 0 14 -118750 -66577
0;
#X obj 85 431 cnv 5 5 17 empty empty empty 20 12 0 14 -102336 -66577
0;
#X obj 91 55 list;
#X obj 91 193 list store, f 13;
#X obj 91 102 until;
#X obj 91 128 f, f 7;
#X obj 153 128 + 1;
#X msg 91 171 get \$1 1;
#X obj 134 103 0;
#X obj 91 263 list fromsymbol;
#X obj 91 215 route symbol float;
#X obj 109 239 makefilename %s;
#X obj 91 150 t f f;
#X obj 91 380 list store, f 19;
#X obj 91 355 list trim;
#X obj 91 332 list prepend append;
#X obj 157 286 spigot;
#X msg 157 308 32;
#X obj 91 286 t l b, f 9;
#X obj 91 77 t b b a b, f 19;
#X obj 91 404 list tosymbol;
#X connect 2 0 6 0;
#X connect 6 0 23 0;
#X connect 7 0 14 0;
#X connect 7 1 8 1;
#X connect 7 1 17 0;
#X connect 8 0 9 0;
#X connect 9 0 10 0;
#X connect 9 0 16 0;
#X connect 10 0 9 1;
#X connect 11 0 7 0;
#X connect 12 0 9 1;
#X connect 13 0 22 0;
#X connect 14 0 13 0;
#X connect 14 1 15 0;
#X connect 15 0 13 0;
#X connect 16 0 11 0;
#X connect 16 1 20 1;
#X connect 17 0 24 0;
#X connect 18 0 17 0;
#X connect 19 0 18 0;
#X connect 20 0 21 0;
#X connect 21 0 19 0;
#X connect 22 0 19 0;
#X connect 22 1 20 0;
#X connect 23 0 8 0;
#X connect 23 1 12 0;
#X connect 23 2 7 1;
#X connect 23 3 17 1;
#X connect 24 0 3 0;
#X restore 270 312 pd tosymbol;
#N canvas 696 119 327 493 tosymbol 0;
#X text 65 454 symbol out with correct spaces;
#X text 81 12 string in;
#X obj 91 31 inlet;
#X obj 91 431 outlet;
#X obj 85 31 cnv 5 5 17 empty empty empty 20 12 0 14 -118750 -66577
0;
#X obj 85 431 cnv 5 5 17 empty empty empty 20 12 0 14 -102336 -66577
0;
#X obj 91 55 list;
#X obj 91 193 list store, f 13;
#X obj 91 102 until;
#X obj 91 128 f, f 7;
#X obj 153 128 + 1;
#X msg 91 171 get \$1 1;
#X obj 134 103 0;
#X obj 91 263 list fromsymbol;
#X obj 91 215 route symbol float;
#X obj 109 239 makefilename %s;
#X obj 91 150 t f f;
#X obj 91 380 list store, f 19;
#X obj 91 355 list trim;
#X obj 91 332 list prepend append;
#X obj 157 286 spigot;
#X msg 157 308 32;
#X obj 91 286 t l b, f 9;
#X obj 91 77 t b b a b, f 19;
#X obj 91 404 list tosymbol;
#X connect 2 0 6 0;
#X connect 6 0 23 0;
#X connect 7 0 14 0;
#X connect 7 1 8 1;
#X connect 7 1 17 0;
#X connect 8 0 9 0;
#X connect 9 0 10 0;
#X connect 9 0 16 0;
#X connect 10 0 9 1;
#X connect 11 0 7 0;
#X connect 12 0 9 1;
#X connect 13 0 22 0;
#X connect 14 0 13 0;
#X connect 14 1 15 0;
#X connect 15 0 13 0;
#X connect 16 0 11 0;
#X connect 16 1 20 1;
#X connect 17 0 24 0;
#X connect 18 0 17 0;
#X connect 19 0 18 0;
#X connect 20 0 21 0;
#X connect 21 0 19 0;
#X connect 22 0 19 0;
#X connect 22 1 20 0;
#X connect 23 0 8 0;
#X connect 23 1 12 0;
#X connect 23 2 7 1;
#X connect 23 3 17 1;
#X connect 24 0 3 0;
#X restore 350 314 pd tosymbol;
#X obj 191 343 outlet;
#X obj 274 289 list append;
#X obj 356 288 list append;
#X obj 441 288 list append;
#X obj 155 244 t b b b b;
#X obj 271 343 outlet;
#X obj 366 343 outlet;
#X obj 443 348 outlet;
#X obj 109 275 t b b;
#X obj 77 312 s dnd-done;
#X connect 0 0 11 0;
#X connect 1 0 8 0;
#X connect 2 0 1 1;
#X connect 2 1 3 0;
#X connect 3 0 4 1;
#X connect 4 0 18 0;
#X connect 5 0 7 0;
#X connect 6 0 4 1;
#X connect 7 0 6 0;
#X connect 8 1 14 0;
#X connect 9 0 4 0;
#X connect 11 0 2 0;
#X connect 11 1 15 1;
#X connect 11 2 16 1;
#X connect 11 3 17 1;
#X connect 12 0 19 0;
#X connect 13 0 20 0;
#X connect 15 0 12 0;
#X connect 16 0 13 0;
#X connect 17 0 21 0;
#X connect 18 0 22 0;
#X connect 18 1 15 0;
#X connect 18 2 16 0;
#X connect 18 3 17 0;
#X connect 22 0 23 0;
#X connect 22 1 1 0;
#X restore 511 279 pd dnd/target;
#X obj 112 527 r \$0-index;
#N canvas 0 57 1920 1023 scratchstuff 0;
#X obj 127 11 inlet;
#X obj 44 962 outlet~;
#X obj 179 958 outlet~;
#X obj 61 693 rpole~ 1;
#X obj 190 132 -;
#X obj 98 351 spigot;
#X obj 190 155 t f f f;
#X obj 251 285 select 1;
#X obj 164 108 t f f f f f;
#X obj 225 385 f;
#X msg 175 658 set \$1;
#X obj 50 934 tabread4~ \$0-l;
#X obj 175 936 tabread4~ \$0-r;
#X obj 208 234 ||;
#X obj 135 285 == 0;
#X msg 120 416 \$1;
#X obj 61 595 -~;
#X obj 61 479 rzero~ 1;
#X obj 559 27 inlet;
#X obj 209 196 < -10;
#X obj 271 194 > 10;
#X obj 59 875 *~ 1000;
#X obj 408 99 r \$0-from;
#X obj 386 200 -;
#X obj 365 69 r \$0-to;
#X obj 384 250 *;
#X obj 408 124 t b f;
#X obj 373 319 /;
#X msg 376 295 1 \$1;
#X obj 335 407 + 1;
#X obj 361 373 * 934;
#X obj 206 35 * 80181;
#X obj 61 642 lop~ 8;
#X obj 62 665 lop~ 8;
#X obj 61 618 lop~ 3;
#X obj 541 122 t b f;
#X text 406 338 facteur de conmpensation inversement proportionnel
à la taille du saut entre debut et fin du sample;
#X obj 265 335 bng 15 250 50 0 empty empty empty 17 7 0 10 -262144
-1 -1;
#X obj 165 75 / 1000;
#X obj 61 452 vline~;
#X msg 98 376 \$1 20;
#X obj 84 569 *~;
#X obj 84 538 *~ 1;
#X obj 102 511 expr~ ($v1<-10)+($v1>10);
#X text 439 371 very empirical;
#X obj 339 570 snapshot~;
#X obj 339 641 change;
#X obj 339 666 select 1;
#X obj 379 691 f;
#X msg 293 932 set \$1;
#X text 523 661 to resolve single precision problem of rpole~;
#X obj 181 415 t f f f;
#X obj 235 561 / 400;
#X obj 236 586 int;
#X obj 236 609 * 400;
#X obj 203 538 t f f;
#X obj 203 632 -;
#X obj 83 791 +;
#X obj 118 791 f;
#X obj 339 619 > 400;
#X obj 379 716 - 400;
#X msg 171 739 400;
#X obj 339 595 t f f f f;
#X obj 422 623 < -400;
#X obj 422 645 change;
#X obj 422 667 select 1;
#X obj 430 693 f;
#X obj 430 718 + 400;
#X msg 225 746 -400;
#X obj 358 495 r \$0-busy;
#X obj 358 525 metro 200;
#X obj 162 877 * 1000;
#X text 222 876 onset value;
#X connect 0 0 31 0;
#X connect 3 0 45 0;
#X connect 3 0 21 0;
#X connect 4 0 6 0;
#X connect 5 0 40 0;
#X connect 6 1 19 0;
#X connect 6 2 20 0;
#X connect 7 0 9 0;
#X connect 7 0 37 0;
#X connect 8 0 5 0;
#X connect 8 1 4 1;
#X connect 8 2 4 0;
#X connect 8 3 9 1;
#X connect 9 0 51 0;
#X connect 10 0 3 0;
#X connect 11 0 1 0;
#X connect 12 0 2 0;
#X connect 13 0 14 0;
#X connect 13 0 7 0;
#X connect 14 0 5 1;
#X connect 15 0 39 0;
#X connect 16 0 34 0;
#X connect 17 0 16 0;
#X connect 17 0 43 0;
#X connect 17 0 42 0;
#X connect 18 0 31 1;
#X connect 18 0 35 0;
#X connect 19 0 13 0;
#X connect 20 0 13 1;
#X connect 21 0 11 0;
#X connect 21 0 12 0;
#X connect 22 0 26 0;
#X connect 23 0 25 0;
#X connect 24 0 23 0;
#X connect 25 0 28 0;
#X connect 26 0 23 0;
#X connect 26 1 23 1;
#X connect 27 0 30 0;
#X connect 28 0 27 0;
#X connect 29 0 42 1;
#X connect 30 0 29 0;
#X connect 31 0 38 0;
#X connect 32 0 33 0;
#X connect 33 0 3 0;
#X connect 34 0 32 0;
#X connect 35 0 25 0;
#X connect 35 1 25 1;
#X connect 38 0 8 0;
#X connect 39 0 17 0;
#X connect 40 0 39 0;
#X connect 41 0 16 1;
#X connect 42 0 41 0;
#X connect 43 0 41 1;
#X connect 45 0 62 0;
#X connect 46 0 47 0;
#X connect 47 0 48 0;
#X connect 47 0 61 0;
#X connect 48 0 60 0;
#X connect 49 0 3 0;
#X connect 51 0 15 0;
#X connect 51 1 55 0;
#X connect 52 0 53 0;
#X connect 53 0 54 0;
#X connect 54 0 56 1;
#X connect 54 0 58 0;
#X connect 55 0 56 0;
#X connect 55 1 52 0;
#X connect 56 0 10 0;
#X connect 57 0 58 0;
#X connect 58 0 57 1;
#X connect 58 0 71 0;
#X connect 59 0 46 0;
#X connect 60 0 49 0;
#X connect 61 0 57 0;
#X connect 62 0 59 0;
#X connect 62 1 48 1;
#X connect 62 2 63 0;
#X connect 63 0 64 0;
#X connect 64 0 65 0;
#X connect 65 0 66 0;
#X connect 65 0 68 0;
#X connect 66 0 67 0;
#X connect 67 0 49 0;
#X connect 68 0 57 0;
#X connect 69 0 70 0;
#X connect 70 0 45 0;
#X connect 71 0 11 1;
#X connect 71 0 12 1;
#X restore 151 570 pd scratchstuff;
#X msg 738 19 to 1 \, from 0 \, inertia 100;
#X obj 518 121 s \$0-busy;
#X msg 532 76 1;
#X obj 675 168 u_dispatch \$0 inertia;
#X msg 535 53 0;
#X obj 706 696 r \$0-seek;
#X obj 256 771 hip~ 1;
#X obj 351 788 hip~ 1;
#X connect 0 0 2 0;
#X connect 1 0 3 0;
#X connect 4 0 5 0;
#X connect 4 0 19 0;
#X connect 6 0 37 0;
#X connect 16 0 25 0;
#X connect 17 0 6 0;
#X connect 17 0 70 1;
#X connect 18 0 17 0;
#X connect 19 0 20 0;
#X connect 19 1 39 1;
#X connect 19 2 39 2;
#X connect 19 3 16 0;
#X connect 20 0 68 0;
#X connect 20 1 39 0;
#X connect 21 0 5 0;
#X connect 25 0 27 0;
#X connect 27 0 28 0;
#X connect 28 0 29 0;
#X connect 29 0 74 0;
#X connect 30 0 77 0;
#X connect 31 0 32 0;
#X connect 32 0 33 0;
#X connect 33 0 30 1;
#X connect 33 0 34 1;
#X connect 34 0 78 0;
#X connect 36 0 71 0;
#X connect 38 0 24 0;
#X connect 39 0 45 0;
#X connect 39 1 21 0;
#X connect 40 0 38 0;
#X connect 42 0 50 0;
#X connect 42 1 43 0;
#X connect 43 0 54 0;
#X connect 43 1 52 0;
#X connect 44 0 47 0;
#X connect 45 0 42 0;
#X connect 46 0 45 1;
#X connect 47 0 46 0;
#X connect 48 0 42 1;
#X connect 48 0 53 1;
#X connect 49 0 43 1;
#X connect 49 0 51 1;
#X connect 50 0 51 0;
#X connect 51 0 55 0;
#X connect 52 0 53 0;
#X connect 53 0 55 0;
#X connect 55 0 54 0;
#X connect 55 1 56 0;
#X connect 56 0 57 0;
#X connect 58 0 56 1;
#X connect 61 0 62 1;
#X connect 61 0 63 1;
#X connect 62 0 66 0;
#X connect 63 0 67 0;
#X connect 64 0 62 0;
#X connect 65 0 63 0;
#X connect 68 0 17 1;
#X connect 69 0 70 0;
#X connect 70 0 30 0;
#X connect 70 1 34 0;
#X connect 71 0 16 0;
#X connect 73 0 72 0;
#X connect 75 0 72 0;
#X connect 76 0 55 0;
#X connect 77 0 2 0;
#X connect 78 0 3 0;
#X coords 0 -1 1 1 190 70 1 100 100;
