#N canvas 0 57 1920 1023 10;
#X declare -path pdr/core;
#X declare -path pdr/core/stuff;
#X declare -path pdr/core/rj;
#X text 90 415 TODO;
#X text 25 450 sauvegarde;
#X text 27 473 multiple patterns;
#X msg 451 201 saveTo \$1;
#X text 548 6 au niveau d'une scène \, sauvegarde des mappings midi
\, des paramètres globaux (main) \, des parametres de slot \, des
modules presets;
#X text 548 49 Au niveau des modules presets \, sauvegarde des floats
\, symbols \, lists;
#X obj 684 538 s;
#N canvas 161 70 585 504 dump 0;
#X obj 63 34 inlet;
#X obj 63 56 select 0 1 2 3 4 5 6 7;
#N canvas 0 50 450 300 dump0 0;
#X obj 79 48 inlet;
#X obj 81 134 list append;
#X obj 251 92 r \$0-dump.preset0;
#X obj 81 156 outlet;
#X connect 0 0 1 0;
#X connect 1 0 3 0;
#X connect 2 0 1 1;
#X restore 72 138 pd dump0;
#N canvas 0 50 450 300 dump1 0;
#X obj 79 48 inlet;
#X obj 78 212 outlet;
#X obj 176 121 list append;
#X obj 251 92 r \$0-dump.preset1;
#X connect 0 0 2 0;
#X connect 2 0 1 0;
#X connect 3 0 2 1;
#X restore 85 160 pd dump1;
#N canvas 0 50 450 300 dump2 0;
#X obj 79 48 inlet;
#X obj 78 212 outlet;
#X obj 176 121 list append;
#X obj 251 92 r \$0-dump.preset2;
#X connect 0 0 2 0;
#X connect 2 0 1 0;
#X connect 3 0 2 1;
#X restore 92 180 pd dump2;
#N canvas 0 50 450 300 dump3 0;
#X obj 79 48 inlet;
#X obj 78 212 outlet;
#X obj 76 115 list append;
#X obj 165 81 r \$0-dump.preset3;
#X connect 0 0 2 0;
#X connect 2 0 1 0;
#X connect 3 0 2 1;
#X restore 108 204 pd dump3;
#N canvas 0 50 450 300 dump4 0;
#X obj 79 48 inlet;
#X obj 78 212 outlet;
#X obj 176 121 list append;
#X obj 251 92 r \$0-dump.preset4;
#X connect 0 0 2 0;
#X connect 2 0 1 0;
#X connect 3 0 2 1;
#X restore 202 138 pd dump4;
#N canvas 0 50 450 300 dump5 0;
#X obj 79 48 inlet;
#X obj 78 212 outlet;
#X obj 176 121 list append;
#X obj 251 92 r \$0-dump.preset5;
#X connect 0 0 2 0;
#X connect 2 0 1 0;
#X connect 3 0 2 1;
#X restore 215 160 pd dump5;
#N canvas 0 50 450 300 dump6 0;
#X obj 79 48 inlet;
#X obj 78 212 outlet;
#X obj 176 121 list append;
#X obj 251 92 r \$0-dump.preset6;
#X connect 0 0 2 0;
#X connect 2 0 1 0;
#X connect 3 0 2 1;
#X restore 225 182 pd dump6;
#N canvas 0 50 450 300 dump7 0;
#X obj 79 48 inlet;
#X obj 78 212 outlet;
#X obj 176 121 list append;
#X obj 251 92 r \$0-dump.preset7;
#X connect 0 0 2 0;
#X connect 2 0 1 0;
#X connect 3 0 2 1;
#X restore 238 204 pd dump7;
#X obj 76 240 t b a;
#N canvas 0 50 640 532 parse/drip 0;
#X obj 81 27 inlet flush;
#X obj 254 25 inlet append;
#X obj 84 403 outlet;
#X obj 80 74 list append;
#X obj 79 205 route @;
#X obj 78 139 list split 1;
#X obj 157 264 list prepend;
#X obj 80 170 list trim;
#X obj 236 308 list;
#X obj 87 343 list append;
#X obj 75 300 t b b b;
#X obj 143 115 list append;
#X obj 128 236 t b a;
#X obj 158 170 t b b;
#X obj 88 372 list trim;
#X obj 80 47 t b;
#X text 275 94 next;
#X obj 354 78 delay 0;
#X connect 0 0 15 0;
#X connect 1 0 3 1;
#X connect 3 0 5 0;
#X connect 4 0 10 0;
#X connect 4 1 12 0;
#X connect 5 0 7 0;
#X connect 5 1 11 1;
#X connect 5 2 13 0;
#X connect 6 0 8 0;
#X connect 6 0 9 1;
#X connect 7 0 4 0;
#X connect 8 0 6 1;
#X connect 9 0 14 0;
#X connect 10 0 17 0;
#X connect 10 1 6 1;
#X connect 10 1 9 1;
#X connect 10 2 9 0;
#X connect 11 0 5 0;
#X connect 12 0 17 0;
#X connect 12 1 6 0;
#X connect 13 0 6 1;
#X connect 13 1 9 0;
#X connect 14 0 2 0;
#X connect 15 0 3 0;
#X connect 17 0 11 0;
#X restore 59 293 pd parse/drip;
#X obj 57 327 glocal/glocal.send RJ_SCENE_LOAD;
#X connect 0 0 1 0;
#X connect 1 0 2 0;
#X connect 1 1 3 0;
#X connect 1 2 4 0;
#X connect 1 3 5 0;
#X connect 1 4 6 0;
#X connect 1 5 7 0;
#X connect 1 6 8 0;
#X connect 1 7 9 0;
#X connect 2 0 10 0;
#X connect 3 0 10 0;
#X connect 4 0 10 0;
#X connect 5 0 10 0;
#X connect 6 0 10 0;
#X connect 7 0 10 0;
#X connect 8 0 10 0;
#X connect 9 0 10 0;
#X connect 10 0 11 0;
#X connect 10 1 11 1;
#X connect 11 0 12 0;
#X restore 263 465 pd dump;
#X obj 783 222 u_dispatch \$0 dump.preset0;
#X obj 783 242 u_dispatch \$0 dump.preset1;
#X obj 783 264 u_dispatch \$0 dump.preset2;
#X obj 783 286 u_dispatch \$0 dump.preset3;
#X obj 783 306 u_dispatch \$0 dump.preset4;
#X obj 783 326 u_dispatch \$0 dump.preset5;
#X obj 783 348 u_dispatch \$0 dump.preset6;
#X obj 783 370 u_dispatch \$0 dump.preset7;
#X obj 714 467 list prepend \$0-dump.preset;
#X msg 712 499 symbol \$1\$2;
#X obj 451 182 symbol \$0-preset_manager;
#X obj 416 297 r \$0-preset_manager;
#X obj 101 101 cnv 15 188 68 empty \$0-background PdRacks.presets-0
0 7 0 14 -262144 -1 0;
#X obj 331 108 bng 15 250 50 0 empty empty empty 17 7 0 10 -262144
-1 -1;
#X obj 246 115 bng 30 250 50 0 MORPH.STOP empty STOP 5 13 0 10 -262144
-1 -1;
#X obj 107 155 hradio 15 1 0 8 empty empty 1_2_3_4_5_6_7_8 0 8 0 13
-204786 -1 -260097 2;
#X obj 109 115 hradio 15 1 0 8 empty empty 1_2_3_4_5_6_7_8 0 8 0 13
-261234 -1 -84549 1;
#X text 249 129 MORPH;
#X text 235 154 <- load;
#X text 235 142 <- save;
#X obj 785 176 module_loader PdRacks.presets \$0 \$1;
#X obj 11 350 inlet~;
#X obj 71 350 inlet~;
#X obj 71 372 outlet~;
#X obj 11 372 outlet~;
#X obj 147 361 inlet data;
#X obj 147 383 outlet data;
#X obj 238 100 bng 15 250 50 0 empty empty clear 17 7 0 10 -262144
-1 -1;
#X msg 309 67 dump.preset\$1 bang;
#X msg 309 45 0 \, 1 \, 2 \, 3 \, 4 \, 5 \, 6 \, 7;
#X obj 448 140 bng 15 250 50 0 empty empty empty 17 7 0 10 -262144
-1 -1;
#N canvas 0 50 450 300 filter_only_floats 0;
#X obj 250 29 inlet;
#X obj 215 254 outlet;
#X obj 255 92 list split 2;
#X obj 295 119 route float;
#X obj 255 65 t l b;
#X obj 222 208 spigot;
#X msg 265 127 0;
#X msg 297 176 1;
#X obj 296 147 t b f b;
#X obj 222 230 list append;
#X connect 0 0 4 0;
#X connect 2 0 5 0;
#X connect 2 1 3 0;
#X connect 3 0 8 0;
#X connect 4 0 2 0;
#X connect 4 1 6 0;
#X connect 5 0 9 0;
#X connect 6 0 5 1;
#X connect 7 0 5 1;
#X connect 8 0 7 0;
#X connect 8 1 9 1;
#X connect 9 0 1 0;
#X restore 48 537 pd filter_only_floats;
#X obj 391 405 t b a;
#X obj 425 466 list prepend add2;
#X obj 427 507 t a b;
#X obj 425 488 list trim;
#X msg 469 533 add2 @;
#X obj 540 93 t b f b;
#X msg 616 124 set;
#X obj 391 427 delay 50;
#N canvas 0 50 676 415 filter_PdRacks.presets&sublists&slot 0;
#X obj 175 29 inlet;
#X obj 135 372 outlet;
#X obj 166 100 list split 1;
#X obj 53 166 select PdRacks.presets;
#X obj 165 209 list append;
#X obj 136 296 spigot;
#X obj 311 131 list split 1;
#X obj 177 63 t a b;
#X msg 266 213 0;
#X obj 345 207 t b a;
#X obj 361 260 list append;
#X obj 136 318 list append;
#X obj 288 171 select slot;
#X obj 54 140 iemlib/splitfilename -;
#X msg 104 234 symbol \$1-\$2;
#X obj 430 176 list split 1;
#X msg 497 228 1;
#X obj 296 249 f;
#X obj 430 198 select <sublist> <subset>;
#X connect 0 0 7 0;
#X connect 2 0 13 0;
#X connect 2 1 6 0;
#X connect 3 1 4 0;
#X connect 4 0 14 0;
#X connect 5 0 11 0;
#X connect 6 0 12 0;
#X connect 6 1 10 1;
#X connect 6 1 15 0;
#X connect 7 0 2 0;
#X connect 7 1 8 0;
#X connect 8 0 5 1;
#X connect 8 0 17 1;
#X connect 9 0 17 0;
#X connect 9 1 10 0;
#X connect 10 0 11 1;
#X connect 11 0 1 0;
#X connect 12 1 9 0;
#X connect 13 0 3 0;
#X connect 13 1 4 1;
#X connect 14 0 5 0;
#X connect 15 0 18 0;
#X connect 16 0 17 1;
#X connect 17 0 5 1;
#X connect 18 2 16 0;
#X restore 395 370 pd filter_PdRacks.presets&sublists&slot (needs_iemlib)
;
#X obj 883 605 r \$0-morph.time;
#X obj 888 631 - 1;
#X obj 1030 690 s \$0-morph.time-rcv;
#X obj 915 664 int;
#X obj 1034 722 s MORPH.TIME;
#X msg 1044 657 label MORPH.TIME=\$1ms;
#X obj 104 131 hsl 128 24 1 5001 1 0 \$0-morph.time \$0-morph.time-rcv
MORPH.TIME=340ms 2 8 0 10 -225271 -1 -1 0 1;
#X obj 783 399 u_parameter \$0 morph.time;
#X obj 581 709 midi-colors \$0 morph.time \$0-morph.time-rcv 0 0 no_morphing
36;
#X obj 451 220 glocal/glocal.send RJ_SCENE_SAVE;
#X obj 908 48 declare -path pdr/core;
#X obj 908 68 declare -path pdr/core/stuff;
#X obj 908 88 declare -path pdr/core/rj;
#X msg 429 565;
#X obj 1114 122 namecanvas \$0-this;
#X obj 1112 99 triggered_loadbang \$0-this;
#X text 1107 49 manually trigger loadbang if the instance of abstraction
is created dynamically, f 29;
#X connect 3 0 58 0;
#X connect 8 0 9 0;
#X connect 9 0 10 0;
#X connect 10 0 11 0;
#X connect 11 0 12 0;
#X connect 12 0 13 0;
#X connect 13 0 14 0;
#X connect 14 0 15 0;
#X connect 15 0 56 0;
#X connect 16 0 17 0;
#X connect 17 0 6 1;
#X connect 18 0 3 0;
#X connect 19 0 48 0;
#X connect 21 0 45 0;
#X connect 23 0 7 0;
#X connect 24 0 45 0;
#X connect 28 0 8 0;
#X connect 29 0 32 0;
#X connect 30 0 31 0;
#X connect 33 0 34 0;
#X connect 33 0 28 0;
#X connect 35 0 37 0;
#X connect 36 0 8 0;
#X connect 37 0 36 0;
#X connect 38 0 18 0;
#X connect 40 0 47 0;
#X connect 40 1 41 0;
#X connect 41 0 43 0;
#X connect 42 0 62 0;
#X connect 42 1 44 0;
#X connect 43 0 42 0;
#X connect 44 0 62 0;
#X connect 45 0 18 0;
#X connect 45 1 16 0;
#X connect 45 2 46 0;
#X connect 46 0 62 0;
#X connect 47 0 62 0;
#X connect 48 0 40 0;
#X connect 49 0 50 0;
#X connect 50 0 52 0;
#X connect 52 0 54 0;
#X connect 52 0 53 0;
#X connect 54 0 51 0;
#X connect 62 0 6 0;
#X coords 0 -1 1 1 190 70 1 100 100;
