#N canvas 855 96 918 498 10;
#X declare -path ./fid_abs_0.3.6;
#X declare -stdpath extra/zexy;
#X declare -stdlib extra/cvlib/cvlib93;
#X obj 183 68 gemhead;
#X obj 65 99 gemwin;
#X msg 85 70 destroy;
#X obj 193 235 pix_texture;
#X obj 191 271 rectangle 5.333 4;
#X obj 191 139 pix_gray;
#X msg 41 43 dimen 640 480 \, create \, 1;
#X obj 187 95 pix_openni 0 1 0;
#X obj 311 72 pix_crop, f 11;
#X obj 328 10 expr 640 \; 480-$f1 \; 0 \; $f1/2;
#X obj 453 36 hsl 128 15 0 400 0 1 empty empty empty -2 -8 0 10 -262144
-1 -1 1800 1;
#X obj 450 56 / 16;
#X obj 462 111 int;
#X obj 463 137 * 16;
#X obj 183 217 pix_fiducialtrack legacy.trees;
#X obj 410 228 fid_tracker 20 200;
#X obj 533 164 declare -path ./fid_abs_0.3.6;
#X obj 534 126 declare -stdpath extra/zexy;
#X obj 597 91 declare -stdlib extra/cvlib/cvlib93;
#X obj 182 177 cvAthreshold;
#X obj 463 326 hsl 128 15 0 100 0 1 empty empty empty -2 -8 0 10 -262144
-1 -1 5400 1;
#X obj 472 401 int;
#X obj 460 346 / 2;
#X obj 473 427 * 2;
#X obj 413 476 + 1;
#N canvas 307 50 1047 576 dispatching 0;
#X obj 61 43 inlet;
#X obj 60 226 route addObject removeObject updateObject;
#X obj 64 365 noteout;
#X obj 259 106 list split 1;
#X obj 229 143 list prepend;
#X obj 236 168 list append;
#X obj 222 67 list split 2;
#X msg 163 254 \$2;
#X msg 55 248 \$2;
#X obj 20 322 makenote 64 300;
#N canvas 0 50 689 392 mapping 0;
#X obj 75 27 inlet;
#X obj 379 266 outlet;
#X obj 105 82 route 1 2 3;
#X obj 177 111 route 4 5;
#X obj 241 143 route 6 7 8;
#X obj 324 174 route 10 11 22 23;
#X obj 519 183 route 24 25 26 27 28 29;
#X msg 110 158 40;
#X msg 165 210 41;
#X msg 276 220 42;
#X msg 341 214 43;
#X msg 526 210 44;
#X obj 40 257 outlet;
#X connect 0 0 2 0;
#X connect 2 0 7 0;
#X connect 2 1 7 0;
#X connect 2 2 7 0;
#X connect 2 3 3 0;
#X connect 3 0 8 0;
#X connect 3 1 8 0;
#X connect 3 2 4 0;
#X connect 4 0 9 0;
#X connect 4 1 9 0;
#X connect 4 2 9 0;
#X connect 4 3 5 0;
#X connect 5 0 10 0;
#X connect 5 1 10 0;
#X connect 5 2 10 0;
#X connect 5 3 10 0;
#X connect 5 4 6 0;
#X connect 6 0 11 0;
#X connect 6 1 11 0;
#X connect 6 2 11 0;
#X connect 6 3 11 0;
#X connect 6 4 11 0;
#X connect 6 5 11 0;
#X connect 6 6 1 0;
#X connect 7 0 12 0;
#X connect 8 0 12 0;
#X connect 9 0 12 0;
#X connect 10 0 12 0;
#X connect 11 0 12 0;
#X restore 212 279 pd mapping;
#X obj 19 280 route 40 41 42 43 44;
#X obj 166 317 pipe f 200;
#X obj 337 283 list split 1;
#X obj 345 319 list split 1;
#N canvas 0 50 689 392 mapping 0;
#X obj 75 27 inlet;
#X obj 379 266 outlet;
#X obj 105 82 route 1 2 3;
#X obj 177 111 route 4 5;
#X obj 241 143 route 6 7 8;
#X obj 324 174 route 10 11 22 23;
#X obj 519 183 route 24 25 26 27 28 29;
#X msg 110 158 40;
#X msg 165 210 41;
#X msg 276 220 42;
#X msg 341 214 43;
#X msg 526 210 44;
#X obj 40 257 outlet;
#X connect 0 0 2 0;
#X connect 2 0 7 0;
#X connect 2 1 7 0;
#X connect 2 2 7 0;
#X connect 2 3 3 0;
#X connect 3 0 8 0;
#X connect 3 1 8 0;
#X connect 3 2 4 0;
#X connect 4 0 9 0;
#X connect 4 1 9 0;
#X connect 4 2 9 0;
#X connect 4 3 5 0;
#X connect 5 0 10 0;
#X connect 5 1 10 0;
#X connect 5 2 10 0;
#X connect 5 3 10 0;
#X connect 5 4 6 0;
#X connect 6 0 11 0;
#X connect 6 1 11 0;
#X connect 6 2 11 0;
#X connect 6 3 11 0;
#X connect 6 4 11 0;
#X connect 6 5 11 0;
#X connect 6 6 1 0;
#X connect 7 0 12 0;
#X connect 8 0 12 0;
#X connect 9 0 12 0;
#X connect 10 0 12 0;
#X connect 11 0 12 0;
#X restore 312 359 pd mapping;
#X text 537 76 40;
#X text 603 72 50;
#X text 671 70 60;
#X obj 320 382 list append;
#X obj 323 411 route 40 41 42 43 44;
#X obj 260 455 ctl_output 40 50 60;
#X obj 410 455 ctl_output 41 51 61;
#X obj 560 455 ctl_output 42 52 62;
#X obj 700 455 ctl_output 43 53 63;
#X obj 850 455 ctl_output 44 54 64;
#X connect 0 0 1 0;
#X connect 1 0 8 0;
#X connect 1 1 7 0;
#X connect 1 2 13 0;
#X connect 3 0 4 1;
#X connect 3 1 5 1;
#X connect 4 0 5 0;
#X connect 6 0 4 0;
#X connect 6 1 3 0;
#X connect 7 0 10 0;
#X connect 8 0 11 0;
#X connect 9 0 2 0;
#X connect 9 1 2 1;
#X connect 10 0 9 0;
#X connect 11 5 12 0;
#X connect 12 0 9 0;
#X connect 13 1 14 0;
#X connect 14 0 15 0;
#X connect 14 1 19 1;
#X connect 15 0 19 0;
#X connect 19 0 20 0;
#X connect 20 0 21 0;
#X connect 20 1 22 0;
#X connect 20 2 23 0;
#X connect 20 3 24 0;
#X connect 20 4 25 0;
#X restore 654 263 pd dispatching;
#X obj 84 167 cvGaussian;
#X obj 64 220 loadbang;
#X msg 104 132 1;
#X msg 291 148 video_mode 320 240 30;
#X obj 125 345 fid_gui xylo;
#X obj 124 370 color 1 0 0;
#X obj 123 397 circle 0.1;
#X obj 110 285 gemhead 51;
#X obj 322 279 fid_preprocess gem=4/3;
#X obj 127 315 rotateXYZ 180 0 0;
#X msg 291 118 video_mode 640 480 30;
#X obj 43 249 pix_info, f 15;
#X floatatom 68 298 5 0 0 0 - - -;
#X msg 259 37 bang;
#X msg 291 171 video_mode 1280 1024 30;
#X obj 644 311 fid_class xylo 1 64;
#X connect 0 0 7 0;
#X connect 2 0 1 0;
#X connect 3 0 4 0;
#X connect 5 0 19 0;
#X connect 6 0 1 0;
#X connect 7 0 5 0;
#X connect 7 0 37 0;
#X connect 8 0 5 0;
#X connect 9 0 8 1;
#X connect 9 1 8 2;
#X connect 9 2 8 3;
#X connect 9 3 8 4;
#X connect 10 0 11 0;
#X connect 11 0 12 0;
#X connect 12 0 13 0;
#X connect 13 0 9 0;
#X connect 14 0 3 0;
#X connect 14 1 15 0;
#X connect 15 0 25 0;
#X connect 15 0 34 0;
#X connect 19 0 14 0;
#X connect 20 0 22 0;
#X connect 21 0 23 0;
#X connect 22 0 21 0;
#X connect 23 0 24 0;
#X connect 24 0 19 2;
#X connect 26 0 19 0;
#X connect 27 0 28 0;
#X connect 28 0 26 1;
#X connect 28 0 26 2;
#X connect 29 0 7 0;
#X connect 30 0 31 0;
#X connect 31 0 32 0;
#X connect 33 0 35 0;
#X connect 34 0 41 0;
#X connect 35 0 30 0;
#X connect 36 0 7 0;
#X connect 37 1 38 0;
#X connect 39 0 7 0;
#X connect 40 0 7 0;
