#N canvas 148 84 602 324 10;
#N canvas 477 63 608 371 netsend/netreceive 0;
#X obj 51 154 spigot;
#X obj 187 -112 netreceive -u 3001;
#X obj 136 149 netsend -u;
#X msg 283 112 connect localhost 3000;
#X obj 403 13 loadbang;
#X obj 55 214 tgl 15 0 empty empty empty 17 7 0 10 -262144 -1 -1 1
1;
#X msg 318 164 disconnect;
#X obj 199 -86 list split 1;
#X obj 227 -24 list append;
#X obj 222 -51 t b s;
#X obj 251 52 send;
#X obj 246 11 list trim;
#X obj 55 0 r TO_AUDIO_SESSION;
#X obj 91 62 list trim;
#X msg 134 110 send ducon;
#X obj 389 -19 print netreceive_3001;
#X obj 204 188 == 0;
#X obj 506 76 bng 15 250 50 0 empty empty empty 17 7 0 10 -262144 -1
-1;
#X obj 356 57 metro 5000;
#X obj 489 134 == 0;
#X obj 356 82 spigot 1;
#X connect 0 0 2 0;
#X connect 1 0 7 0;
#X connect 2 0 0 1;
#X connect 2 0 5 0;
#X connect 2 0 16 0;
#X connect 2 0 19 0;
#X connect 3 0 2 0;
#X connect 4 0 18 0;
#X connect 6 0 2 0;
#X connect 7 0 9 0;
#X connect 7 1 8 1;
#X connect 8 0 11 0;
#X connect 9 0 8 0;
#X connect 9 1 10 1;
#X connect 11 0 10 0;
#X connect 12 0 13 0;
#X connect 13 0 0 0;
#X connect 14 0 2 0;
#X connect 16 0 18 0;
#X connect 17 0 18 0;
#X connect 18 0 20 0;
#X connect 19 0 20 1;
#X connect 20 0 3 0;
#X restore 51 57 pd netsend/netreceive;
#X obj 51 88 ofelia_stuff;
#X text 232 27 Pour connecter via network à une session audio de PdRacks
contenant un module data_cyclogroove;
