#N canvas 544 131 1029 486 12;
#X declare -lib ofelia;
#X obj 99 99 cnv 15 188 68 empty \$0-background data_ofelia_stuff 0
7 0 14 -262144 -1 0;
#N canvas 199 341 1197 612 stuff 0;
#X obj 66 13 declare -lib ofelia;
#X obj 742 91 ofWindow;
#N canvas 515 50 600 691 related_getter_objects 0;
#X obj 30 32 bng 15 250 50 0 empty empty empty 17 7 0 10 -262144 -1
-1;
#X msg 30 248 0 0;
#X msg 65 248 0 49;
#X msg 107 248 0 50;
#X floatatom 30 295 5 0 0 0 - - -, f 5;
#X obj 30 319 bng 15 250 50 0 empty empty empty 17 7 0 10 -262144 -1
-1;
#X obj 30 365 print;
#X obj 30 392 bng 15 250 50 0 empty empty empty 17 7 0 10 -262144 -1
-1;
#X obj 30 438 print;
#X obj 30 465 bng 15 250 50 0 empty empty empty 17 7 0 10 -262144 -1
-1;
#X floatatom 30 78 5 0 0 0 - - -, f 5;
#X text 72 78 0: not exists \, 1: exists.;
#X text 76 294 0: not inside \, 1: inside.;
#X text 53 31 check if the polyline2d variable name exists or not.
;
#X obj 30 273 ofIsPointInsidePolyline2d @myPolyline2d;
#X obj 30 343 ofGetPolyline2dCommand @myPolyline2d[1];
#X obj 30 416 ofGetPolyline2dCommands @myPolyline2d;
#X obj 30 489 ofGetPolyline2dBoundingBox @myPolyline2d;
#X text 146 248 check if a 2d point is within a closed polyline2d.
;
#X text 53 318 get a polyline2d command at the index "1".;
#X text 53 391 get all polyline2d commands as a list.;
#X obj 30 102 bng 15 250 50 0 empty empty empty 17 7 0 10 -262144 -1
-1;
#X obj 30 148 print;
#X obj 30 175 bng 15 250 50 0 empty empty empty 17 7 0 10 -262144 -1
-1;
#X obj 30 221 print;
#X text 53 101 get a polyline2d point at the index "1". (starting from
"0");
#X text 53 174 get all polyline2d points as a list.;
#X obj 30 126 ofGetPolyline2dPoint @myPolyline2d[1];
#X obj 30 199 ofGetPolyline2dPoints @myPolyline2d;
#X obj 30 511 print;
#X obj 30 538 bng 15 250 50 0 empty empty empty 17 7 0 10 -262144 -1
-1;
#X obj 30 584 print;
#X obj 30 562 ofGetPolyline2dCentroid @myPolyline2d;
#X obj 30 611 bng 15 250 50 0 empty empty empty 17 7 0 10 -262144 -1
-1;
#X obj 30 657 print;
#X obj 30 635 ofGetPolyline2dArea @myPolyline2d;
#X text 53 537 get the center position of the polyline2d area.;
#X text 53 610 get the precise area of the polyline2d.;
#X obj 30 684 bng 15 250 50 0 empty empty empty 17 7 0 10 -262144 -1
-1;
#X obj 30 730 print;
#X obj 30 708 ofGetPolyline2dPerimeter @myPolyline2d;
#X text 53 683 get the size of the perimeter of the polyline2d.;
#X text 53 464 get the dimensions of the polyline2d bounding box.;
#X obj 30 56 ofDoesPolyline2dNameExist @myPolyline2d;
#X connect 0 0 43 0;
#X connect 1 0 14 0;
#X connect 2 0 14 0;
#X connect 3 0 14 0;
#X connect 5 0 15 0;
#X connect 7 0 16 0;
#X connect 9 0 17 0;
#X connect 14 0 4 0;
#X connect 15 0 6 0;
#X connect 16 0 8 0;
#X connect 17 0 29 0;
#X connect 21 0 27 0;
#X connect 23 0 28 0;
#X connect 27 0 22 0;
#X connect 28 0 24 0;
#X connect 30 0 32 0;
#X connect 32 0 31 0;
#X connect 33 0 35 0;
#X connect 35 0 34 0;
#X connect 38 0 40 0;
#X connect 40 0 39 0;
#X connect 43 0 10 0;
#X restore 470 23 pd related_getter_objects;
#X msg 112 180 add lineTo \$1 \$2;
#X obj 145 69 route 1;
#X obj 40 74 route 1 3;
#X obj 220 199 route 1;
#X msg 125 241 0;
#X obj 261 284 spigot;
#X obj 134 289 f;
#X obj 175 288 + 1;
#X text 183 344 reset;
#X msg 680 88 create;
#X msg 315 376 all reset;
#X obj 677 29 inlet;
#X msg 439 422 all active \$1;
#X obj 452 383 tgl 15 0 empty empty empty 17 7 0 10 -262144 -1 -1 0
1;
#X obj 742 116 ofClear 100;
#X obj 677 51 select 1 0;
#X obj 55 427 list prepend 0;
#X msg 290 312 add close;
#X obj 212 254 t b b b;
#X msg 237 314 done;
#X obj 314 61 inlet close_contours;
#X obj 55 530 list split 1;
#X obj 104 578 list trim;
#X obj 175 310 mod 8;
#X obj 185 426 list prepend 0;
#X msg 8 168 add moveTo \$1 \$2;
#X obj 24 340 t a b;
#X msg 191 395 reset;
#X obj 544 66 inlet;
#X obj 544 88 spigot;
#X obj 51 43 ofMouseListener, f 23;
#X obj 797 46 loadbang;
#X obj 657 239 ofKeyListener;
#X obj 657 261 route 1;
#X msg 665 497 \$1 switch;
#X obj 603 287 select 127;
#X obj 119 600 outlet CYCLOGROOVE;
#X obj 97 556 list prepend send CYCLOGROOVE;
#X obj 337 122 r CYCLO;
#X obj 335 150 route listen_to_tracker listen_off blob;
#X msg 335 174 1;
#X msg 403 181 0;
#X text 619 377 suppr;
#X obj 575 239 bng 15 250 50 0 empty empty empty 17 7 0 10 -262144
-1 -1;
#X msg 568 211 all resume;
#X obj 719 294 select 38 233 34 39 40 167 232 33;
#X msg 689 357 0;
#X msg 730 371 1;
#X msg 772 405 2;
#X msg 832 416 3;
#X msg 883 390 4;
#X msg 947 387 5;
#X msg 1008 381 6;
#X msg 1054 372 7;
#X obj 55 508 clone 8 ../data_ofelia/PolylineBrowser \$0;
#X connect 1 0 17 0;
#X connect 3 0 19 0;
#X connect 4 0 3 0;
#X connect 5 0 28 0;
#X connect 5 1 7 0;
#X connect 6 0 21 0;
#X connect 7 0 9 1;
#X connect 7 0 13 0;
#X connect 7 0 19 1;
#X connect 8 0 20 0;
#X connect 9 0 10 0;
#X connect 10 0 26 0;
#X connect 12 0 1 0;
#X connect 13 0 57 1;
#X connect 14 0 18 0;
#X connect 14 0 32 1;
#X connect 15 0 57 1;
#X connect 16 0 15 0;
#X connect 18 0 12 0;
#X connect 19 0 57 0;
#X connect 20 0 19 0;
#X connect 21 0 9 0;
#X connect 21 1 22 0;
#X connect 21 2 8 0;
#X connect 22 0 19 0;
#X connect 23 0 8 1;
#X connect 24 1 40 0;
#X connect 25 0 39 0;
#X connect 26 0 19 1;
#X connect 26 0 9 1;
#X connect 26 0 27 1;
#X connect 27 0 57 1;
#X connect 28 0 29 0;
#X connect 29 0 19 0;
#X connect 29 1 30 0;
#X connect 30 0 27 0;
#X connect 31 0 32 0;
#X connect 32 0 47 0;
#X connect 33 0 5 0;
#X connect 33 1 4 0;
#X connect 33 2 6 0;
#X connect 35 0 36 0;
#X connect 36 0 38 0;
#X connect 37 0 57 1;
#X connect 38 0 7 0;
#X connect 38 1 48 0;
#X connect 40 0 25 0;
#X connect 41 0 42 0;
#X connect 42 0 43 0;
#X connect 42 1 44 0;
#X connect 42 2 57 1;
#X connect 43 0 16 0;
#X connect 44 0 16 0;
#X connect 47 0 57 1;
#X connect 48 0 49 0;
#X connect 48 1 50 0;
#X connect 48 2 51 0;
#X connect 48 3 52 0;
#X connect 48 4 53 0;
#X connect 48 5 54 0;
#X connect 48 6 55 0;
#X connect 48 7 56 0;
#X connect 49 0 37 0;
#X connect 50 0 37 0;
#X connect 51 0 37 0;
#X connect 52 0 37 0;
#X connect 53 0 37 0;
#X connect 54 0 37 0;
#X connect 55 0 37 0;
#X connect 56 0 37 0;
#X connect 57 0 24 0;
#X restore 128 196 pd stuff;
#X obj 260 140 tgl 30 0 empty empty empty 17 7 0 10 -262144 -1 -1 0
1;
#X obj 487 74 r \$0-busy;
#X msg 487 96 set \$1;
#X obj 247 213 s \$0-busy;
#X text 512 294 cogx cogy width height angle (Area IsHole Perimeter).....
;
#X obj 467 126 r \$0-busy;
#X text 485 277 container_params :;
#X obj 468 148 select 1 0;
#X obj 374 434 route off listen_to_tracker params;
#X text 399 414 pas la peine de l'implementer;
#X obj 129 137 tgl 30 0 empty empty empty 17 7 0 10 -262144 -1 -1 0
1;
#X text 228 116 enable;
#X text 108 122 close contours;
#X obj 462 208 f \$0;
#X obj 693 88 unpack f f;
#X floatatom 693 123 5 0 0 0 - - -, f 5;
#X floatatom 750 153 5 0 0 0 - - -, f 5;
#X obj 796 33 ofKeyListener;
#X text 791 152 key code.;
#X text 731 122 key state. (0: released \, 1: pressed);
#X obj 796 55 route 1;
#X obj 796 77 select 32;
#X obj 829 217 route spacebar;
#X msg 796 99 spacebar;
#X obj 53 25 ofLoadFont \; \$0-myFonts \; ../data_ofelia/DejaVuSansMono.ttf
24 \;;
#X obj 881 171 list trim;
#X obj 67 356 s TO_AUDIO_SESSION;
#X obj 346 292 f \$0;
#X msg 305 320 send TRACKER \$1 remove;
#X obj 468 170 t b;
#X msg 324 251 send TRACKER \$1 add 160 120 320 240 0 76800 0 1120
;
#X obj 881 147 list prepend send TRANSPORT;
#X msg 154 263 1;
#X msg 178 235 0;
#X obj 392 55 r PLAY;
#X obj 382 85 t b;
#X connect 1 0 28 0;
#X connect 2 0 1 2;
#X connect 2 0 5 0;
#X connect 3 0 4 0;
#X connect 4 0 2 0;
#X connect 7 0 9 0;
#X connect 9 0 31 0;
#X connect 9 1 29 0;
#X connect 12 0 1 0;
#X connect 15 0 32 0;
#X connect 16 0 17 0;
#X connect 16 1 18 0;
#X connect 19 0 16 0;
#X connect 19 0 22 0;
#X connect 22 0 23 0;
#X connect 23 0 25 0;
#X connect 25 0 33 0;
#X connect 27 0 28 0;
#X connect 29 0 30 0;
#X connect 30 0 28 0;
#X connect 31 0 15 0;
#X connect 32 0 28 0;
#X connect 33 0 27 0;
#X connect 34 0 1 1;
#X connect 35 0 1 1;
#X connect 36 0 37 0;
#X connect 37 0 34 0;
#X coords 0 -1 1 1 190 70 1 100 100;
