#N canvas 0 50 1267 523 10;
#X declare -lib pix_opencv;
#X declare -lib cvlib;
#X declare -lib gem;
#X declare -path pdr/core/fid_abs_vanilia-0.4;
#X declare -path pdr/core/stuff;
#X declare -path pdr/core/rj;
#X declare -path stuff;
#X obj 51 37 gemhead;
#X obj 50 13 r render;
#X obj 51 63 pix_openni 0 1;
#X obj 51 85 s video;
#X obj 233 140 videoSessionPSM;
#X obj 773 132 declare -lib pix_opencv;
#X obj 772 158 declare -lib cvlib;
#X obj 773 108 declare -lib gem;
#X obj 577 42 declare -path pdr/core/fid_abs_vanilia-0.4;
#X obj 575 64 declare -path pdr/core/stuff;
#X obj 575 84 declare -path pdr/core/rj;
#X obj 587 137 declare -path stuff;
#X connect 0 0 2 0;
#X connect 1 0 0 0;
#X connect 2 0 3 0;
