#N canvas 538 220 1174 701 16;
#X declare -path pdr/modules/basic;
#X text 39 21 PdRacks is a set of tools and modules to make patching
of complex audio/visual effects / instruments / interactions / scenes
easier., f 69;
#X text 41 95 Here is all you need to create a minimal PdRacks scene
with only one module.;
#X text 66 247 In this example \, we use a "instrument" module : [inst_rhodey]
, f 63;
#X obj 243 316 cnv 15 350 200 empty empty empty 20 12 0 14 -261682
-66577 0;
#X msg 80 514 \; pd dsp 1;
#X msg 602 432 vol 100 \, decay 302 \, tone 0.72;
#X obj 79 492 loadbang;
#X text 77 461 turn dsp on;
#X text 594 325 <-- Here \, we just use control inlet to send 'midi-like'
note messages, f 26;
#X obj 278 393 inst_rhodey;
#X obj 302 483 dac~;
#X obj 460 482 print;
#X text 78 438 don't forget to;
#X obj 57 590 cnv 15 400 60 empty empty empty 20 12 0 14 -262130 -66577
0;
#X obj 601 400 loadbang;
#X text 604 493 You can adjust the parameters of module by using the
GUI controls or by sending specific messages., f 34;
#X msg 461 330 note 64 100;
#X text 43 153 A standard PdRacks module has 2 inlets~/outlets~ (for
processing stereo audio) and one inlet/outlet for controls.;
#X msg 605 465 vol 80 \, decay 602 \, tone 0.3;
#N canvas 136 61 1105 892 basic-objects 0;
#X msg 276 142 fx_parameq2;
#X msg 753 298 PdRacks.presets;
#X msg 276 452 fx_compressor;
#X msg 276 265 fx_chorus;
#X msg 276 285 fx_dubdel;
#X msg 276 82 fx_hip;
#X msg 276 192 fx_ring;
#X msg 276 375 fx_freeverb;
#X msg 276 472 fx_dynproc;
#X msg 276 102 fx_filter;
#X msg 276 212 fx_freqshift;
#X msg 276 232 fx_pitchshift;
#X msg 276 355 fx_resonator;
#X msg 276 62 fx_lop;
#X msg 276 42 fx_lowhip;
#X msg 276 305 fx_dubdel2;
#X msg 276 499 fx_sub;
#X msg 276 325 fx_reverse;
#X msg 276 395 fx_everb;
#X msg 276 162 fx_eq3;
#X msg 276 122 fx_parameq;
#X msg 46 263 inst_sampler;
#X msg 46 283 inst_turntable;
#X msg 46 223 inst_8bits;
#X msg 46 243 inst_rhodey;
#X msg 46 163 inst_soundfile;
#X msg 46 143 inst_headrush;
#X msg 46 183 inst_tabosc;
#X msg 46 203 inst_bassdrum;
#X msg 46 93 inst_modular;
#X msg 484 51 audio_in;
#X msg 484 71 audio_out;
#X msg 484 91 audio_record;
#X msg 484 111 audio_features;
#X msg 484 220 data_azerty2midi;
#X msg 739 71 midi_arpeggiator;
#X msg 739 91 note_randomize;
#X msg 739 111 note_2param;
#X text 39 30 INSTRUMENTS;
#X text 265 7 AUDIO EFFECTS;
#X text 477 15 IN OUT;
#X msg 484 240 note_16steps;
#X text 486 186 MIDI NOTE GENERATORS;
#X text 731 30 MIDI FILTERS;
#X text 752 259 GLOBAL;
#X msg 276 553 fx_bitcrush;
#X msg 46 303 inst_euclidrums;
#X msg 484 326 midi_notein;
#X msg 46 351 inst_pcm;
#X msg 276 529 fx_formant;
#X msg 276 415 fx_dattorroverb;
#X msg 44 383 inst_pvoc;
#X msg 734 413 PdRacks.morphing;
#X msg 733 389 PdRacks.transport;
#X msg 276 591 fx_alias;
#X msg 46 422 inst_oneshot;
#X obj 484 158 s \$0-ADD;
#X obj 46 521 t a;
#X obj 276 686 t a;
#X obj 484 358 t a;
#X obj 739 201 t a;
#X obj 354 806 outlet;
#X msg 734 452 PdRacks.savestate;
#X msg 733 479 PdRacks.latency;
#X connect 0 0 58 0;
#X connect 2 0 58 0;
#X connect 3 0 58 0;
#X connect 4 0 58 0;
#X connect 5 0 58 0;
#X connect 6 0 58 0;
#X connect 7 0 58 0;
#X connect 8 0 58 0;
#X connect 9 0 58 0;
#X connect 10 0 58 0;
#X connect 11 0 58 0;
#X connect 12 0 58 0;
#X connect 13 0 58 0;
#X connect 14 0 58 0;
#X connect 15 0 58 0;
#X connect 16 0 58 0;
#X connect 17 0 58 0;
#X connect 18 0 58 0;
#X connect 19 0 58 0;
#X connect 20 0 58 0;
#X connect 21 0 57 0;
#X connect 22 0 57 0;
#X connect 23 0 57 0;
#X connect 24 0 57 0;
#X connect 25 0 57 0;
#X connect 26 0 57 0;
#X connect 27 0 57 0;
#X connect 28 0 57 0;
#X connect 29 0 57 0;
#X connect 30 0 56 0;
#X connect 31 0 56 0;
#X connect 32 0 56 0;
#X connect 33 0 56 0;
#X connect 34 0 59 0;
#X connect 35 0 60 0;
#X connect 36 0 60 0;
#X connect 37 0 60 0;
#X connect 41 0 59 0;
#X connect 45 0 58 0;
#X connect 46 0 57 0;
#X connect 47 0 59 0;
#X connect 48 0 57 0;
#X connect 49 0 58 0;
#X connect 50 0 58 0;
#X connect 51 0 57 0;
#X connect 54 0 58 0;
#X connect 55 0 57 0;
#X connect 57 0 61 0;
#X connect 58 0 61 0;
#X connect 59 0 61 0;
#X connect 60 0 61 0;
#X restore 956 159 pd basic-objects;
#X text 717 140 example of basic objects : click here ->, f 23;
#X text 455 608 <-- This declare object is mandatory in the main patch
to acces to the "basic" collection of objects.;
#X obj 81 611 declare -path pdr/modules/basic;
#X connect 5 0 9 2;
#X connect 6 0 4 0;
#X connect 9 0 10 0;
#X connect 9 1 10 1;
#X connect 9 2 11 0;
#X connect 14 0 5 0;
#X connect 16 0 9 2;
#X connect 18 0 9 2;
