#N canvas 182 111 1438 762 16;
#X declare -path pdr/modules/basic;
#X text 51 55 [pdr] is an autocompletion tool that helps you to choose
pdracks modules quickly from a menu list \, sorted by categories,
f 63;
#X text 49 117 When created \, it automatically adds the needed dependancies
--->, f 65;
#X text 71 215 1) enable autocomplete mode for [pdr] by clicking on
second cell of blue hradio;
#X obj 272 238 hradio 20 1 1 3 empty empty empty 0 -8 0 10 -4032 -4160
-1 1;
#X text 75 268 2) move the cursor to a blanck zone in the window and
press [Insert] key. You get a popup menu.;
#X text 114 361 * the base categories are effects \, instruments \,
midi \, utils.;
#X text 73 312 3) Use <PgUp> and <PgDown> to change category* \, use
vertical arrows to select objects.;
#X text 75 394 4) When you found your object in the menu \, press <Enter>.
The object is created.;
#X text 77 526 For further information \, right-click on pdr and choose
help., f 64;
#X text 54 8 Instead of manually adding declare objects and other modules
in your patch \, you can use the [pdr] helper.;
#X text 38 189 To enter modules using autocompletion mode :;
#X text 75 455 Note : If you select the just created object and press
[Insert] again \, the new object you are creating will be automatically
connected to the former.;
#X text 210 146 and adds a new module : PdRacks.savestate (replaces
former PdRacks.settings), f 41;
#X text 789 24 create a [pdr] object here, f 14;
#X obj 1028 130 pdr;
#N canvas 0 50 450 300 \$0-PdRacks.declare 0;
#X obj 27 19 declare -path pdr/modules/basic;
#X obj 31 61 pdr/core/stuff/u_glocal.enable \$0;
#A saved module basic;
#X restore 1028 175 pd \$0-PdRacks.declare;
#X obj 966 298 PdRacks.savestate;
#A saved scene_name ;
#X obj 964 456 inst_rhodey;
