#N canvas 243 66 872 633 16;
#X declare -path pdr/modules/basic;
#X obj 533 11 pdr;
#N canvas 0 50 450 300 \$0-PdRacks.declare 0;
#X obj 10 10 declare -path pdr/modules/basic;
#X obj 10 60 pdr/core/stuff/u_glocal.enable \$0;
#A saved module basic;
#X restore 533 56 pd \$0-PdRacks.declare;
#X obj 303 469 inst_rhodey;
#X obj 302 554 dac~;
#X msg 488 440 note 64 100;
#X text 52 367 * To recall a preset \, click one of the green h-radios
buttons.;
#X text 54 423 * MORPH.TIME lets you switch progressively between 2
presets values, f 45;
#X obj 89 177 cnv 15 240 100 empty empty empty 20 12 0 14 -261682 -66577
0;
#X obj 112 189 PdRacks.presets;
#X text 35 14 You can save differents states of your current patch
by using several [PdRacks.savestate] objects, f 44;
#X text 31 91 You can also store several sub-presets for the scene
that is in your patch by using one (or more) [PdRacks.presets] module(s)
, f 45;
#X text 51 294 * To save a preset \, click one of the pink h-radios
buttons. IMPORTANT : Don't forget to global-save in the patch by pressing
red Save button in one of the PdRacks.savestate;
#X obj 533 111 PdRacks.savestate;
#A saved scene_name ;
#X connect 2 0 3 0;
#X connect 2 1 3 1;
#X connect 4 0 2 2;
