#N struct text-help-struct float x float y text z;
#N canvas 732 339 936 609 16;
#X scalar text-help-struct 522 106.6 \; audio_out-3 slot 14 \\\; audio_out-3
pan 0 \\\; audio_out-3 vol 110.931 \\\; audio_out-3 out OUT(1/2) \\\;
data_azerty2midi-0 enable 1 \\\; data_azerty2midi-0 slot 12 \\\; data_azerty2midi-0
oct 3 \\\; data_azerty2midi-0 velo 100 \\\; inst_rhodey-0 vol 95.3796
\\\; inst_rhodey-0 slot 13 \\\; inst_rhodey-0 tone 0.432653 \\\; inst_rhodey-0
decay 2449.16 \\\; \;;
#X scalar text-help-struct 525 149 \; inst_euclidrums-0 set 1 \\\;
inst_euclidrums-0 bd 11.1804 \\\; inst_euclidrums-0 sn 17.182 \\\;
inst_euclidrums-0 hh 25.169 \\\; inst_euclidrums-0 slot 14 \\\; audio_out-4
slot 16 \\\; audio_out-4 pan 0 \\\; audio_out-4 vol 100.563 \\\; audio_out-4
out OUT(1/2) \\\; data_wintablet-1 slot 13 \\\; fx_dubdel2-2 noclick_mode
0 \\\; fx_dubdel2-2 slot 15 \\\; fx_dubdel2-2 dell 3 \\\; fx_dubdel2-2
delr 3 \\\; fx_dubdel2-2 sync 1 \\\; fx_dubdel2-2 del 459.508 \\\;
fx_dubdel2-2 wet 0.42449 \\\; fx_dubdel2-2 fb 0.138776 \\\; fx_dubdel2-2
bq 2 \\\; fx_dubdel2-2 bpitch 60 \\\; \;;
#X text 117 563 Session EucliDrums;
#X scalar text-help-struct 303 557 \; inst_euclidrums-0 set 0 \\\;
inst_euclidrums-0 bd 11.1804 \\\; inst_euclidrums-0 sn 17.182 \\\;
inst_euclidrums-0 hh 25.169 \\\; inst_euclidrums-0 slot 14 \\\; fx_compressor-1
lookahead 0 \\\; fx_compressor-1 response 40 \\\; fx_compressor-1 gain
7.10204 \\\; fx_compressor-1 ratio 5.21857 \\\; fx_compressor-1 thresh
-10.9796 \\\; fx_compressor-1 rmspeak 0 \\\; fx_compressor-1 slot 15
\\\; audio_out-4 slot 17 \\\; audio_out-4 pan 0 \\\; audio_out-4 vol
100.563 \\\; audio_out-4 out OUT(1/2) \\\; data_wintablet-1 slot 13
\\\; fx_dubdel2-2 noclick_mode 0 \\\; fx_dubdel2-2 slot 16 \\\; fx_dubdel2-2
dell 3 \\\; fx_dubdel2-2 delr 3 \\\; fx_dubdel2-2 sync 1 \\\; fx_dubdel2-2
del 459.508 \\\; fx_dubdel2-2 wet 0.42449 \\\; fx_dubdel2-2 fb 0.138776
\\\; fx_dubdel2-2 bq 2 \\\; fx_dubdel2-2 bpitch 60 \\\; \;;
#X text 333 152 Une autre scène :;
#X text 53 208 En cliquant sur une scène \, la configuration de rack
et les réglages associés à cette scène sont chargés.;
#X text 54 255 Il est possible de placer un carré de scène n'importe
où dans un patch;
#N canvas 706 325 450 300 conduite 1;
#X scalar text-help-struct 40 0 \; \;;
#X scalar text-help-struct 40 40 \; audio_out-3 slot 14 \\\; audio_out-3
pan 0 \\\; audio_out-3 mute 0 \\\; audio_out-3 vol 110.931 \\\; audio_out-3
out OUT(1/2) \\\; inst_rhodey-0 slot 13 \\\; inst_rhodey-0 vol 95.3796
\\\; inst_rhodey-0 tone 0.432653 \\\; inst_rhodey-0 decay 2449.16 \\\;
data_azerty2midi-0 az-qw 1 \\\; data_azerty2midi-0 slot 12 \\\; data_azerty2midi-0
enable 1 \\\; data_azerty2midi-0 oct 4 \\\; data_azerty2midi-0 velo
100 \\\; \;;
#X scalar text-help-struct 40 80 \; ctl-assign note_randomize-1 prob
4 0 100 lin 0 \\\; ctl-assign inst_bassdrum-1 decay 0 10 2000 log \\\;
ctl-assign note_16steps-1 cycle 6 1 16 lin \\\; ctl-assign inst_bassdrum-1
freq2 2 1 1000 log \\\; fx_bitcrush-0 wet 0 \\\; fx_bitcrush-0 depth
34.7063 \\\; fx_bitcrush-0 slot 34 \\\; audio_in-4 slot 5 \\\; audio_in-4
module-slot 0 \\\; audio_in-4 mute 0 \\\; audio_in-4 gain 2.63673 \\\;
audio_in-4 in MASTER \\\; audio_out-4 slot 17 \\\; audio_out-4 pan
0 \\\; audio_out-4 mute 0 \\\; audio_out-4 vol 102.637 \\\; audio_out-4
out MASTER \\\; inst_euclidrums-0 set 0 \\\; inst_euclidrums-0 bd 11.1804
\\\; inst_euclidrums-0 sn 12.3494 \\\; inst_euclidrums-0 hh 25.169
\\\; inst_euclidrums-0 slot 14 \\\; note_16steps-1 ticks 0 \\\; note_16steps-1
vol 100 \\\; note_16steps-1 sustain 0.8 \\\; note_16steps-1 randoms
0 1 0 0 0 1 0 0 0 1 0 0 0 0 0 0 \\\; note_16steps-1 lrandoms <sublist>
<undefined> <undefined> <undefined> <undefined> <undefined> <undefined>
<undefined> <undefined> <undefined> <undefined> <undefined> <undefined>
<undefined> <undefined> <undefined> <undefined> <undefined> <undefined>
<undefined> <undefined> <undefined> <undefined> <undefined> <undefined>
<undefined> <undefined> <undefined> <undefined> <undefined> <undefined>
<undefined> <undefined> <undefined> <undefined> <undefined> <undefined>
<undefined> <undefined> <undefined> <undefined> <undefined> <undefined>
<undefined> <undefined> <undefined> <undefined> <undefined> <undefined>
<undefined> <undefined> <undefined> <undefined> <undefined> <undefined>
<undefined> <undefined> <undefined> <undefined> <undefined> <undefined>
<undefined> <undefined> <undefined> <undefined> \\\; note_16steps-1
div 1 \\\; note_16steps-1 slot 23 \\\; note_16steps-1 cycle 7.79134
\\\; note_16steps-1 lcycle <subset> 16 16 16 16 \\\; note_16steps-1
steps -1 29 17.4 11.6 20.3 27 18.3666 16.4333 11.5999 13 8.6999 25.1334
11.6 27.0668 1.93322 11.6 \\\; note_16steps-1 lsteps <sublist> <undefined>
<undefined> <undefined> <undefined> <undefined> <undefined> <undefined>
<undefined> <undefined> <undefined> <undefined> <undefined> <undefined>
<undefined> <undefined> <undefined> <undefined> <undefined> <undefined>
<undefined> <undefined> <undefined> <undefined> <undefined> <undefined>
<undefined> <undefined> <undefined> <undefined> <undefined> <undefined>
<undefined> <undefined> <undefined> <undefined> <undefined> <undefined>
<undefined> <undefined> <undefined> <undefined> <undefined> <undefined>
<undefined> <undefined> <undefined> <undefined> <undefined> <undefined>
<undefined> <undefined> <undefined> <undefined> <undefined> <undefined>
<undefined> <undefined> <undefined> <undefined> <undefined> <undefined>
<undefined> <undefined> <undefined> \\\; note_16steps-1 xpose 6.69565
\\\; note_16steps-1 lxpose <subset> 0 0 0 0 \\\; note_16steps-1 offset
38.8889 \\\; note_16steps-1 loffset <subset> 50 50 50 50 \\\; note_16steps-1
scale 5.77778 \\\; note_16steps-1 lscale <subset> 0 0 0 0 \\\; note_16steps-1
DeviceFeedback 1 \\\; fx_compressor-1 lookahead 0 \\\; fx_compressor-1
response 40 \\\; fx_compressor-1 gain 7.10204 \\\; fx_compressor-1
ratio 5.21857 \\\; fx_compressor-1 thresh -10.9796 \\\; fx_compressor-1
rmspeak 0 \\\; fx_compressor-1 slot 15 \\\; fx_parameq2-0 speed 63.0957
\\\; fx_parameq2-0 delta -7.71428 \\\; fx_parameq2-0 slot 35 \\\; fx_parameq2-0
bypass 0 \\\; fx_parameq2-0 gain 19.8699 \\\; fx_parameq2-0 freq 872.501
\\\; fx_parameq2-0 Q 4.02623 \\\; audio_out-3 slot 27 \\\; audio_out-3
pan 0 \\\; audio_out-3 mute 0 \\\; audio_out-3 vol 104.71 \\\; audio_out-3
out MASTER \\\; fx_freeverb-2 slot 6 \\\; fx_freeverb-2 freeze 0 \\\;
fx_freeverb-2 wet 0.118367 \\\; fx_freeverb-2 damp 88.9796 \\\; fx_freeverb-2
hall 62.449 \\\; fx_freeverb-2 amp 80 \\\; note_randomize-1 euclid
24 \\\; note_randomize-1 wet 0.999894 \\\; note_randomize-1 decay 88.8358
\\\; note_randomize-1 slot 25 \\\; note_randomize-1 accent 8.16327
\\\; note_randomize-1 prob 28.6417 \\\; inst_bassdrum-1 slot 24 \\\;
inst_bassdrum-1 gain 0.852339 \\\; inst_bassdrum-1 decay 440.142 \\\;
inst_bassdrum-1 freq2 2.48696 \\\; inst_bassdrum-1 square 1.71413 \\\;
inst_bassdrum-1 curve 34.0341 \\\; inst_bassdrum-1 noize 0.765957 \\\;
inst_bassdrum-1 lowpass 10000 \\\; data_wintablet-1 ccz_enable 1 \\\;
data_wintablet-1 ccy_enable 1 \\\; data_wintablet-1 ccx_enable 1 \\\;
data_wintablet-1 ccz 6 \\\; data_wintablet-1 ccy 4 \\\; data_wintablet-1
ccx 2 \\\; data_wintablet-1 slot 13 \\\; fx_dubdel2-2 noclick_mode
0 \\\; fx_dubdel2-2 slot 16 \\\; fx_dubdel2-2 dell 3 \\\; fx_dubdel2-2
delr 3 \\\; fx_dubdel2-2 sync 1 \\\; fx_dubdel2-2 del 459.508 \\\;
fx_dubdel2-2 wet 0.42449 \\\; fx_dubdel2-2 fb 0.138776 \\\; fx_dubdel2-2
bq 2 \\\; fx_dubdel2-2 bpitch 60 \\\; fx_dubdel2-1 noclick_mode 0 \\\;
fx_dubdel2-1 slot 26 \\\; fx_dubdel2-1 dell 3 \\\; fx_dubdel2-1 delr
3 \\\; fx_dubdel2-1 sync 1 \\\; fx_dubdel2-1 del 462.387 \\\; fx_dubdel2-1
wet 0.510204 \\\; fx_dubdel2-1 fb 0.0857143 \\\; fx_dubdel2-1 bq 2
\\\; fx_dubdel2-1 bpitch 88.3143 \\\; fx_dubdel-1 slot 36 \\\; fx_dubdel-1
sync 1 \\\; fx_dubdel-1 dell 0 \\\; fx_dubdel-1 delr 0 \\\; fx_dubdel-1
del 360.225 \\\; fx_dubdel-1 wet 0.534694 \\\; fx_dubdel-1 fb 0.302041
\\\; fx_dubdel-1 bq 2 \\\; fx_dubdel-1 bpitch 86.2857 \\\; audio_out-2
slot 37 \\\; audio_out-2 pan 0 \\\; audio_out-2 mute 0 \\\; audio_out-2
vol 98.4898 \\\; audio_out-2 out OUT(1/2) \\\; audio_out-1 slot 7 \\\;
audio_out-1 pan 0 \\\; audio_out-1 vol 101.082 \\\; audio_out-1 out
OUT(1/2) \\\; \;;
#X scalar text-help-struct 40 121 \; midi_notein-0 device 0 \\\; midi_notein-0
slot 22 \\\; note_16steps-1 DeviceFeedback 1 \\\; note_16steps-1 randoms
0 0 0 0 0 0 0 0 0 0 0 0 0 0 0 0 \\\; note_16steps-1 lrandoms <sublist>
<undefined> <undefined> <undefined> <undefined> <undefined> <undefined>
<undefined> <undefined> <undefined> <undefined> <undefined> <undefined>
<undefined> <undefined> <undefined> <undefined> <undefined> <undefined>
<undefined> <undefined> <undefined> <undefined> <undefined> <undefined>
<undefined> <undefined> <undefined> <undefined> <undefined> <undefined>
<undefined> <undefined> <undefined> <undefined> <undefined> <undefined>
<undefined> <undefined> <undefined> <undefined> <undefined> <undefined>
<undefined> <undefined> <undefined> <undefined> <undefined> <undefined>
<undefined> <undefined> <undefined> <undefined> <undefined> <undefined>
<undefined> <undefined> <undefined> <undefined> <undefined> <undefined>
<undefined> <undefined> <undefined> <undefined> \\\; note_16steps-1
div 0 \\\; note_16steps-1 slot 24 \\\; note_16steps-1 cycle 14.4646
\\\; note_16steps-1 lcycle <subset> 16 16 16 16 \\\; note_16steps-1
steps -1 -1 -1 -1 4 -1 -1 -1 11 16 -1 7 1 7 16 13 \\\; note_16steps-1
lsteps <sublist> <undefined> <undefined> <undefined> <undefined> <undefined>
<undefined> <undefined> <undefined> <undefined> <undefined> <undefined>
<undefined> <undefined> <undefined> <undefined> <undefined> <undefined>
<undefined> <undefined> <undefined> <undefined> <undefined> <undefined>
<undefined> <undefined> <undefined> <undefined> <undefined> <undefined>
<undefined> <undefined> <undefined> <undefined> <undefined> <undefined>
<undefined> <undefined> <undefined> <undefined> <undefined> <undefined>
<undefined> <undefined> <undefined> <undefined> <undefined> <undefined>
<undefined> <undefined> <undefined> <undefined> <undefined> <undefined>
<undefined> <undefined> <undefined> <undefined> <undefined> <undefined>
<undefined> <undefined> <undefined> <undefined> <undefined> \\\; note_16steps-1
xpose 6.40945 \\\; note_16steps-1 lxpose <subset> 0 0 0 0 \\\; note_16steps-1
offset 50.3937 \\\; note_16steps-1 loffset <subset> 50 50 50 50 \\\;
note_16steps-1 scale 0 \\\; note_16steps-1 lscale <subset> 0 0 0 0
\\\; audio_out-3 slot 27 \\\; audio_out-3 pan 0.0102041 \\\; audio_out-3
mute 0 \\\; audio_out-3 vol 81.1024 \\\; audio_out-3 out OUT(1/2) \\\;
midi_arpeggiator-0 slot 23 \\\; midi_arpeggiator-0 bypass 1 \\\; midi_arpeggiator-0
prob 0.999902 \\\; midi_arpeggiator-0 duration 250.367 \\\; midi_arpeggiator-0
beat 3 \\\; inst_bassdrum-1 slot 25 \\\; inst_bassdrum-1 gain 0.542868
\\\; inst_bassdrum-1 decay 193.376 \\\; inst_bassdrum-1 freq2 1000
\\\; inst_bassdrum-1 square 101.83 \\\; inst_bassdrum-1 curve 100 \\\;
inst_bassdrum-1 noize 0.692913 \\\; inst_bassdrum-1 lowpass 4930.75
\\\; fx_dubdel2-1 noclick_mode 0 \\\; fx_dubdel2-1 slot 26 \\\; fx_dubdel2-1
dell 3 \\\; fx_dubdel2-1 delr 3 \\\; fx_dubdel2-1 sync 1 \\\; fx_dubdel2-1
del 462.387 \\\; fx_dubdel2-1 wet 0.17551 \\\; fx_dubdel2-1 fb 0.183673
\\\; fx_dubdel2-1 bq 2 \\\; fx_dubdel2-1 bpitch 88.3143 \\\; PdRacks.midi-0
note2cc_chan_out 2 \\\; PdRacks.midi-0 note2cc_chan_in 1 \\\; PdRacks.midi-0
note2cc_enable 1 \\\; ctl-assign inst_bassdrum-0 lowpass 2071 1000
10000 log 0 \\\; ctl-assign inst_bassdrum-0 noize 2071 0 1 lin \\\;
ctl-assign inst_bassdrum-0 curve 2070 1 100 log \\\; ctl-assign inst_bassdrum-1
lowpass 23 1000 10000 log 0 \\\; ctl-assign inst_bassdrum-1 noize 23
0 1 lin \\\; ctl-assign inst_bassdrum-0 freq2 2070 1 1000 log \\\;
ctl-assign inst_bassdrum-0 decay 2069 10 2000 log \\\; ctl-assign note_16steps-0
offset 2049 0 100 lin \\\; ctl-assign note_16steps-1 xpose 25 0 11
lin \\\; ctl-assign inst_bassdrum-1 curve 22 1 100 log \\\; ctl-assign
inst_bassdrum-1 freq2 22 1 1000 log \\\; ctl-assign note_16steps-1
cycle 20 1 16 lin \\\; ctl-assign audio_out-2 vol 2055 0 100 lin 0
\\\; ctl-assign note_16steps-0 cycle 2076 1 16 lin \\\; ctl-assign
note_randomize-1 prob 4 0 100 lin 0 \\\; ctl-assign inst_bassdrum-1
square 24 0.001 1000 log \\\; ctl-assign inst_bassdrum-0 square 2072
0.001 1000 log \\\; ctl-assign inst_bassdrum-1 decay 21 10 2000 log
\\\; ctl-assign note_16steps-0 div 2075 0 2 lin \\\; ctl-assign note_16steps-0
scale 2074 0 13 lin \\\; ctl-assign note_16steps-0 xpose 2073 0 11
lin \\\; ctl-assign audio_out-3 vol 7 0 100 lin 0 \\\; ctl-assign note_16steps-1
scale 26 0 13 lin \\\; ctl-assign note_16steps-1 div 27 0 2 lin \\\;
ctl-assign note_16steps-1 offset 1 0 100 lin 0 \\\; \;;
#X obj 0 15 cnv 2 10000 2 empty ducon empty 20 12 0 14 -86853 -66577
0;
#X obj 0 0 vsl 30 4000 4000 0 0 0 SCENE-pos SCENE-pos-rcv empty 0 -9
0 10 -260097 -1 -1 398400 0;
#X text 133 132 note16steps + mpkmini progr3;
#N canvas 1 56 450 300 keys 1;
#X obj 248 8 receivecanvas 1;
#N canvas 506 128 520 425 arrow_keys 0;
#X obj 186 55 inlet;
#X obj 275 65 select 63232 63235 63233 63234;
#X text 358 44 mac;
#X text 187 98 windows;
#X obj 154 116 select Up Down;
#X obj 229 232 s pre_prev;
#X obj 354 239 s pre_next;
#X obj 345 141 select 10;
#X obj 345 166 s pre_go;
#X connect 0 0 1 0;
#X connect 0 0 4 0;
#X connect 4 0 5 0;
#X connect 4 1 6 0;
#X connect 4 2 7 0;
#X connect 7 0 8 0;
#X restore 211 329 pd arrow_keys;
#X obj 246 29 route mouse key;
#X obj 243 87 route 1;
#X obj 241 129 list split 1;
#X connect 0 0 2 0;
#X connect 2 1 3 0;
#X connect 3 0 4 0;
#X connect 4 0 1 0;
#X restore 225 25 pd keys;
#X restore 216 392 pd conduite;
#X obj 613 399 bng 60 250 50 0 \$0-save empty SAVE 5 30 0 20 -258113
-1 -1;
#X text 33 173 RAPPEL D'UNE SCENE;
#X text 30 311 MEMORISATION D'UNE SCENE;
#X text 50 421 Pour enregistrer une scène \, cliquer sur le bouton
rouge;
#X text 23 9 DEFINITION D'UNE SCENE;
#X text 46 109 Une scène est matérialisée par un carré noir :;
#X text 48 35 Dans PdRacks \, une scène définit l'agencement des
différents modules (instruments \, effets) d'un rack \, ainsi que
les réglages des différents paramètres associés à ces modules.
;
#X text 51 343 Les scènes sont sauvegardées uniquement à l'intérieur
du sous-patch pd-conduite \, à l'emplacement indiqué par le curseur
orange.;
#X text 48 460 Remarque : il est possible de copier le carré noir
créé et de le placer à n'importe quel autre endroit d'un patch;
