#N canvas 20 52 1272 619 10;
#X obj 270 11 inlet;
#X text 376 3 blob 0 add 380.201 334.797 60.3974 8.47717 -23.0513 142.326
;
#X obj 82 427 outlet;
#X obj 50 167 spigot;
#X msg 351 81 1;
#X obj 83 6 inlet clock;
#X msg 349 62 0;
#X obj 50 189 t f f;
#X obj 270 36 route add remove value@index;
#X obj 311 520 outlet;
#X obj 345 108 s \$0-active;
#X obj 392 174 spigot;
#X obj 435 148 r \$0-active;
#X obj 87 133 r \$0-active;
#X obj 17 101 mod 24;
#X obj 92 56 * 24;
#X obj 93 34 r \$2-measure;
#X text 516 89 la position du cog détermine le choix de la note;
#N canvas 0 50 450 510 calcul_note_number 0;
#X obj 107 40 inlet;
#X obj 100 467 outlet;
#X obj 105 70 unpack f f;
#X obj 241 10 r \$2-container_params;
#X obj 241 32 unpack f f f f;
#X obj 105 92 -;
#X obj 164 94 -;
#X obj 105 114 /;
#X obj 164 116 /;
#X text 236 129 pseudo normaisation -0.5 ... 0.5;
#X obj 105 200 max 0;
#X obj 164 202 max 0;
#X obj 105 222 *;
#X obj 242 175 r \$2-x_grid;
#X obj 164 224 *;
#X obj 242 195 r \$2-y_grid;
#X obj 105 244 int;
#X obj 164 246 int;
#X obj 164 268 *;
#X obj 105 296 +;
#X text 211 92 blob.cog.x - container.cog.x;
#X obj 105 434 +;
#X obj 128 411 r \$2-root_key;
#X obj 202 291 r \$2-grid_enable;
#X obj 105 318 list prepend 0;
#X obj 126 385 f \$1;
#X obj 127 363 t b;
#X obj 105 340 route 1 0;
#X obj 86 169 min 0.9999;
#X obj 164 180 min 0.999;
#X obj 105 136 + 0.5;
#X obj 164 138 + 0.5;
#X connect 0 0 2 0;
#X connect 2 0 5 0;
#X connect 2 1 6 0;
#X connect 3 0 4 0;
#X connect 4 0 5 1;
#X connect 4 1 6 1;
#X connect 4 2 7 1;
#X connect 4 3 8 1;
#X connect 5 0 7 0;
#X connect 6 0 8 0;
#X connect 7 0 30 0;
#X connect 8 0 31 0;
#X connect 10 0 12 0;
#X connect 11 0 14 0;
#X connect 12 0 16 0;
#X connect 13 0 12 1;
#X connect 13 0 18 1;
#X connect 14 0 17 0;
#X connect 15 0 14 1;
#X connect 16 0 19 0;
#X connect 17 0 18 0;
#X connect 18 0 19 1;
#X connect 19 0 24 0;
#X connect 21 0 1 0;
#X connect 22 0 21 1;
#X connect 23 0 24 1;
#X connect 24 0 27 0;
#X connect 25 0 21 0;
#X connect 26 0 25 0;
#X connect 27 0 21 0;
#X connect 27 1 26 0;
#X connect 28 0 10 0;
#X connect 29 0 11 0;
#X connect 30 0 28 0;
#X connect 31 0 29 0;
#X restore 270 274 pd calcul_note_number;
#X msg 269 450 note \$1 100;
#X msg 334 427 note \$1 0;
#X obj 334 387 f \$1;
#X obj 334 244 t b;
#X obj 279 357 s \$0-note-id;
#N canvas 0 50 617 356 param1 0;
#X obj 90 359 outlet;
#X obj 93 4 r \$2-value1;
#X obj 93 28 list prepend \$0;
#X obj 89 78 iemlib/iem_receive;
#X msg 89 53 set \$1-\$2;
#X obj 89 210 *;
#X obj 226 80 r \$2-target1;
#X obj 89 295 list prepend <noteid>;
#X obj 89 255 list prepend <target>;
#X obj 89 317 list prepend aftertouch;
#X obj 89 339 list trim;
#X obj 244 244 r \$0-note-id;
#X obj 89 110 spigot;
#X obj 157 106 r \$2-enable1;
#X obj 107 187 r \$2-mul1;
#X text 245 331 aftertouch <noteid> <target_name> <value>;
#X obj 89 162 unpack f f;
#X obj 89 232 +;
#X obj 89 132 list append 0;
#X connect 1 0 2 0;
#X connect 2 0 4 0;
#X connect 3 0 12 0;
#X connect 4 0 3 0;
#X connect 5 0 17 0;
#X connect 6 0 8 1;
#X connect 7 0 9 0;
#X connect 8 0 7 0;
#X connect 9 0 10 0;
#X connect 10 0 0 0;
#X connect 11 0 7 1;
#X connect 12 0 18 0;
#X connect 13 0 12 1;
#X connect 14 0 5 1;
#X connect 16 0 5 0;
#X connect 16 1 17 1;
#X connect 17 0 8 0;
#X connect 18 0 16 0;
#X restore 372 452 pd param1;
#N canvas 0 50 450 524 param2 0;
#X obj 90 369 outlet;
#X obj 93 28 list prepend \$0;
#X obj 89 78 iemlib/iem_receive;
#X msg 89 53 set \$1-\$2;
#X obj 89 213 *;
#X obj 89 305 list prepend <noteid>;
#X obj 89 265 list prepend <target>;
#X obj 89 327 list prepend aftertouch;
#X obj 89 349 list trim;
#X obj 244 284 r \$0-note-id;
#X obj 89 110 spigot;
#X obj 93 4 r \$2-value2;
#X obj 157 106 r \$2-enable2;
#X obj 226 80 r \$2-target2;
#X obj 107 190 r \$2-mul2;
#X obj 369 210 *;
#X obj 387 187 r \$2-mul1;
#X obj 369 162 unpack f f;
#X obj 369 232 +;
#X obj 369 132 list append 0;
#X obj 89 169 unpack f f;
#X obj 89 239 +;
#X obj 89 139 list append 0;
#X connect 1 0 3 0;
#X connect 2 0 10 0;
#X connect 3 0 2 0;
#X connect 4 0 21 0;
#X connect 5 0 7 0;
#X connect 6 0 5 0;
#X connect 7 0 8 0;
#X connect 8 0 0 0;
#X connect 9 0 5 1;
#X connect 10 0 22 0;
#X connect 11 0 1 0;
#X connect 12 0 10 1;
#X connect 13 0 6 1;
#X connect 14 0 4 1;
#X connect 15 0 18 0;
#X connect 16 0 15 1;
#X connect 17 0 15 0;
#X connect 17 1 18 1;
#X connect 19 0 17 0;
#X connect 20 0 4 0;
#X connect 20 1 21 1;
#X connect 21 0 6 0;
#X connect 22 0 20 0;
#X restore 372 472 pd param2;
#N canvas 0 50 450 300 param3 0;
#X obj 90 359 outlet;
#X obj 93 28 list prepend \$0;
#X obj 89 78 iemlib/iem_receive;
#X msg 89 53 set \$1-\$2;
#X obj 89 215 *;
#X obj 89 295 list prepend <noteid>;
#X obj 89 266 list prepend <target>;
#X obj 89 317 list prepend aftertouch;
#X obj 89 339 list trim;
#X obj 244 274 r \$0-note-id;
#X obj 89 110 spigot;
#X obj 93 4 r \$2-value3;
#X obj 233 225 r \$2-target3;
#X obj 157 106 r \$2-enable3;
#X obj 107 192 r \$2-mul3;
#X obj 89 169 unpack f f;
#X obj 89 239 +;
#X obj 89 139 list append 0;
#X connect 1 0 3 0;
#X connect 2 0 10 0;
#X connect 3 0 2 0;
#X connect 4 0 16 0;
#X connect 5 0 7 0;
#X connect 6 0 5 0;
#X connect 7 0 8 0;
#X connect 8 0 0 0;
#X connect 9 0 5 1;
#X connect 10 0 17 0;
#X connect 11 0 1 0;
#X connect 12 0 6 1;
#X connect 13 0 10 1;
#X connect 14 0 4 1;
#X connect 15 0 4 0;
#X connect 15 1 16 1;
#X connect 16 0 6 0;
#X connect 17 0 15 0;
#X restore 372 492 pd param3;
#X obj 470 240 unpack f f;
#X obj 470 284 *;
#X obj 539 316 *;
#X obj 470 346 +;
#X obj 470 368 /;
#X msg 380 214 \$7;
#X text 412 215 area;
#X obj 470 430 * 3.142;
#X obj 566 502 /;
#X msg 628 290 \$3;
#X obj 588 435 /;
#X msg 698 290 \$4;
#X text 615 312 width;
#X text 696 310 height;
#X obj 210 215 /;
#X obj 81 263 select 0;
#X obj 82 322 t f f;
#X obj 114 342 int;
#X obj 82 374 -;
#X msg 82 397 get_index \$1;
#X obj 81 241 mod 12;
#X obj 110 212 r \$2-debit;
#X msg 208 177 1 \$1;
#X obj 534 542 s \$0-x-x0;
#X obj 634 479 s \$0-y-y0;
#X obj 470 452 s \$0-r/r0;
#X obj 190 257 *;
#X obj 82 300 f;
#X obj 653 366 atan2;
#X obj 704 460 s \$0-angle;
#X obj 653 388 * -0.2;
#X obj 464 485 /;
#X msg 426 451 1 \$1;
#X obj 464 507 s \$0-r0/r;
#X obj 270 318 t f f f;
#X obj 762 299 s \$0-X0;
#X obj 772 209 s \$0-Y0;
#X obj 36 514 s \$2-blob\$1_display;
#X msg 173 450 0;
#X obj 470 390 sqrt;
#X floatatom 470 412 5 0 0 0 - - -, f 5;
#X obj 380 236 abs;
#X obj 933 53 r \$2-container_params;
#X text 1078 148 container.height;
#X text 1006 112 container.cog.y;
#X obj 693 156 - 240;
#X msg 693 134 \$2;
#X obj 772 187 / 480;
#X obj 933 75 unpack f f f f;
#X floatatom 962 113 5 0 0 0 - - -, f 5;
#X floatatom 933 97 5 0 0 0 - - -, f 5;
#X floatatom 997 130 5 0 0 0 - - -, f 5;
#X floatatom 1033 148 5 0 0 0 - - -, f 5;
#X msg 652 191 \$1;
#X obj 652 213 - 320;
#X obj 762 273 / 640;
#X obj 945 340 unpack f f;
#X obj 1081 280 r \$2-container_params;
#X obj 1081 302 unpack f f f f;
#X obj 945 362 -;
#X obj 1004 364 -;
#X text 1051 362 blob.cog.x - container.cog.x;
#X obj 913 401 +;
#X obj 999 405 +;
#X obj 913 423 / 640;
#X obj 999 427 / 480;
#X obj 470 262 t f f f f;
#X obj 539 294 t f f f f;
#X obj 913 445 s \$0-x;
#X obj 999 449 s \$0-y;
#N canvas 0 50 450 300 delta 0;
#X msg 160 191 \$6;
#X text 74 32 cog.x cog.y width height angle perimeter area;
#X text 220 147 blob.perimeter;
#X obj 181 311 outlet;
#X obj 173 111 inlet;
#X obj 181 241 *;
#X obj 181 283 + 1;
#X obj 181 333 r \$2-delta;
#X obj 273 189 r \$2-delta;
#X obj 164 216 / 640;
#X obj 273 211 t b f;
#X obj 181 263 spigot;
#X obj 173 133 t l b;
#X msg 222 207 1;
#X obj 297 110 inlet;
#X msg 297 132 0;
#X connect 0 0 9 0;
#X connect 4 0 12 0;
#X connect 5 0 11 0;
#X connect 6 0 3 0;
#X connect 8 0 10 0;
#X connect 9 0 5 0;
#X connect 10 0 5 0;
#X connect 10 1 5 1;
#X connect 11 0 6 0;
#X connect 12 0 0 0;
#X connect 12 1 13 0;
#X connect 13 0 11 1;
#X connect 14 0 15 0;
#X connect 15 0 11 1;
#X restore 189 64 pd delta;
#X obj 92 78 * 1;
#X obj 92 100 int;
#X obj 179 96 t b f;
#X obj 654 535 pack f f;
#X obj 654 557 s \$0-x0+(x-x0)*;
#X obj 844 535 pack f f;
#X obj 844 557 s \$0-y0+(y-y0)*;
#X connect 0 0 8 0;
#X connect 3 0 7 0;
#X connect 4 0 10 0;
#X connect 5 0 14 0;
#X connect 6 0 10 0;
#X connect 7 0 47 0;
#X connect 7 1 53 0;
#X connect 8 0 4 0;
#X connect 8 0 18 0;
#X connect 8 0 36 0;
#X connect 8 0 38 0;
#X connect 8 0 73 0;
#X connect 8 0 80 0;
#X connect 8 0 32 0;
#X connect 8 0 83 0;
#X connect 8 0 97 0;
#X connect 8 1 6 0;
#X connect 8 1 22 0;
#X connect 8 1 97 1;
#X connect 8 2 11 0;
#X connect 11 0 27 0;
#X connect 12 0 11 1;
#X connect 13 0 3 1;
#X connect 14 0 3 0;
#X connect 15 0 98 0;
#X connect 16 0 15 0;
#X connect 18 0 61 0;
#X connect 19 0 9 0;
#X connect 20 0 9 0;
#X connect 21 0 20 0;
#X connect 22 0 21 0;
#X connect 22 0 65 0;
#X connect 24 0 9 0;
#X connect 25 0 9 0;
#X connect 26 0 9 0;
#X connect 27 0 93 0;
#X connect 27 1 94 0;
#X connect 28 0 30 0;
#X connect 29 0 30 1;
#X connect 30 0 31 0;
#X connect 31 0 66 0;
#X connect 32 0 68 0;
#X connect 34 0 52 0;
#X connect 34 0 59 0;
#X connect 35 0 50 0;
#X connect 35 0 101 0;
#X connect 36 0 35 1;
#X connect 37 0 51 0;
#X connect 37 0 103 0;
#X connect 38 0 37 1;
#X connect 41 0 53 1;
#X connect 42 0 54 0;
#X connect 43 0 45 0;
#X connect 43 1 44 0;
#X connect 44 0 45 1;
#X connect 45 0 46 0;
#X connect 46 0 2 0;
#X connect 47 0 42 0;
#X connect 48 0 47 1;
#X connect 49 0 41 0;
#X connect 53 0 54 1;
#X connect 54 0 43 0;
#X connect 55 0 57 0;
#X connect 57 0 56 0;
#X connect 58 0 60 0;
#X connect 59 0 58 0;
#X connect 61 0 64 0;
#X connect 61 0 19 0;
#X connect 61 1 23 0;
#X connect 61 2 21 1;
#X connect 65 0 64 0;
#X connect 66 0 34 0;
#X connect 66 0 67 0;
#X connect 68 0 31 1;
#X connect 69 0 75 0;
#X connect 72 0 74 0;
#X connect 73 0 72 0;
#X connect 74 0 63 0;
#X connect 74 0 103 1;
#X connect 75 0 77 0;
#X connect 75 0 81 1;
#X connect 75 1 72 1;
#X connect 75 1 76 0;
#X connect 75 2 78 0;
#X connect 75 2 82 1;
#X connect 75 2 91 1;
#X connect 75 3 74 1;
#X connect 75 3 79 0;
#X connect 75 3 92 1;
#X connect 80 0 81 0;
#X connect 81 0 82 0;
#X connect 82 0 62 0;
#X connect 82 0 101 1;
#X connect 83 0 86 0;
#X connect 83 1 87 0;
#X connect 84 0 85 0;
#X connect 85 0 86 1;
#X connect 85 1 87 1;
#X connect 86 0 89 1;
#X connect 87 0 90 1;
#X connect 89 0 91 0;
#X connect 90 0 92 0;
#X connect 91 0 95 0;
#X connect 92 0 96 0;
#X connect 93 0 28 0;
#X connect 93 1 28 1;
#X connect 93 2 35 0;
#X connect 93 2 55 0;
#X connect 93 3 89 0;
#X connect 94 0 29 0;
#X connect 94 1 29 1;
#X connect 94 2 37 0;
#X connect 94 2 55 1;
#X connect 94 3 90 0;
#X connect 97 0 100 0;
#X connect 98 0 99 0;
#X connect 99 0 49 0;
#X connect 99 0 14 1;
#X connect 100 0 98 0;
#X connect 100 1 98 1;
#X connect 101 0 102 0;
#X connect 103 0 104 0;
