#N canvas 327 32 878 619 10;
#X obj 270 11 inlet;
#X text 444 7 blob 0 add 380.201 334.797 60.3974 8.47717 -23.0513 142.326
;
#X obj 54 427 outlet;
#X msg 189 152 \$6;
#X obj 50 167 spigot;
#X msg 351 81 1;
#X obj 83 6 inlet clock;
#X msg 349 62 0;
#X obj 50 189 t f f;
#X obj 154 181 /;
#X obj 51 293 select 0;
#X obj 52 330 f;
#X obj 52 352 t f f;
#X obj 81 377 int;
#X obj 52 374 -;
#X msg 52 397 get_index \$1;
#X obj 270 36 route add remove value@index;
#X obj 51 271 mod 12;
#X obj 355 280 unpack f f;
#X obj 355 302 t f f;
#X obj 424 304 t f f;
#X obj 355 324 *;
#X obj 424 326 *;
#X obj 355 346 +;
#X obj 355 368 /;
#X obj 355 474 int;
#X text 540 32 cog.x cog.y width height angle perimeter area;
#X obj 355 496 + 1;
#X obj 356 453 * 12;
#X obj 266 575 pack f f;
#X obj 263 598 outlet;
#X obj 196 422 r \$2-ambitus;
#X obj 443 449 r \$2-root_key;
#X msg 489 476 \$2;
#X floatatom 433 488 5 0 0 0 - - -, f 5;
#X obj 489 561 *;
#X obj 489 583 int;
#X obj 355 518 +;
#X obj 203 180 r \$2-measure;
#X obj 154 203 / 1;
#X obj 203 202 / 8;
#X obj 203 224 sqrt;
#X text 528 494 y;
#X text 279 391 ______;
#X text 284 406 area;
#X text 225 354 quand le contour;
#X text 222 368 est un cercle :;
#X text 238 389 unité=r²*pi;
#X obj 355 409 rmstodb;
#X obj 740 461 rmstodb;
#X floatatom 740 483 5 0 0 0 - - -, f 5;
#X floatatom 726 411 5 0 0 0 - - -, f 5;
#X obj 355 431 - 100;
#X obj 726 430 sqrt;
#X obj 577 548 r \$2-y_transpose;
#X obj 345 108 s \$0-active;
#X obj 352 244 spigot;
#X obj 395 218 r \$0-active;
#X obj 87 133 r \$0-active;
#X obj 526 397 r \$2-container_params;
#X obj 490 499 -;
#X msg 539 437 \$2;
#X msg 569 482 \$4;
#X text 605 481 container.height;
#X text 570 438 container.cog.y;
#X obj 490 515 / 240;
#X obj 55 246 r \$0-debit;
#N canvas 679 53 633 562 calcul_debit 0;
#X obj 97 34 inlet add_blob;
#X msg 126 85 \$1;
#X obj 91 302 select 0 1 2 3 4;
#X obj 156 44 r \$2-container_params;
#X msg 177 117 \$3;
#X text 208 115 container.width;
#X obj 143 136 / 320;
#X obj 126 107 -;
#X msg 157 82 \$1;
#X text 201 82 blob.cog.x - container.cog.x;
#X text 201 134 normalisation;
#X obj 60 448 outlet;
#X text 444 273 24 noire;
#X text 448 344 12 croche;
#X text 441 302 18 croche pointée;
#X text 449 327 16 triolet noire;
#X text 442 439 6 double;
#X text 445 392 9 double pointée;
#X text 442 412 8 triolet croche;
#X text 440 166 48 blanche;
#X text 439 199 36 noire pointée;
#X text 452 226 32 triolet blanche;
#X text 451 248 30 valeur de 5 double;
#X text 449 466 4 triolet double;
#X floatatom 219 156 5 0 0 0 - - -, f 5;
#X floatatom 191 98 5 0 0 0 - - -, f 5;
#X obj 143 178 + 0.5;
#X obj 143 156 * 1.2;
#X text 59 160 margins;
#X obj 220 198 min 1;
#X obj 147 243 * 4;
#X obj 141 270 int;
#X obj 147 221 max 0.25;
#X floatatom 143 200 5 0 0 0 - - -, f 5;
#X msg 91 324 24;
#X msg 114 355 18;
#X msg 138 376 12;
#X msg 162 396 8;
#X msg 197 404 6;
#X connect 0 0 1 0;
#X connect 1 0 7 0;
#X connect 2 0 34 0;
#X connect 2 1 35 0;
#X connect 2 2 36 0;
#X connect 2 3 37 0;
#X connect 2 4 38 0;
#X connect 3 0 4 0;
#X connect 3 0 8 0;
#X connect 4 0 6 1;
#X connect 4 0 24 0;
#X connect 6 0 27 0;
#X connect 7 0 6 0;
#X connect 8 0 7 1;
#X connect 8 0 25 0;
#X connect 26 0 29 0;
#X connect 26 0 33 0;
#X connect 27 0 26 0;
#X connect 29 0 32 0;
#X connect 30 0 31 0;
#X connect 31 0 2 0;
#X connect 32 0 30 0;
#X connect 34 0 11 0;
#X connect 35 0 11 0;
#X connect 36 0 11 0;
#X connect 37 0 11 0;
#X connect 38 0 11 0;
#X restore 158 79 pd calcul_debit;
#X obj 158 101 s \$0-debit;
#X obj 239 211 r \$0-debit;
#X obj 239 233 sqrt;
#X obj 147 234 / 1;
#X obj 239 255 / 2;
#X floatatom 424 547 5 0 0 0 - - -, f 5;
#X floatatom 538 466 5 0 0 0 - - -, f 5;
#X floatatom 569 504 5 0 0 0 - - -, f 5;
#X floatatom 577 570 5 0 0 0 - - -, f 5;
#X obj 490 537 * -2.3;
#X obj 17 101 mod 24;
#X obj 92 56 * 24;
#X obj 93 34 r \$2-measure;
#X obj 92 78 t b f;
#X obj 92 100 *;
#X text 220 147 blob.perimeter;
#X floatatom 426 421 5 0 0 0 - - -, f 5;
#X obj 237 501 min 24;
#X obj 237 523 max -24;
#X floatatom 20 211 5 0 0 0 - - -, f 5;
#X floatatom 0 276 5 0 0 0 - - -, f 5;
#X msg 99 228 3;
#X obj 239 277 int;
#X obj 236 303 max 1;
#X msg 271 255 \$6;
#X text 297 255 perimeter;
#X obj 279 280 / 6.28;
#X obj 279 302 t f f;
#X obj 279 324 *;
#X obj 266 553 makenote 100 400;
#X obj 596 181 r \$2-sustain;
#X connect 0 0 16 0;
#X connect 3 0 9 1;
#X connect 4 0 8 0;
#X connect 5 0 55 0;
#X connect 6 0 78 0;
#X connect 7 0 55 0;
#X connect 8 0 17 0;
#X connect 8 0 87 0;
#X connect 8 1 9 0;
#X connect 9 0 39 0;
#X connect 10 0 11 0;
#X connect 11 0 12 0;
#X connect 12 0 14 0;
#X connect 12 1 13 0;
#X connect 13 0 14 1;
#X connect 14 0 15 0;
#X connect 15 0 2 0;
#X connect 16 0 3 0;
#X connect 16 0 5 0;
#X connect 16 0 92 0;
#X connect 16 0 33 0;
#X connect 16 0 67 0;
#X connect 16 1 7 0;
#X connect 16 2 56 0;
#X connect 17 0 10 0;
#X connect 17 0 88 0;
#X connect 18 0 19 0;
#X connect 18 1 20 0;
#X connect 19 0 21 0;
#X connect 19 1 21 1;
#X connect 20 0 22 0;
#X connect 20 1 22 1;
#X connect 21 0 23 0;
#X connect 22 0 23 1;
#X connect 23 0 24 0;
#X connect 24 0 48 0;
#X connect 25 0 84 0;
#X connect 25 0 85 0;
#X connect 27 0 37 0;
#X connect 28 0 25 0;
#X connect 29 0 30 0;
#X connect 31 0 28 1;
#X connect 32 0 27 1;
#X connect 33 0 34 0;
#X connect 33 0 60 0;
#X connect 35 0 36 0;
#X connect 36 0 37 1;
#X connect 37 0 97 0;
#X connect 38 0 40 0;
#X connect 39 0 71 0;
#X connect 40 0 41 0;
#X connect 41 0 39 1;
#X connect 48 0 52 0;
#X connect 49 0 50 0;
#X connect 51 0 53 0;
#X connect 52 0 28 0;
#X connect 53 0 49 0;
#X connect 54 0 35 1;
#X connect 54 0 76 0;
#X connect 56 0 18 0;
#X connect 57 0 56 1;
#X connect 58 0 4 1;
#X connect 59 0 61 0;
#X connect 59 0 62 0;
#X connect 60 0 65 0;
#X connect 61 0 60 1;
#X connect 61 0 74 0;
#X connect 62 0 65 1;
#X connect 62 0 75 0;
#X connect 65 0 73 0;
#X connect 65 0 77 0;
#X connect 66 0 17 1;
#X connect 67 0 68 0;
#X connect 69 0 70 0;
#X connect 70 0 72 0;
#X connect 71 0 11 1;
#X connect 72 0 71 1;
#X connect 72 0 90 0;
#X connect 77 0 35 0;
#X connect 78 0 4 0;
#X connect 79 0 81 0;
#X connect 80 0 79 0;
#X connect 81 0 82 0;
#X connect 81 1 82 1;
#X connect 82 0 78 1;
#X connect 85 0 86 0;
#X connect 86 0 27 0;
#X connect 90 0 91 0;
#X connect 91 0 82 0;
#X connect 92 0 94 0;
#X connect 94 0 95 0;
#X connect 95 0 96 0;
#X connect 95 1 96 1;
#X connect 96 0 24 1;
#X connect 97 0 29 0;
#X connect 97 1 29 1;
#X connect 98 0 97 2;
