#N canvas 233 50 878 619 10;
#X obj 270 11 inlet;
#X text 376 3 blob 0 add 380.201 334.797 60.3974 8.47717 -23.0513 142.326
;
#X obj 82 427 outlet;
#X obj 50 167 spigot;
#X msg 351 81 1;
#X obj 83 6 inlet clock;
#X msg 349 62 0;
#X obj 50 189 t f f;
#X obj 270 36 route add remove value@index;
#X obj 327 560 outlet;
#X obj 345 108 s \$0-active;
#X obj 392 174 spigot;
#X obj 435 148 r \$0-active;
#X obj 87 133 r \$0-active;
#X obj 17 101 mod 24;
#X obj 89 57 * 24;
#X obj 93 34 r \$2-measure;
#X obj 334 387 f \$1;
#X obj 334 244 t b;
#X obj 210 215 /;
#X obj 81 263 select 0;
#X obj 82 322 t f f;
#X obj 114 342 int;
#X obj 82 374 -;
#X msg 82 397 get_index \$1;
#X obj 81 241 mod 12;
#X obj 110 212 r \$2-debit;
#X msg 208 177 1 \$1;
#X obj 190 257 *;
#X obj 82 300 f;
#N canvas 279 108 607 510 normalisation 0;
#X obj 100 257 outlet;
#X obj 105 70 unpack f f;
#X obj 241 10 r \$2-container_params;
#X obj 241 32 unpack f f f f;
#X obj 105 92 -;
#X obj 164 94 -;
#X obj 105 114 /;
#X obj 164 116 /;
#X text 236 129 pseudo normaisation -0.5 ... 0.5;
#X obj 105 200 max 0;
#X obj 164 202 max 0;
#X text 211 92 blob.cog.x - container.cog.x;
#X obj 105 136 + 0.5;
#X obj 164 138 + 0.5;
#X obj 103 176 min 1;
#X obj 164 180 min 1;
#X obj 495 80 unpack f f;
#X obj 631 20 r \$2-container_params;
#X obj 631 42 unpack f f f f;
#X obj 495 124 /;
#X obj 554 126 /;
#X text 626 139 pseudo normaisation -0.5 ... 0.5;
#X obj 495 210 max 0;
#X obj 554 212 max 0;
#X text 601 102 blob.cog.x - container.cog.x;
#X obj 495 146 + 0.5;
#X obj 554 148 + 0.5;
#X obj 493 186 min 1;
#X obj 554 190 min 1;
#X obj 107 40 inlet add;
#X obj 497 50 inlet update;
#X obj 105 222 pack f f;
#X obj 480 257 outlet;
#X obj 495 232 pack f f;
#X connect 1 0 4 0;
#X connect 1 1 5 0;
#X connect 2 0 3 0;
#X connect 3 0 4 1;
#X connect 3 1 5 1;
#X connect 3 2 6 1;
#X connect 3 3 7 1;
#X connect 4 0 6 0;
#X connect 5 0 7 0;
#X connect 6 0 12 0;
#X connect 7 0 13 0;
#X connect 9 0 31 0;
#X connect 10 0 31 1;
#X connect 12 0 14 0;
#X connect 12 0 25 1;
#X connect 13 0 15 0;
#X connect 13 0 26 1;
#X connect 14 0 9 0;
#X connect 15 0 10 0;
#X connect 16 0 19 0;
#X connect 16 1 20 0;
#X connect 17 0 18 0;
#X connect 18 2 19 1;
#X connect 18 3 20 1;
#X connect 19 0 25 0;
#X connect 20 0 26 0;
#X connect 22 0 33 0;
#X connect 23 0 33 1;
#X connect 25 0 27 0;
#X connect 26 0 28 0;
#X connect 27 0 22 0;
#X connect 28 0 23 0;
#X connect 29 0 1 0;
#X connect 30 0 16 0;
#X connect 31 0 0 0;
#X connect 33 0 32 0;
#X restore 270 274 pd normalisation;
#X obj 324 517 list prepend touchEvent \$1;
#X obj 326 538 list trim;
#X obj 270 58 t a b;
#X obj 270 296 list prepend addCursor \$1;
#X obj 380 336 list prepend updateCursor \$1;
#X msg 333 409 removeCursor \$1;
#N canvas 0 50 450 300 delta 0;
#X msg 160 191 \$6;
#X text 74 32 cog.x cog.y width height angle perimeter area;
#X text 220 147 blob.perimeter;
#X obj 181 311 outlet;
#X obj 173 111 inlet;
#X obj 181 241 *;
#X obj 181 283 + 1;
#X obj 181 333 r \$2-delta;
#X obj 273 189 r \$2-delta;
#X obj 164 216 / 640;
#X obj 273 211 t b f;
#X obj 181 263 spigot;
#X obj 173 133 t l b;
#X msg 222 207 1;
#X obj 297 110 inlet;
#X msg 297 132 0;
#X connect 0 0 9 0;
#X connect 4 0 12 0;
#X connect 5 0 11 0;
#X connect 6 0 3 0;
#X connect 8 0 10 0;
#X connect 9 0 5 0;
#X connect 10 0 5 0;
#X connect 10 1 5 1;
#X connect 11 0 6 0;
#X connect 12 0 0 0;
#X connect 12 1 13 0;
#X connect 13 0 11 1;
#X connect 14 0 15 0;
#X connect 15 0 11 1;
#X restore 189 64 pd delta;
#X obj 92 78 * 1;
#X obj 179 96 t b f;
#X obj 92 100 int;
#X connect 0 0 8 0;
#X connect 3 0 7 0;
#X connect 4 0 10 0;
#X connect 5 0 14 0;
#X connect 6 0 10 0;
#X connect 7 0 25 0;
#X connect 7 1 28 0;
#X connect 8 0 33 0;
#X connect 8 0 37 0;
#X connect 8 1 6 0;
#X connect 8 1 18 0;
#X connect 8 1 37 1;
#X connect 8 2 11 0;
#X connect 11 0 30 1;
#X connect 12 0 11 1;
#X connect 13 0 3 1;
#X connect 14 0 3 0;
#X connect 15 0 27 0;
#X connect 15 0 38 0;
#X connect 16 0 15 0;
#X connect 17 0 36 0;
#X connect 18 0 17 0;
#X connect 19 0 28 1;
#X connect 20 0 29 0;
#X connect 21 0 23 0;
#X connect 21 1 22 0;
#X connect 22 0 23 1;
#X connect 23 0 24 0;
#X connect 24 0 2 0;
#X connect 25 0 20 0;
#X connect 26 0 25 1;
#X connect 27 0 19 0;
#X connect 28 0 29 1;
#X connect 29 0 21 0;
#X connect 30 0 34 0;
#X connect 30 1 35 0;
#X connect 31 0 32 0;
#X connect 32 0 9 0;
#X connect 33 0 30 0;
#X connect 33 1 4 0;
#X connect 34 0 31 0;
#X connect 35 0 31 0;
#X connect 36 0 31 0;
#X connect 37 0 39 0;
#X connect 38 0 40 0;
#X connect 39 0 38 0;
#X connect 39 1 38 1;
#X connect 40 0 14 1;
