#N canvas 45 342 925 367 16;
#X text 65 7 activate local mode for current patch;
#X text 64 105 define local instance of MASTER busses;
#X obj 123 68 pdr/core/glocal/glocal.space \$1;
#X obj 125 143 pdr/core/rj/c_bus \$1-MASTER-l;
#X obj 125 173 pdr/core/rj/c_bus \$1-MASTER-r;
#N canvas 297 633 859 352 savestate 0;
#X obj 140 92 savestate;
#X obj 205 124 s \$0-savestate;
#X obj 141 46 r \$0-savestate-dump;
#X obj 140 169 list trim;
#X obj 547 15 r \$0-savestate;
#X obj 547 40 t b b;
#X msg 585 77 line 0;
#X obj 554 173 s \$0-savestate-dump;
#N canvas 0 50 450 300 modules 0;
#X obj 55 18 inlet;
#X obj 52 76 list;
#X obj 52 101 t l b;
#X msg 128 134 1e+09;
#X obj 54 169 text insert \$1-modules_sets;
#X connect 0 0 1 0;
#X connect 1 0 2 0;
#X connect 2 0 4 0;
#X connect 2 1 3 0;
#X connect 3 0 4 1;
#X restore 173 232 pd modules;
#X obj 551 115 text sequence \$1-modules_sets;
#X obj 551 140 list prepend modules_set;
#X obj 140 194 route modules_set;
#X connect 0 0 3 0;
#X connect 0 1 1 0;
#X connect 2 0 0 0;
#X connect 3 0 11 0;
#X connect 4 0 5 0;
#X connect 5 0 9 0;
#X connect 5 1 6 0;
#X connect 6 0 9 0;
#X connect 9 0 10 0;
#X connect 10 0 7 0;
#X connect 11 0 8 0;
#X restore 602 121 pd savestate;
#X obj 601 231 v \$1-u_glocal;
#X obj 601 174 loadbang;
#X msg 601 203 1;
#X text 767 56 modules à charger;
#N canvas 416 113 718 686 glocal.dollarzero 0;
#X obj 379 7 loadbang;
#X obj 379 66 v GLOCAL.current;
#X obj 379 95 select 0;
#X obj 155 66 spigot 1;
#X msg 456 146 0;
#X text 501 28 hot plug;
#X obj 380 36 delay 1;
#X obj 155 37 r GLOCAL.base;
#X obj 155 101 moses \$0;
#X obj 155 150 max;
#X obj 155 179 t f f;
#X obj 234 229 outlet;
#X connect 0 0 6 0;
#X connect 1 0 2 0;
#X connect 2 1 4 0;
#X connect 2 1 11 0;
#X connect 3 0 8 0;
#X connect 4 0 3 1;
#X connect 6 0 1 0;
#X connect 7 0 3 0;
#X connect 8 0 9 0;
#X connect 9 0 10 0;
#X connect 10 0 11 0;
#X connect 10 1 9 1;
#X restore 119 236 pd glocal.dollarzero;
#X obj 115 306 array define SLOTS_MAP;
#X msg 118 272 rename \$1-SLOTS_MAP;
#X obj 796 208 r \$1-remote;
#X obj 764 266 s;
#X obj 603 77 text define \$1-modules_sets;
#X obj 440 314 onlyone AUDIO_BUS PdRacks.audio_bus;
#X connect 7 0 8 0;
#X connect 8 0 6 0;
#X connect 10 0 12 0;
#X connect 12 0 11 0;
#X connect 13 0 14 1;
#X connect 15 1 14 0;
