#N canvas 183 439 690 530 16;
#X obj 73 401 v;
#X obj 46 46 inlet;
#X obj 429 7 loadbang;
#X obj 429 66 v GLOCAL.current;
#X obj 429 95 select 0;
#X obj 205 66 spigot 1;
#X msg 469 168 0;
#X text 551 28 hot plug;
#X obj 430 36 delay 1;
#X obj 205 37 r GLOCAL.base;
#X obj 205 101 moses \$0;
#X obj 205 150 max;
#X obj 100 445 outlet;
#X obj 227 253 list append \$1;
#X msg 205 288 symbol \$1-\$2;
#X obj 239 374 v \$1;
#X obj 38 283 spigot;
#X obj 212 330 spigot 1;
#X obj 205 179 t f f b;
#X msg 110 245 1;
#X msg 404 251 0, f 5;
#X obj 305 180 t f b;
#X obj 360 336 symbol \$0-nop;
#X obj 92 355 symbol \$1;
#X obj 38 312 t a b;
#X connect 0 0 12 0;
#X connect 1 0 16 0;
#X connect 1 0 17 0;
#X connect 2 0 8 0;
#X connect 2 0 22 0;
#X connect 3 0 4 0;
#X connect 4 1 21 0;
#X connect 5 0 10 0;
#X connect 6 0 5 1;
#X connect 8 0 3 0;
#X connect 9 0 5 0;
#X connect 10 0 11 0;
#X connect 11 0 18 0;
#X connect 13 0 14 0;
#X connect 14 0 23 0;
#X connect 15 0 12 0;
#X connect 16 0 24 0;
#X connect 17 0 15 0;
#X connect 18 0 13 0;
#X connect 18 1 11 1;
#X connect 18 2 20 0;
#X connect 18 2 19 0;
#X connect 19 0 16 1;
#X connect 20 0 17 1;
#X connect 21 0 13 0;
#X connect 21 1 6 0;
#X connect 21 1 20 0;
#X connect 21 1 19 0;
#X connect 23 0 0 1;
#X connect 24 0 0 0;
#X connect 24 1 23 0;
