#N struct 1569-symarray float x array symbols 1569-sym;
#N struct 1569-sym symbol name float on;
#N canvas 293 350 1158 668 10;
#X declare -path pdr/core;
#X declare -path pdr/core/stuff;
#X declare -path pdr/core/rj;
#X obj 526 524 inlet~;
#X obj 523 548 outlet~;
#X obj 586 524 inlet~;
#X obj 583 548 outlet~;
#X obj 664 360 inlet data;
#X obj 664 550 outlet data;
#X obj 101 101 cnv 15 188 68 empty \$0-background data_cyclogroove-0
0 7 0 12 -262144 -1 0;
#N canvas 0 50 909 300 gestion_messages(data_feuille) 0;
#X obj 88 23 inlet;
#X obj 82 231 s \$0-enable-rcv;
#X msg 82 186 0;
#X msg 124 202 1;
#X obj 130 168 s TO_VIDEO;
#X msg 97 112 CYCLO listen_off;
#X msg 162 139 CYCLO listen_to_tracker \$1;
#X obj 78 73 route off listen_to_tracker params;
#X obj 293 108 s \$0-container_params;
#X text 503 93 \$0-container_params;
#X text 510 126 cogx cogy width height angle (Area IsHole Perimeter).....
;
#X connect 0 0 7 0;
#X connect 2 0 1 0;
#X connect 3 0 1 0;
#X connect 5 0 4 0;
#X connect 6 0 4 0;
#X connect 7 0 2 0;
#X connect 7 0 5 0;
#X connect 7 1 3 0;
#X connect 7 1 6 0;
#X connect 7 2 8 0;
#X restore 692 412 pd gestion_messages(data_feuille);
#X obj 755 83 r CYCLOGROOVE;
#X obj 755 105 spigot;
#X obj 733 47 r \$0-busy;
#X obj 594 73 r CLOCK;
#X obj 594 95 spigot;
#X obj 339 53 s \$0-busy;
#X msg 327 28 1;
#X obj 773 491 u_parameter \$0 beat;
#X obj 238 14 vradio 14 1 0 4 \$0-beat \$0-beat-rcv empty 0 -8 0 10
-4032 -260097 -1 0;
#X text 250 54 1/16;
#X text 250 13 1/4;
#X text 250 28 1/8;
#X text 250 42 1/12;
#X obj 102 114 bng 18 250 50 0 \$0-dec_quarters empty empty 17 7 0
10 -262144 -1 -1;
#X obj 120 114 bng 18 250 50 0 \$0-inc_quarters empty empty 17 7 0
10 -262144 -1 -1;
#X obj 773 472 u_dispatch \$0 measure;
#X obj 100 115 ui_vs \$0 measure 1 64;
#X obj 101 154 cnv 13 36 13 empty empty empty 20 12 0 14 -262130 -66577
0;
#X text 106 113 -|+;
#X floatatom 101 152 5 0 0 0 - #0-measure_display-rcv -;
#X obj 452 33 namecanvas \$0-multitab;
#X obj 101 301 cnv 15 188 68 empty \$0-background data_cyclogroove-0
0 7 0 12 -262144 -1 0;
#X obj 101 201 cnv 15 188 68 empty \$0-background data_cyclogroove-0
0 7 0 12 -262144 -1 0;
#X obj 230 200 hradio 15 1 0 2 \$0-guitab_mode0 \$0-guitab_mode0-rcv
empty 0 -8 0 10 -191407 -1 -1 0;
#X obj 450 13 ui_multitab \$0;
#X obj 773 434 module_loader data_cyclogroove \$0 \$1;
#X obj 230 300 hradio 15 1 0 3 \$0-guitab_mode1 \$0-guitab_mode1-rcv
empty 0 -8 0 10 -191407 -1 -1 0;
#X obj 101 401 cnv 15 188 68 empty \$0-background data_cyclogroove-0
0 7 0 12 -262144 -1 0;
#X obj 230 400 hradio 15 1 0 3 \$0-guitab_mode1 \$0-guitab_mode1-rcv
empty 0 -8 0 10 -191407 -1 -1 0;
#N canvas 0 50 521 498 gestion_affichage_mesures 0;
#X obj 183 103 +;
#X msg 100 98 1;
#X msg 35 149 -1;
#X obj 32 122 r \$0-dec_quarters;
#X obj 42 72 r \$0-inc_quarters;
#X obj 314 202 r QUANTUM;
#X obj 215 201 t b f;
#X obj 215 223 f;
#X obj 181 323 +;
#X obj 273 291 mod 4;
#X obj 194 285 div 4;
#X obj 215 245 t f f;
#X obj 273 341 / 10;
#X obj 183 125 max 1;
#X obj 36 23 round_param \$0 measure;
#X obj 185 79 r \$0-measure;
#X obj 71 227 s \$0-measure;
#X obj 213 160 r \$0-measure;
#X obj 174 402 s \$0-measure_display-rcv;
#X connect 0 0 13 0;
#X connect 1 0 0 0;
#X connect 2 0 0 0;
#X connect 3 0 2 0;
#X connect 4 0 1 0;
#X connect 5 0 6 0;
#X connect 6 0 7 0;
#X connect 6 1 9 1;
#X connect 6 1 10 1;
#X connect 7 0 11 0;
#X connect 8 0 18 0;
#X connect 9 0 12 0;
#X connect 10 0 8 0;
#X connect 11 0 10 0;
#X connect 11 1 9 0;
#X connect 12 0 8 1;
#X connect 13 0 16 0;
#X connect 15 0 0 1;
#X connect 17 0 7 0;
#X restore 915 249 pd gestion_affichage_mesures;
#N canvas 458 61 643 448 midi2notename 0;
#N canvas 473 338 450 300 count 0;
#X obj 131 154 f 0;
#X obj 156 153 + 1;
#X msg 147 133 0;
#X obj 131 183 outlet;
#X obj 131 59 inlet;
#X obj 131 96 b;
#X obj 178 61 inlet;
#X obj 178 98 b;
#X connect 0 0 1 0;
#X connect 0 0 3 0;
#X connect 1 0 0 1;
#X connect 2 0 0 1;
#X connect 4 0 5 0;
#X connect 5 0 0 0;
#X connect 6 0 7 0;
#X connect 7 0 2 0;
#X restore 330 219 pd count;
#X msg 249 169 c \, c# \, d \, d# \, e \, f \, f# \, g \, g# \, a \,
a# \, b;
#X obj 249 194 t a b;
#X obj 249 243 list prepend;
#X msg 173 243 reset;
#X obj 249 144 t b b b;
#X text -2 162 Notes example:;
#X msg 114 244 print;
#X msg 114 219 dump;
#X obj 161 268 m_symbolarray;
#X obj 252 117 loadbang;
#X obj 165 163 mod 12;
#X obj 229 113 bng 15 250 50 0 empty empty empty 17 7 0 10 -262144
-1 -1;
#X obj 166 127 t f f;
#X obj 159 297 list append;
#X obj 166 104 - 24;
#X floatatom 177 215 5 0 0 0 - - -;
#X obj 188 192 div 12;
#X obj 171 76 t f f;
#X obj 164 321 list append;
#X obj 161 50 route set;
#X msg 150 363 symbol (\$1\$2);
#X obj 147 27 r \$0-root_key-rcv;
#X obj 152 385 s \$0-root_key_display-rcv;
#X connect 0 0 3 1;
#X connect 1 0 2 0;
#X connect 2 0 3 0;
#X connect 2 1 0 0;
#X connect 3 0 9 1;
#X connect 4 0 9 0;
#X connect 5 0 1 0;
#X connect 5 1 4 0;
#X connect 5 2 0 1;
#X connect 7 0 9 0;
#X connect 8 0 9 0;
#X connect 9 0 14 0;
#X connect 10 0 5 0;
#X connect 11 0 9 0;
#X connect 12 0 5 0;
#X connect 13 0 11 0;
#X connect 13 1 17 0;
#X connect 14 0 19 0;
#X connect 15 0 13 0;
#X connect 17 0 16 0;
#X connect 17 0 14 1;
#X connect 18 0 15 0;
#X connect 18 1 19 1;
#X connect 19 0 21 0;
#X connect 20 0 18 0;
#X connect 21 0 23 0;
#X connect 22 0 20 0;
#X restore 916 224 pd midi2notename;
#X floatatom 211 239 5 0 0 0 blob_ambitus #0-ambitus-rcv #0-ambitus
;
#X floatatom 211 254 5 0 0 0 y_ambitus #0-y_transpose-rcv #0-y_transpose
;
#X text 97 250 (semis);
#X obj 692 389 route source;
#X obj 177 125 vradio 15 1 0 3 \$0-mode \$0-mode-rcv empty 0 -8 0 10
-262144 -1 -1 0;
#X obj 676 116 r \$0-mode;
#X obj 583 140 list prepend 0;
#N canvas 486 56 450 300 note_event_mode 0;
#X obj 37 37 inlet;
#X obj 61 263 outlet;
#X obj 277 43 inlet;
#X obj 278 111 route blob;
#X obj 59 166 list prepend CYCLO blob;
#X obj 57 189 list trim;
#X obj 59 210 s TO_VIDEO;
#X msg 54 120 all \$1;
#X obj 313 165 list split 1;
#X msg 255 260 note \$1 \$2;
#X obj 232 204 print;
#X obj 60 143 clone 8 data_cyclogroove/blob_unit \$0;
#X connect 0 0 7 0;
#X connect 2 0 3 0;
#X connect 3 0 11 1;
#X connect 4 0 5 0;
#X connect 5 0 6 0;
#X connect 7 0 11 0;
#X connect 8 1 9 0;
#X connect 9 0 1 0;
#X connect 11 0 4 0;
#X connect 11 1 8 0;
#X restore 582 221 pd note_event_mode;
#X obj 769 135 list prepend 0;
#X obj 864 111 r \$0-mode;
#X obj 773 453 u_parameter \$0 mode;
#X text 974 549 mode 1;
#X text 323 214 <- mode 0;
#X text 310 320 <- mode 1;
#X text 716 220 mode 0;
#X text 795 259 mode 1;
#N canvas 18 159 717 595 aftertouch_event_mode 0;
#X obj 69 41 inlet clock;
#X obj 257 55 inlet from_cyclogroove_video_instance;
#X obj 393 268 outlet;
#X obj 257 83 route blob;
#X obj 69 216 list prepend CYCLO blob;
#X obj 69 238 list trim;
#X obj 69 260 s TO_VIDEO;
#X msg 70 90 all \$1;
#X obj 383 178 list split 1;
#X obj 400 215 list trim;
#N canvas 747 50 633 562 set_debit_GUI 0;
#X text 444 133 24 noire;
#X text 448 204 12 croche;
#X text 441 162 18 croche pointée;
#X text 449 187 16 triolet noire;
#X text 442 299 6 double;
#X text 445 252 9 double pointée;
#X text 442 272 8 triolet croche;
#X text 440 26 48 blanche;
#X text 439 59 36 noire pointée;
#X text 452 86 32 triolet blanche;
#X text 451 108 30 valeur de 5 double;
#X text 449 326 4 triolet double;
#X obj 131 79 r \$0-set_debit;
#X obj 131 101 select 0 1 2 3 4 5 6 7 8 9;
#X msg 131 123 24;
#X msg 148 144 18;
#X msg 166 167 16;
#X msg 184 187 12;
#X msg 202 123 9;
#X msg 220 143 8;
#X msg 238 164 6;
#X msg 256 185 4;
#X msg 274 125 3;
#X msg 292 149 2;
#X obj 138 270 s \$0-debit;
#X obj 141 299 r \$0-debit;
#X obj 141 321 select 24 18 16 12 9 8 6 4 3 2;
#X msg 141 343 0;
#X msg 158 364 1;
#X msg 176 387 2;
#X msg 194 407 3;
#X msg 212 343 4;
#X msg 230 363 5;
#X msg 248 384 6;
#X msg 266 405 7;
#X msg 284 345 8;
#X msg 302 369 9;
#X obj 148 490 t f;
#X msg 147 509 set \$1;
#X obj 147 531 s \$0-set_debit-rcv;
#X connect 12 0 13 0;
#X connect 13 0 14 0;
#X connect 13 1 15 0;
#X connect 13 2 16 0;
#X connect 13 3 17 0;
#X connect 13 4 18 0;
#X connect 13 5 19 0;
#X connect 13 6 20 0;
#X connect 13 7 21 0;
#X connect 13 8 22 0;
#X connect 13 9 23 0;
#X connect 14 0 24 0;
#X connect 15 0 24 0;
#X connect 16 0 24 0;
#X connect 17 0 24 0;
#X connect 18 0 24 0;
#X connect 19 0 24 0;
#X connect 20 0 24 0;
#X connect 21 0 24 0;
#X connect 22 0 24 0;
#X connect 23 0 24 0;
#X connect 25 0 26 0;
#X connect 26 0 27 0;
#X connect 26 1 28 0;
#X connect 26 2 29 0;
#X connect 26 3 30 0;
#X connect 26 4 31 0;
#X connect 26 5 32 0;
#X connect 26 6 33 0;
#X connect 26 7 34 0;
#X connect 26 8 35 0;
#X connect 26 9 36 0;
#X connect 27 0 37 0;
#X connect 28 0 37 0;
#X connect 29 0 37 0;
#X connect 30 0 37 0;
#X connect 31 0 37 0;
#X connect 32 0 37 0;
#X connect 33 0 37 0;
#X connect 34 0 37 0;
#X connect 35 0 37 0;
#X connect 36 0 37 0;
#X connect 37 0 38 0;
#X connect 38 0 39 0;
#X restore 498 299 pd set_debit_GUI;
#X obj 546 254 s \$0-blob3_display;
#X obj 69 139 clone 8 data_cyclogroove/aftertouch_unit \$0;
#X connect 0 0 7 0;
#X connect 1 0 3 0;
#X connect 3 0 12 1;
#X connect 4 0 5 0;
#X connect 5 0 6 0;
#X connect 7 0 12 0;
#X connect 8 1 9 0;
#X connect 9 0 2 0;
#X connect 12 0 4 0;
#X connect 12 1 8 0;
#X restore 616 259 pd aftertouch_event_mode;
#X obj 403 417 text define -k \$0-target;
#A set <none> \; pitchbend \; pos \; sustain \;;
#X obj 403 438 text define -k \$0-value;
#A set <none> \; x-x0 \; y-y0 \; r/r0 \; r0/r \; angle \; X0 \; Y0
\; x \; y \; x0+(x-x0)* \; y0+(y-y0)* \;;
#X obj 275 425 tgl 15 0 \$0-enable1 \$0-enable1-rcv empty 17 7 0 10
-262144 -1 -1 0 1;
#X obj 275 440 tgl 15 0 \$0-enable2 \$0-enable2-rcv empty 17 7 0 10
-262144 -1 -1 0 1;
#X obj 275 455 tgl 15 0 \$0-enable3 \$0-enable3-rcv empty 17 7 0 10
-262144 -1 -1 0 1;
#X obj 162 425 hsl 50 15 -24 24 0 0 \$0-mul1 \$0-mul1-rcv =-24 10 8
0 10 -262144 -1 -1 0 1;
#X obj 104 425 u_rollmenu15 \$0 value 0 \$0-value1;
#X obj 104 440 u_rollmenu15 \$0 value 0 \$0-value2;
#X obj 104 455 u_rollmenu15 \$0 value 0 \$0-value3;
#N canvas 541 93 686 474 parametres_mode1 0;
#X obj 47 34 inlet;
#X obj 41 64 u_parameter \$0 value1;
#X obj 41 84 u_parameter \$0 value2;
#X obj 41 104 u_parameter \$0 value3;
#X obj 41 144 u_parameter \$0 target1;
#X obj 41 164 u_parameter \$0 target2;
#X obj 41 184 u_parameter \$0 target3;
#X obj 41 224 u_parameter \$0 mul1;
#X obj 41 244 u_parameter \$0 mul2;
#X obj 41 264 u_parameter \$0 mul3;
#X obj 41 294 u_parameter \$0 enable1;
#X obj 41 314 u_parameter \$0 enable2;
#X obj 41 334 u_parameter \$0 enable3;
#X obj 41 356 u_parameter \$0 x_grid;
#X obj 41 378 u_parameter \$0 y_grid;
#X obj 41 400 u_dispatch \$0 debit;
#X text 220 402 grain de mise à jour aftertouch;
#X obj 41 422 u_parameter \$0 grid_enable;
#X obj 210 246 midi-colors \$0 mul2 \$0-mul2-rcv -24 24 lin;
#X obj 210 226 midi-colors \$0 mul1 \$0-mul1-rcv -24 24 lin;
#X obj 210 266 midi-colors \$0 mul3 \$0-mul3-rcv -24 24 lin;
#X connect 0 0 1 0;
#X connect 1 0 2 0;
#X connect 2 0 3 0;
#X connect 3 0 4 0;
#X connect 4 0 5 0;
#X connect 5 0 6 0;
#X connect 6 0 7 0;
#X connect 7 0 8 0;
#X connect 8 0 9 0;
#X connect 9 0 10 0;
#X connect 10 0 11 0;
#X connect 11 0 12 0;
#X connect 12 0 13 0;
#X connect 13 0 14 0;
#X connect 14 0 15 0;
#X connect 15 0 17 0;
#X restore 773 608 pd parametres_mode1;
#N canvas 0 50 450 300 parametres_mode0 0;
#X obj 47 34 inlet;
#X obj 52 207 outlet;
#X obj 53 99 u_parameter \$0 ambitus;
#X obj 53 118 u_parameter \$0 y_transpose;
#X text 252 99 mode 0;
#X obj 53 140 u_dispatch \$0 sustain;
#X connect 0 0 2 0;
#X connect 2 0 3 0;
#X connect 3 0 5 0;
#X connect 5 0 1 0;
#X restore 773 573 pd parametres_mode0;
#X obj 220 425 u_rollmenu15 \$0 target 0 \$0-target1;
#X obj 220 455 u_rollmenu15 \$0 target 0 \$0-target3;
#X obj 162 440 hsl 50 15 -24 24 0 0 \$0-mul2 \$0-mul2-rcv =0.07 10
8 0 10 -262144 -1 -1 0 1;
#X obj 162 455 hsl 50 15 -24 24 0 0 \$0-mul3 \$0-mul3-rcv =0.04 10
8 0 10 -262144 -1 -1 0 1;
#X obj 220 440 u_rollmenu15 \$0 target 0 \$0-target2;
#X floatatom 114 338 3 1 32 0 x #0-x_grid-rcv #0-x_grid;
#X floatatom 115 352 3 1 32 0 y #0-y_grid-rcv #0-y_grid;
#X text 937 421 (nb of quarters per cycle);
#X obj 1002 307 loadbang;
#X obj 149 354 hradio 14 1 0 10 \$0-set_debit \$0-set_debit-rcv empty
0 -8 0 10 -4032 -1 -1 9;
#X text 101 323 grid;
#X text 147 340 2 1 1 1;
#X text 152 340 4 8 6 2 9 8 6 4 3 2;
#X text 298 113 <- rajouter option cycle completion;
#X text 330 133 (full / half / expr(perimeter) );
#X obj 230 100 bng 15 250 50 0 empty empty edit 17 7 0 10 -191407 -1
-1;
#X obj 773 548 u_parameter \$0 root_key;
#X floatatom 164 224 10 0 127 0 base_note #0-root_key-rcv #0-root_key
;
#X symbolatom 190 224 6 0 0 0 - #0-root_key_display-rcv -;
#X msg 817 189 blob all remove;
#X obj 957 95 r \$0-mode;
#X obj 957 117 change;
#X msg 794 224 blob all remove;
#X text 163 352 grain;
#X obj 137 327 tgl 15 0 \$0-grid_enable \$0-grid_enable-rcv empty 17
7 0 10 -262144 -1 -1 1 1;
#X floatatom 162 327 10 0 127 2 base_note #0-root_key-rcv #0-root_key
;
#X symbolatom 190 327 6 0 0 0 - #0-root_key_display-rcv -;
#X text 103 312 NOTEON;
#N canvas 53 202 450 300 gestion_affichage_grid_enable 0;
#X obj 235 234 s \$0-x_grid-rcv;
#X obj 356 40 r \$0-x_grid;
#X obj 306 84 r \$0-y_grid;
#X obj 210 21 r \$0-grid_enable;
#X obj 226 72 select 0 1;
#X obj 106 237 s \$0-y_grid-rcv;
#X obj 297 113 f;
#X obj 297 143 f;
#X msg 234 134 set \$1;
#X msg 244 154 set \$1;
#X obj 168 107 delay 10;
#X obj 251 100 delay 10;
#X obj 391 65 bng 15 250 50 0 empty empty empty 17 7 0 10 -262144 -1
-1;
#X msg 95 165 set 0;
#X connect 1 0 6 1;
#X connect 1 0 12 0;
#X connect 2 0 7 1;
#X connect 3 0 4 0;
#X connect 4 0 10 0;
#X connect 4 1 11 0;
#X connect 6 0 8 0;
#X connect 7 0 9 0;
#X connect 8 0 0 0;
#X connect 9 0 5 0;
#X connect 10 0 13 0;
#X connect 11 0 6 0;
#X connect 11 0 7 0;
#X connect 13 0 0 0;
#X connect 13 0 5 0;
#X restore 915 286 pd gestion_affichage_grid_enable;
#X msg 904 332 x_grid 1 \, y_grid 1 \, grid_enable 1;
#N canvas 0 50 450 300 gestion_affichage_mul 0;
#X msg 210 142 label =\$1;
#X obj 211 77 * 100;
#X obj 211 99 int;
#X obj 211 121 * 0.01;
#X obj 111 55 r \$0-mul1;
#X obj 112 162 s \$0-mul1-rcv;
#X msg 110 142 label =\$1;
#X obj 111 77 * 100;
#X obj 111 99 int;
#X obj 111 121 * 0.01;
#X msg 310 142 label =\$1;
#X obj 311 77 * 100;
#X obj 311 99 int;
#X obj 311 121 * 0.01;
#X obj 211 55 r \$0-mul2;
#X obj 311 55 r \$0-mul3;
#X obj 212 162 s \$0-mul2-rcv;
#X obj 312 162 s \$0-mul3-rcv;
#X msg 11 69 label;
#X connect 0 0 16 0;
#X connect 1 0 2 0;
#X connect 2 0 3 0;
#X connect 3 0 0 0;
#X connect 4 0 7 0;
#X connect 6 0 5 0;
#X connect 7 0 8 0;
#X connect 8 0 9 0;
#X connect 9 0 6 0;
#X connect 10 0 17 0;
#X connect 11 0 12 0;
#X connect 12 0 13 0;
#X connect 13 0 10 0;
#X connect 14 0 1 0;
#X connect 15 0 11 0;
#X connect 18 0 5 0;
#X connect 18 0 16 0;
#X connect 18 0 17 0;
#X restore 403 459 pd gestion_affichage_mul;
#X floatatom 243 315 3 0 0 0 - #0-blob1_display -;
#X floatatom 266 315 3 0 0 0 - #0-blob0_display -;
#X floatatom 244 329 3 0 0 0 - #0-blob2_display -;
#X floatatom 267 329 3 0 0 0 - #0-blob3_display -;
#X text 103 411 aftertouch messages;
#X obj 248 215 ui_vs \$0 sustain 100 1000;
#N canvas 18 159 717 595 cursor_event_mode 0;
#X obj 69 41 inlet clock;
#X obj 257 55 inlet from_cyclogroove_video_instance;
#X obj 393 268 outlet;
#X obj 257 83 route blob;
#X obj 69 216 list prepend CYCLO blob;
#X obj 69 238 list trim;
#X obj 69 260 s TO_VIDEO;
#X msg 70 90 all \$1;
#X obj 383 178 list split 1;
#X obj 400 215 list trim;
#X obj 69 139 clone 8 data_cyclogroove/cursor_mode_unit \$0;
#X connect 0 0 7 0;
#X connect 1 0 3 0;
#X connect 3 0 10 1;
#X connect 4 0 5 0;
#X connect 5 0 6 0;
#X connect 7 0 10 0;
#X connect 8 1 9 0;
#X connect 9 0 2 0;
#X connect 10 0 4 0;
#X connect 10 1 8 0;
#X restore 636 289 pd cursor_event_mode;
#X text 815 289 mode 2;
#X obj 930 149 select 1 0 2;
#X msg 804 274 blob all remove;
#X obj 769 157 route 0 1 2;
#X obj 583 162 route 0 1 2;
#X text 310 530 <- mode 2;
#X obj 101 501 cnv 15 188 68 empty \$0-background data_cyclogroove-0
0 7 0 12 -262144 -1 0;
#X obj 230 500 hradio 15 1 0 2 \$0-guitab_mode2 \$0-guitab_mode2-rcv
empty 0 -8 0 10 -191407 -1 -1 0;
#N canvas 498 60 593 539 gestion_tabs 0;
#X obj 602 48 r \$0-mode;
#X obj 602 70 == 0;
#X obj 464 70 spigot;
#X msg 432 124 set \$1;
#X obj 612 188 r \$0-mode;
#X obj 474 210 spigot;
#X msg 442 264 set \$1;
#X obj 612 210 == 1;
#X obj 696 240 select 0;
#X msg 696 262 0;
#X obj 769 269 + 1;
#X obj 622 338 r \$0-mode;
#X obj 484 360 spigot;
#X msg 452 414 set \$1;
#X obj 706 390 select 0;
#X msg 706 412 0;
#X obj 622 360 == 2;
#X obj 779 419 + 3;
#X floatatom 602 92 5 0 0 0 - - -;
#X floatatom 612 232 5 0 0 0 - - -;
#X floatatom 622 382 5 0 0 0 - - -;
#X obj 464 48 r \$0-guitab_mode0;
#X obj 504 119 s \$0-guitab;
#X obj 424 158 s \$0-guitab_mode0-rcv;
#X obj 474 188 r \$0-guitab_mode1;
#X obj 691 302 s \$0-guitab;
#X obj 434 298 s \$0-guitab_mode1-rcv;
#X obj 484 338 r \$0-guitab_mode2;
#X obj 444 448 s \$0-guitab_mode2-rcv;
#X obj 701 452 s \$0-guitab;
#X obj 177 66 select 0 1 2;
#X obj 179 35 f;
#X obj 211 26 r \$0-mode;
#X msg 164 98 1;
#X msg 205 147 1;
#X msg 248 198 1;
#X obj 100 10 inlet;
#X obj 164 120 outlet;
#X obj 205 169 outlet;
#X obj 248 220 outlet;
#X connect 0 0 1 0;
#X connect 1 0 2 1;
#X connect 1 0 18 0;
#X connect 2 0 3 0;
#X connect 2 0 22 0;
#X connect 3 0 23 0;
#X connect 4 0 7 0;
#X connect 5 0 6 0;
#X connect 5 0 8 0;
#X connect 6 0 26 0;
#X connect 7 0 5 1;
#X connect 7 0 19 0;
#X connect 8 0 9 0;
#X connect 8 1 10 0;
#X connect 9 0 25 0;
#X connect 10 0 25 0;
#X connect 11 0 16 0;
#X connect 12 0 13 0;
#X connect 12 0 14 0;
#X connect 13 0 28 0;
#X connect 14 0 15 0;
#X connect 14 1 17 0;
#X connect 15 0 29 0;
#X connect 16 0 12 1;
#X connect 16 0 20 0;
#X connect 17 0 29 0;
#X connect 21 0 2 0;
#X connect 24 0 5 0;
#X connect 27 0 12 0;
#X connect 30 0 33 0;
#X connect 30 1 34 0;
#X connect 30 2 35 0;
#X connect 31 0 30 0;
#X connect 32 0 31 1;
#X connect 33 0 37 0;
#X connect 34 0 38 0;
#X connect 35 0 39 0;
#X connect 36 0 31 0;
#X restore 454 57 pd gestion_tabs;
#X text 177 110 output mode;
#X text 194 124 note;
#X text 194 140 aftertouch;
#X text 194 153 touchEvent;
#X obj 101 601 cnv 15 188 68 empty \$0-background data_cyclogroove-0
0 7 0 12 -262144 -1 0;
#X obj 230 600 hradio 15 1 0 3 \$0-guitab_mode2 \$0-guitab_mode2-rcv
empty 0 -8 0 10 -191407 -1 -1 0;
#X obj 149 554 hradio 14 1 0 10 \$0-set_debit \$0-set_debit-rcv empty
0 -8 0 10 -4032 -1 -1 9;
#X text 147 540 2 1 1 1;
#X text 152 540 4 8 6 2 9 8 6 4 3 2;
#X text 163 552 grain;
#X text 114 522 touchEvent;
#X obj 890 49 r \$0-container_params;
#X obj 890 71 print;
#X obj 773 513 u_parameter \$0 delta;
#X obj 139 115 ui_vs \$0 delta 0 1;
#X obj 1057 172 namecanvas \$0-this;
#X obj 1055 149 triggered_loadbang \$0-this;
#X text 1050 99 manually trigger loadbang if the instance of abstraction
is created dynamically, f 29;
#X obj 1033 12 declare -path pdr/core;
#X obj 1033 35 declare -path pdr/core/stuff;
#X obj 1033 64 declare -path pdr/core/rj;
#X obj 949 387 savestate;
#X connect 0 0 1 0;
#X connect 2 0 3 0;
#X connect 4 0 5 0;
#X connect 4 0 42 0;
#X connect 8 0 9 0;
#X connect 9 0 47 0;
#X connect 10 0 9 1;
#X connect 10 0 12 1;
#X connect 11 0 12 0;
#X connect 12 0 45 0;
#X connect 14 0 13 0;
#X connect 15 0 127 0;
#X connect 23 0 15 0;
#X connect 33 0 49 0;
#X connect 33 1 135 0;
#X connect 42 0 7 0;
#X connect 42 1 33 0;
#X connect 44 0 45 1;
#X connect 45 0 109 0;
#X connect 46 0 5 0;
#X connect 47 0 108 0;
#X connect 48 0 47 1;
#X connect 49 0 23 0;
#X connect 55 0 5 0;
#X connect 66 0 65 0;
#X connect 75 0 96 0;
#X connect 82 0 113 0;
#X connect 83 0 66 0;
#X connect 86 0 46 1;
#X connect 87 0 88 0;
#X connect 88 0 106 0;
#X connect 89 0 55 1;
#X connect 96 0 33 0;
#X connect 104 0 5 0;
#X connect 106 0 86 0;
#X connect 106 0 107 0;
#X connect 106 1 89 0;
#X connect 106 1 107 0;
#X connect 106 2 86 0;
#X connect 106 2 89 0;
#X connect 107 0 104 1;
#X connect 108 0 46 1;
#X connect 108 1 55 1;
#X connect 108 2 104 1;
#X connect 109 0 46 0;
#X connect 109 1 55 0;
#X connect 109 2 104 0;
#X connect 113 0 31 0;
#X connect 113 1 34 0;
#X connect 113 2 112 0;
#X connect 125 0 126 0;
#X connect 127 0 83 0;
#X connect 135 0 33 1;
#X connect 135 1 33 2;
#X coords 0 0 1 1 190 70 1 100 100;
