#N canvas 14 56 991 595 10;
#X declare -path pdr/core;
#X declare -path pdr/core/stuff;
#X declare -path pdr/core/rj;
#X text 90 505 TODO;
#X text 25 540 sauvegarde;
#X text 27 563 multiple patterns;
#X obj 101 101 cnv 15 188 68 empty \$0-background data_feuille 0 7
0 12 -262144 -1 0;
#X obj 98 410 inlet~;
#X obj 95 434 outlet~;
#X obj 158 410 inlet~;
#X obj 155 434 outlet~;
#X obj 536 42 inlet data;
#X obj 536 503 outlet data;
#X obj 664 116 module_loader data_feuille \$0 \$1;
#X obj 664 138 u_dispatch \$0 size;
#X obj 137 114 tgl 40 0 \$0-learn \$0-learn-rcv learn 17 7 0 10 -262144
-1 -1 0 1;
#N canvas 1 56 796 618 critere_de_choix 0;
#X obj 194 68 spigot;
#X obj 322 14 r \$0-busy;
#X obj 461 433 print data_feuille;
#X obj 182 107 list split 1;
#X obj 242 136 list trim;
#X obj 242 158 route add remove;
#X obj 241 190 unpack f f f f;
#X obj 275 226 *;
#X obj 176 278 spigot;
#X obj 275 248 sqrt;
#X obj 175 329 s \$0-size;
#X obj 176 300 t f b;
#X obj 122 210 r \$0-learn;
#X msg 200 347 0;
#X obj 200 369 s \$0-learn-rcv;
#X obj 343 242 r \$0-size;
#X obj 343 314 t f f;
#X obj 335 379 <;
#X obj 376 402 >;
#X obj 335 401 &&;
#X obj 275 270 t f f f;
#X obj 275 551 select;
#X obj 311 524 t f f;
#X msg 292 474 \$1 64;
#X obj 292 496 poly 1;
#X obj 213 448 f;
#X obj 291 426 spigot;
#X obj 291 448 t f b;
#X msg 381 446 0;
#X obj 411 486 spigot;
#X msg 501 506 0;
#X msg 496 474 1;
#X obj 411 508 t f f b;
#X obj 393 547 f;
#X msg 440 551 \$1 0;
#X obj 125 552 pack f f;
#X obj 531 203 select 0;
#X msg 537 231 stop;
#X obj 125 574 outlet;
#X obj 420 427 tgl 15 0 empty empty empty 17 7 0 10 -262144 -1 -1 0
1;
#X floatatom 182 129 5 0 0 0 - - -;
#X floatatom 343 264 5 0 0 0 - - -;
#X floatatom 275 292 5 0 0 0 - - -;
#X obj 256 432 bng 15 250 50 0 empty empty empty 17 7 0 10 -262144
-1 -1;
#X floatatom 343 358 5 0 0 0 - - -;
#X floatatom 400 361 5 0 0 0 - - -;
#X obj 343 336 * 1.1;
#X obj 400 339 * 0.9;
#X obj 408 190 t l l;
#X obj 680 426 outlet;
#X obj 194 46 inlet;
#X connect 0 0 3 0;
#X connect 1 0 0 1;
#X connect 1 0 36 0;
#X connect 3 0 26 0;
#X connect 3 0 29 0;
#X connect 3 0 40 0;
#X connect 3 1 4 0;
#X connect 4 0 5 0;
#X connect 5 0 48 0;
#X connect 5 1 31 0;
#X connect 6 2 7 0;
#X connect 6 3 7 1;
#X connect 7 0 9 0;
#X connect 8 0 11 0;
#X connect 9 0 20 0;
#X connect 11 0 10 0;
#X connect 11 1 13 0;
#X connect 12 0 8 1;
#X connect 13 0 14 0;
#X connect 15 0 16 0;
#X connect 15 0 41 0;
#X connect 16 0 46 0;
#X connect 16 1 47 0;
#X connect 17 0 19 0;
#X connect 18 0 19 1;
#X connect 19 0 26 1;
#X connect 19 0 39 0;
#X connect 20 0 8 0;
#X connect 20 0 42 0;
#X connect 20 1 17 0;
#X connect 20 2 18 0;
#X connect 21 0 33 0;
#X connect 22 0 21 1;
#X connect 22 1 35 0;
#X connect 23 0 24 0;
#X connect 24 1 22 0;
#X connect 24 2 35 1;
#X connect 26 0 27 0;
#X connect 26 0 43 0;
#X connect 27 0 23 0;
#X connect 27 1 28 0;
#X connect 28 0 26 1;
#X connect 29 0 32 0;
#X connect 30 0 29 1;
#X connect 31 0 29 1;
#X connect 32 0 21 0;
#X connect 32 1 33 1;
#X connect 32 2 30 0;
#X connect 33 0 34 0;
#X connect 34 0 24 0;
#X connect 35 0 38 0;
#X connect 36 0 37 0;
#X connect 37 0 24 0;
#X connect 46 0 17 1;
#X connect 46 0 44 0;
#X connect 47 0 18 1;
#X connect 47 0 45 0;
#X connect 48 0 6 0;
#X connect 48 1 49 0;
#X connect 50 0 0 0;
#X restore 515 242 pd critere_de_choix;
#X obj 414 273 unpack f f;
#X obj 254 145 tgl 25 0 empty empty found 1 7 0 10 -24198 -24198 -1
0 1;
#X floatatom 186 152 5 0 0 2 <SID> - -;
#X obj 436 331 select 0;
#X obj 413 302 spigot;
#X msg 430 382 set -1;
#X msg 527 276 \$2 \$1;
#X obj 527 298 route 0;
#X msg 676 474 source listen_to_tracker \$2;
#X msg 512 335 source off;
#X obj 617 364 t b l;
#X obj 611 394 list append;
#X obj 567 461 list trim;
#X obj 568 433 list prepend source params;
#X obj 515 214 r TRACKER;
#X obj 101 115 ui_vs \$0 size 1 600;
#X msg 370 484 color 16 16 -1;
#X msg 401 533 color 8 8 -1;
#X obj 441 440 select 0;
#X obj 664 160 u_dispatch \$0 On;
#X obj 664 182 u_dispatch \$0 Off;
#X text 813 172 lumière;
#X obj 215 578 s TO_VIDEO;
#X msg 202 548 PIX_GAIN \$1;
#X obj 211 455 r \$0-On;
#X obj 241 488 r \$0-Off;
#X obj 188 492 f;
#X obj 220 517 f;
#X obj 334 403 t b;
#N canvas 0 49 1280 725 convexity_points 0;
#X obj 391 199 / 180;
#X obj 91 264 -;
#X obj 201 263 -;
#X text 354 393 A'.x = A.x * cos(θ) - A.y * sin(θ) A'.y = A.x * sin(θ)
+ A.y * cos(θ);
#X obj 91 349 *;
#X obj 91 374 -;
#X obj 201 288 *;
#X obj 162 374 +;
#X obj 91 289 t f f;
#X obj 161 349 *;
#X obj 331 319 *;
#X obj 71 154 unpack f f f f f f f f;
#X obj 279 166 unpack f f f f f f f f;
#X obj 278 -34 inlet A4vector;
#X msg 268 55 1;
#X msg 180 85 0;
#X text 554 185 quand le tracking du feuilletA4 est perdu;
#X text 555 205 freezer les contours intérieurs;
#X obj 115 400 * 0.45;
#X obj 206 402 * 0.45;
#X obj 278 -12 route source;
#X obj 277 17 route off params;
#X obj 65 -32 r CONVEXITY;
#X obj 45 48 list split 1;
#X obj 75 108 spigot;
#X obj 60 419 /;
#X obj 160 423 /;
#X obj 44 18 spigot;
#X obj 172 -36 r \$0-busy;
#X floatatom 533 254 5 0 0 0 - - -;
#X obj 403 257 * -3.14159;
#X obj 320 255 cos;
#X obj 443 299 sin;
#X obj 374 67 t l l;
#X obj 470 81 unpack f f f f f;
#X obj 487 149 >;
#X floatatom 487 171 5 0 0 0 - - -;
#N canvas 0 50 676 443 x 0;
#X obj 408 0;
#X obj 108 40 inlet;
#X obj 264 37 inlet;
#X obj 176 132 t f f;
#X obj 220 173 < 1;
#X obj 163 198 &&;
#X obj 21 216 moses -1;
#X obj 50 250 moses 1;
#X obj 83 175 spigot;
#X obj 160 176 > 0.7;
#X obj 108 62 list prepend 1;
#X obj 108 106 unpack f f;
#X obj 62 379 outlet;
#X floatatom 108 128 5 0 0 0 - - -;
#X obj 406 142 t f f;
#X obj 393 208 &&;
#X obj 251 296 moses -1;
#X obj 280 330 moses 1;
#X obj 396 80 unpack f f;
#X obj 390 186 > -1;
#X obj 450 183 < -0.7;
#X obj 398 257 select 1;
#X obj 398 279 f;
#X obj 108 84 route 1 0;
#X connect 1 0 10 0;
#X connect 2 0 10 1;
#X connect 3 0 9 0;
#X connect 3 1 4 0;
#X connect 4 0 5 1;
#X connect 5 0 8 1;
#X connect 6 1 7 0;
#X connect 7 0 12 0;
#X connect 8 0 6 0;
#X connect 9 0 5 0;
#X connect 10 0 23 0;
#X connect 11 0 8 0;
#X connect 11 0 13 0;
#X connect 11 1 3 0;
#X connect 14 0 19 0;
#X connect 14 1 20 0;
#X connect 15 0 21 0;
#X connect 16 1 17 0;
#X connect 17 0 12 0;
#X connect 18 0 14 0;
#X connect 18 1 22 1;
#X connect 19 0 15 0;
#X connect 20 0 15 1;
#X connect 21 0 22 0;
#X connect 22 0 16 0;
#X connect 23 0 11 0;
#X connect 23 1 18 0;
#X restore 534 428 pd x;
#X obj 36 454 pack f f;
#X obj 756 625 outlet x;
#X obj 537 467 + 1;
#X obj 1125 402 r \$0-ccx;
#X obj 1074 430 pack f f 1;
#X msg 1060 391 1;
#X obj 1009 367 r \$0-testx;
#X obj 975 280 spigot;
#X obj 1000 249 r \$0-ccx_enable;
#X obj 1083 454 s CTLIN;
#X obj 972 335 line;
#X msg 972 313 \$1 100;
#X obj 534 450 * 1.2;
#X obj 642 475 max 0;
#X obj 642 453 min 2;
#X obj 639 504 * 63.5;
#X obj 374 89 list prepend 1;
#X obj 374 111 route 1 0;
#X msg 383 141 \$1 \$2 \$4 \$3 \$5;
#X obj 767 550 speed_lim;
#X obj 867 550 speed_lim;
#X obj 856 625 outlet y;
#X connect 0 0 30 0;
#X connect 1 0 8 0;
#X connect 2 0 6 0;
#X connect 2 0 10 0;
#X connect 4 0 5 0;
#X connect 5 0 25 0;
#X connect 6 0 5 1;
#X connect 7 0 26 0;
#X connect 8 0 4 0;
#X connect 8 1 9 0;
#X connect 9 0 7 0;
#X connect 10 0 7 1;
#X connect 11 0 1 0;
#X connect 11 1 2 0;
#X connect 12 0 1 1;
#X connect 12 1 2 1;
#X connect 12 2 18 0;
#X connect 12 3 19 0;
#X connect 12 4 29 0;
#X connect 12 4 0 0;
#X connect 13 0 20 0;
#X connect 14 0 24 1;
#X connect 15 0 24 1;
#X connect 18 0 25 1;
#X connect 19 0 26 1;
#X connect 20 0 21 0;
#X connect 21 0 15 0;
#X connect 21 1 14 0;
#X connect 21 1 33 0;
#X connect 22 0 27 0;
#X connect 23 1 24 0;
#X connect 24 0 11 0;
#X connect 25 0 38 0;
#X connect 26 0 38 1;
#X connect 27 0 23 0;
#X connect 28 0 27 1;
#X connect 30 0 31 0;
#X connect 30 0 32 0;
#X connect 31 0 4 1;
#X connect 31 0 10 1;
#X connect 32 0 6 1;
#X connect 32 0 9 1;
#X connect 33 0 54 0;
#X connect 33 1 34 0;
#X connect 34 2 35 0;
#X connect 34 3 35 1;
#X connect 35 0 36 0;
#X connect 35 0 37 1;
#X connect 37 0 50 0;
#X connect 38 0 37 0;
#X connect 40 0 52 0;
#X connect 41 0 42 1;
#X connect 42 0 47 0;
#X connect 43 0 42 0;
#X connect 44 0 43 0;
#X connect 45 0 49 0;
#X connect 45 0 57 0;
#X connect 46 0 45 1;
#X connect 48 0 42 0;
#X connect 49 0 48 0;
#X connect 50 0 40 0;
#X connect 51 0 53 0;
#X connect 52 0 51 0;
#X connect 53 0 45 0;
#X connect 54 0 55 0;
#X connect 55 0 12 0;
#X connect 55 1 56 0;
#X connect 56 0 12 0;
#X connect 57 0 39 0;
#X connect 58 0 59 0;
#X restore 898 223 pd convexity_points;
#X obj 346 25 namecanvas \$0-multitab;
#X obj 344 5 ui_multitab \$0;
#X obj 230 100 hradio 15 1 0 3 \$0-guitab \$0-guitab-rcv empty 0 -8
0 10 -191407 -1 -1 0;
#X obj 101 201 cnv 15 188 68 empty \$0-background data_feuille 0 7
0 12 -262144 -1 0;
#X obj 230 200 hradio 15 1 0 3 \$0-guitab \$0-guitab-rcv empty 0 -8
0 10 -191407 -1 -1 0;
#X obj 171 214 ui_vs \$0 On 0 1;
#X obj 209 214 ui_vs \$0 Off 0 1;
#X text 177 217 pix_gain;
#X text 104 224 effets lumineux, f 8;
#X obj 101 301 cnv 15 188 68 empty \$0-background data_feuille 0 7
0 12 -262144 -1 0;
#X obj 230 300 hradio 15 1 0 3 \$0-guitab \$0-guitab-rcv empty 0 -8
0 10 -191407 -1 -1 0;
#X obj 747 290 u_parameter \$0 ccx;
#X obj 742 313 u_parameter \$0 ccy;
#X obj 743 356 u_parameter \$0 ccx_enable;
#X obj 743 376 u_parameter \$0 ccy_enable;
#X obj 182 329 tgl 14 0 \$0-ccx_enable \$0-ccx_enable-rcv empty 0 6
0 10 -203904 -1 -1 0 1;
#X obj 110 328 bng 14 250 50 0 \$0-testx empty empty 17 7 0 10 -262144
-1 -1;
#X obj 44 487 bng 14 250 50 0 \$0-testy empty empty 17 7 0 10 -262144
-1 -1;
#X obj 118 487 tgl 14 0 \$0-ccy_enable \$0-ccy_enable-rcv empty 0 6
0 10 -203904 -1 -1 0 1;
#X obj 203 327 hsl 64 15 0 127 0 0 empty empty empty -2 -8 0 10 -262144
-1 -1 0 1;
#X obj 91 276 nbx 5 14 0 16384 0 0 \$0-ccx \$0-ccx-rcv ccx:1cc47 0
-8 0 10 -262144 -1 -1 0 256;
#X obj 126 328 nbx 5 14 0 16384 0 0 \$0-ccx \$0-ccx-rcv ccx:1cc47 0
-8 0 10 -262144 -1 -1 0 256;
#N canvas 0 23 450 300 ccx_display 0;
#X obj 227 86 t f f;
#X obj 286 98 mod 128;
#X obj 227 111 div 128;
#X obj 235 155 pack f f;
#X obj 227 136 + 1;
#X obj 165 215 s \$0-ccx-rcv;
#X obj 216 68 r \$0-ccx;
#X msg 165 194 label ccx:\$1cc\$2;
#X connect 0 0 2 0;
#X connect 0 1 1 0;
#X connect 1 0 3 1;
#X connect 2 0 4 0;
#X connect 3 0 7 0;
#X connect 4 0 3 0;
#X connect 6 0 0 0;
#X connect 7 0 5 0;
#X restore 289 250 pd ccx_display;
#N canvas 0 23 450 300 ccy_display 0;
#X obj 227 86 t f f;
#X obj 286 98 mod 128;
#X obj 227 111 div 128;
#X obj 235 155 pack f f;
#X obj 227 136 + 1;
#X obj 216 68 r \$0-ccy;
#X msg 165 194 label ccy:\$1cc\$2;
#X obj 165 215 s \$0-ccy-rcv;
#X connect 0 0 2 0;
#X connect 0 1 1 0;
#X connect 1 0 3 1;
#X connect 2 0 4 0;
#X connect 3 0 6 0;
#X connect 4 0 3 0;
#X connect 5 0 0 0;
#X connect 6 0 7 0;
#X restore 288 270 pd ccy_display;
#X obj 62 487 nbx 5 14 0 16384 0 0 \$0-ccy \$0-ccy-rcv ccy:1cc0 0 -8
0 10 -262144 -1 -1 0 256;
#X text 106 344 convexity2cc;
#X obj 256 345 tgl 25 0 empty empty found 1 7 0 10 -24198 -24198 -1
0 1;
#X obj 897 172 namecanvas \$0-this;
#X obj 895 149 triggered_loadbang \$0-this;
#X text 890 99 manually trigger loadbang if the instance of abstraction
is created dynamically, f 29;
#X obj 873 12 declare -path pdr/core;
#X obj 873 35 declare -path pdr/core/stuff;
#X obj 873 64 declare -path pdr/core/rj;
#X connect 4 0 5 0;
#X connect 6 0 7 0;
#X connect 8 0 9 0;
#X connect 8 0 10 0;
#X connect 10 0 11 0;
#X connect 11 0 33 0;
#X connect 13 0 14 0;
#X connect 13 0 20 0;
#X connect 13 1 25 1;
#X connect 14 0 18 0;
#X connect 14 1 17 0;
#X connect 14 1 18 1;
#X connect 14 1 32 0;
#X connect 17 0 19 0;
#X connect 17 0 41 0;
#X connect 17 1 42 0;
#X connect 18 0 16 0;
#X connect 19 0 16 0;
#X connect 20 0 21 0;
#X connect 21 0 23 0;
#X connect 21 1 24 0;
#X connect 22 0 9 0;
#X connect 23 0 9 0;
#X connect 23 0 43 0;
#X connect 24 0 25 0;
#X connect 24 1 22 0;
#X connect 25 0 27 0;
#X connect 26 0 9 0;
#X connect 26 0 43 0;
#X connect 27 0 26 0;
#X connect 28 0 13 0;
#X connect 30 0 15 0;
#X connect 30 0 70 0;
#X connect 31 0 15 0;
#X connect 31 0 70 0;
#X connect 32 0 31 0;
#X connect 32 1 30 0;
#X connect 33 0 34 0;
#X connect 34 0 55 0;
#X connect 37 0 36 0;
#X connect 38 0 40 1;
#X connect 39 0 41 1;
#X connect 40 0 37 0;
#X connect 41 0 37 0;
#X connect 42 0 40 0;
#X connect 43 0 63 0;
#X connect 55 0 56 0;
#X connect 56 0 57 0;
#X connect 57 0 58 0;
#X coords 0 0 1 1 190 70 1 100 100;
