#N canvas 399 87 838 522 10;
#X text 45 309 EXPERIMENTAL ALPHA;
#X obj 26 309 tgl 15 0 empty empty V 4 8 0 12 -4034 -4034 -1 0 1;
#X obj 25 372 tgl 15 0 empty empty X 4 8 0 12 -258113 -258113 -1 0
1;
#X obj 25 396 tgl 15 0 empty empty ? 4 8 0 12 -260097 -260097 -1 0
1;
#X obj 26 339 tgl 15 0 empty empty V 4 8 0 12 -4034 -4034 -1 0 1;
#X obj 32 86 data_upic;
#X text 49 371 Instances multiples;
#X text 48 339 Une seule instance;
#X text 27 16 machine UPIC;
#X text 260 239 quarters : durée totale du cycle en nombre de noires
;
#X text 309 216 MODE SYNC ON;
#X text 276 76 OFFSET : décalage vers l'avant en nombre de ticks (0-24)
;
#X text 280 96 MARGINS : marge de sécurité autour du contour défini
;
#X text 406 268 débit ( noire/ croche/ triolet croche/double croche)
;
#X text 255 269 1/4 1/8 1/12 1/16;
#X text 255 319 renvoie les notes en sortie;
#X obj 257 165 bng 15 250 50 0 empty empty ! 4 9 0 12 -262130 -1 -258113
;
#X text 289 161 midi panic (all notes off);
#X obj 257 189 tgl 15 0 \$0-flip \$0-flip-rcv FLIP 0 7 0 10 -262144
-1 -1 0 1;
#X obj 520 398 bng 15 250 50 0 \$0-get_calibration_points empty CAL
0 8 0 8 -257985 -1 -1;
#X text 286 110 TRANSPOSE : numéro de la note basse (de 0 à 79) Pour
l'instant upic a une amplitude de 4 octaves (non réglable);
#X text 295 190 (pour inverser le sens de lecture suivant axe y);
#X obj 262 217 tgl 15 0 \$0-sync \$0-sync-rcv Sync 7 7 0 10 -4032 -1
-1 0 1;
#X text 246 422 sinon \, nécessite en amont, f 28;
#X text 291 463 - le module data_feuilleA4 (+ subsession robosonik)
<- déprécié, f 68;
#X text 292 442 - un module data_feuille (+ subsession videoSession2)
, f 68;
#X text 263 452 ou;
#X text 239 356 Calibration :;
#X text 254 382 possibilité de calibrer manuellement avec la souris
dans la fenêtre GEM en cliquant sur le bouton;
#X text 350 282 1/32 (triple croche);
