#N canvas 186 56 991 595 10;
#X declare -path pdr/core;
#X declare -path pdr/core/stuff;
#X declare -path pdr/core/rj;
#X text 210 485 TODO;
#X text 145 520 sauvegarde;
#X text 147 543 multiple patterns;
#X obj 598 313 u_dispatch \$0 points;
#N canvas 272 50 843 626 communication_instance_video 0;
#X obj 148 59 r UPIC;
#X obj 164 104 unpack f f;
#X obj 462 569 s TO_VIDEO;
#X msg 737 391 note \$1 \$2;
#X obj 141 170 spigot;
#X obj 136 190 t b;
#X obj 711 348 pack f f;
#X obj 186 193 spigot;
#X obj 200 161 t f f;
#X obj 261 102 s \$0-points;
#X msg 120 515 UPIC get_calibration_points;
#X obj 492 323 route set_calibration_points;
#X obj 503 534 list prepend UPIC set_calibration_points;
#X obj 60 213 s \$0-noteout-rcv;
#X obj 122 489 r \$0-get_calibration_points;
#X obj 398 60 r \$0-busy;
#X obj 493 64 r \$0-enable;
#X obj 491 288 inlet;
#X obj 685 425 outlet;
#X msg 409 458 UPIC \$1;
#X text 127 17 récepteur global (cf [pd network] dans main patch;
#X obj 158 146 + 24;
#X obj 431 115 t b f;
#X obj 425 143 &&;
#X obj 176 124 r \$0-transp;
#X obj 155 81 route note calibration_points;
#X obj 502 392 r \$0-points;
#X obj 490 346 s \$0-points;
#X obj 544 435 list prepend 0;
#X obj 544 457 route 0 1;
#X obj 559 121 r \$0-flip;
#X obj 559 143 change;
#X obj 688 193 r \$0-points;
#X obj 560 216 list append;
#X obj 560 238 s \$0-points;
#X msg 563 480 \$7 \$8 \$5 \$6 \$3 \$4 \$1 \$2;
#X obj 559 165 t b f;
#X connect 0 0 25 0;
#X connect 1 0 21 0;
#X connect 1 1 4 1;
#X connect 1 1 6 1;
#X connect 3 0 18 0;
#X connect 4 0 5 0;
#X connect 5 0 13 0;
#X connect 6 0 3 0;
#X connect 7 0 6 0;
#X connect 8 0 19 0;
#X connect 8 1 7 1;
#X connect 10 0 2 0;
#X connect 11 0 27 0;
#X connect 11 1 18 0;
#X connect 12 0 2 0;
#X connect 14 0 10 0;
#X connect 15 0 23 0;
#X connect 16 0 22 0;
#X connect 17 0 11 0;
#X connect 19 0 2 0;
#X connect 21 0 4 0;
#X connect 21 0 7 0;
#X connect 22 0 23 0;
#X connect 22 1 23 1;
#X connect 23 0 8 0;
#X connect 24 0 21 1;
#X connect 25 0 1 0;
#X connect 25 1 9 0;
#X connect 26 0 28 0;
#X connect 28 0 29 0;
#X connect 29 0 12 0;
#X connect 29 1 35 0;
#X connect 30 0 31 0;
#X connect 31 0 36 0;
#X connect 32 0 33 1;
#X connect 33 0 34 0;
#X connect 35 0 12 0;
#X connect 36 0 33 0;
#X connect 36 1 28 1;
#X restore 231 363 pd communication_instance_video;
#X obj 720 216 round_param \$0 beat;
#X text 383 220 1 blanche;
#X text 383 240 2 noire;
#X text 483 220 3 croche;
#X text 483 240 4 double;
#X obj 599 370 u_parameter \$0 beat;
#X obj 599 389 u_parameter \$0 sync;
#X obj 599 351 u_dispatch \$0 quarters;
#X obj 716 160 round_param \$0 quarters;
#X obj 185 9 r \$0-quarters;
#X obj 183 33 +;
#X msg 76 8 1;
#X obj 167 64 s \$0-quarters;
#X msg 51 42 -1;
#X obj 483 499 r \$0-sync;
#X msg 501 547 UPIC start \$1;
#X obj 488 523 == 0;
#X obj 231 391 route note;
#N canvas 0 50 552 420 sync_flush 0;
#X obj 310 14 inlet;
#X obj 311 278 outlet;
#X obj 97 15 inlet flush;
#X obj 192 121 list prepend add2;
#X obj 191 144 list trim;
#X obj 192 170 t b a;
#X msg 191 193 addcomma;
#X msg 180 238;
#X msg 98 197 set;
#X obj 98 168 t b b;
#X obj 230 68 r \$0-sync;
#X obj 190 90 spigot;
#X obj 364 127 r \$0-sync;
#X obj 364 149 == 0;
#X obj 312 172 spigot 1;
#X connect 0 0 11 0;
#X connect 0 0 14 0;
#X connect 2 0 9 0;
#X connect 3 0 4 0;
#X connect 4 0 5 0;
#X connect 5 0 6 0;
#X connect 5 1 7 0;
#X connect 6 0 7 0;
#X connect 7 0 1 0;
#X connect 8 0 7 0;
#X connect 9 0 8 0;
#X connect 9 1 7 0;
#X connect 10 0 11 1;
#X connect 11 0 3 0;
#X connect 12 0 13 0;
#X connect 13 0 14 1;
#X connect 14 0 1 0;
#X restore 143 444 pd sync_flush;
#X obj 514 583 s TO_VIDEO;
#N canvas 583 52 623 588 lecture 0;
#X obj 341 26 r \$0-beat;
#X obj 246 176 mod;
#X obj 255 214 select 0;
#X msg 412 127 6;
#X msg 92 394 UPIC index \$1;
#X obj 86 459 s TO_VIDEO;
#X obj 533 114 * 24;
#X obj 533 88 r \$0-quarters;
#X obj 396 205 /;
#X obj 528 152 t b f;
#X obj 138 203 r \$0-sync;
#X obj 86 430 spigot;
#X obj 56 186 mod;
#X obj 56 207 select 0;
#X obj 55 253 outlet;
#X obj 335 178 r PLAY;
#X obj 56 230 spigot;
#X obj 103 139 +, f 5;
#X obj 89 116 r \$0-offset;
#X msg 341 66 24;
#X msg 364 86 12;
#X msg 388 107 8;
#X obj 52 64 r CLOCK;
#X obj 318 144 t f f f;
#X floatatom 281 48 5 0 0 0 - - -;
#X obj 93 360 *;
#X obj 270 242 f;
#X obj 266 296 + 1;
#X obj 310 298 mod;
#X msg 376 241 1 \$1;
#X obj 376 263 /;
#X msg 336 200 0;
#X obj 66 9 r \$0-busy;
#X obj 148 21 r \$0-enable;
#X obj 146 43 t b f;
#X obj 126 65 &&;
#X obj 56 90 spigot;
#X obj 341 46 select 0 1 2 3 4;
#X msg 442 89 3;
#X connect 0 0 24 0;
#X connect 0 0 37 0;
#X connect 1 0 2 0;
#X connect 2 0 26 0;
#X connect 3 0 23 0;
#X connect 4 0 11 0;
#X connect 6 0 9 0;
#X connect 7 0 6 0;
#X connect 8 0 25 1;
#X connect 8 0 29 0;
#X connect 9 0 8 0;
#X connect 9 1 8 1;
#X connect 10 0 11 1;
#X connect 10 0 16 1;
#X connect 11 0 5 0;
#X connect 12 0 13 0;
#X connect 13 0 16 0;
#X connect 15 0 31 0;
#X connect 16 0 14 0;
#X connect 17 0 1 0;
#X connect 18 0 17 1;
#X connect 19 0 23 0;
#X connect 20 0 23 0;
#X connect 21 0 23 0;
#X connect 22 0 36 0;
#X connect 23 0 1 1;
#X connect 23 0 12 1;
#X connect 23 1 8 0;
#X connect 25 0 4 0;
#X connect 26 0 25 0;
#X connect 26 0 27 0;
#X connect 27 0 28 0;
#X connect 28 0 26 1;
#X connect 29 0 30 0;
#X connect 30 0 28 1;
#X connect 31 0 26 0;
#X connect 32 0 35 0;
#X connect 33 0 34 0;
#X connect 34 0 35 0;
#X connect 34 1 35 1;
#X connect 35 0 36 1;
#X connect 36 0 17 0;
#X connect 36 0 12 0;
#X connect 37 0 19 0;
#X connect 37 1 20 0;
#X connect 37 2 21 0;
#X connect 37 3 3 0;
#X connect 37 4 38 0;
#X connect 38 0 23 0;
#X restore 138 415 pd lecture synchro index;
#X msg 146 470 note \$1 \$2;
#X obj 599 411 u_parameter \$0 offset;
#X obj 828 258 round_param \$0 offset;
#X obj 599 431 u_parameter \$0 margins;
#X obj 605 509 r \$0-margins;
#X msg 621 543 UPIC margins \$1;
#X obj 154 339 s \$0-enable-rcv;
#X obj 345 460 until;
#X obj 350 486 f;
#X obj 384 488 + 1;
#X obj 384 510 mod 127;
#X msg 345 439 127;
#X msg 303 509 note \$1 0;
#N canvas 0 50 450 300 stop 0;
#X obj 66 39 r \$0-busy;
#X obj 148 51 r \$0-enable;
#X obj 146 73 t b f;
#X obj 126 95 &&;
#X obj 126 117 change;
#X obj 126 139 select 0;
#X msg 126 161 stop;
#X obj 126 183 outlet;
#X connect 0 0 3 0;
#X connect 1 0 2 0;
#X connect 2 0 3 0;
#X connect 2 1 3 1;
#X connect 3 0 4 0;
#X connect 4 0 5 0;
#X connect 5 0 6 0;
#X connect 6 0 7 0;
#X restore 275 473 pd stop;
#X obj 598 332 u_dispatch \$0 transp;
#X obj 599 451 u_parameter \$0 flip;
#X obj 101 101 cnv 15 188 68 empty \$0-background data_upic-0 0 7 0
12 -260818 -1 0;
#X obj 218 104 vsl 70 17 1 0 0 0 \$0-presets \$0-presets-rcv PRESETS
2 5 0 10 -232576 -232576 -1 0 1;
#X obj 233 124 tgl 15 0 \$0-enable \$0-enable-rcv enable 17 7 0 10
-262144 -1 -1 0 1;
#X obj 171 101 bng 15 250 50 0 \$0-get_calibration_points empty CAL
0 8 0 8 -257985 -1 -1;
#X obj 187 100 tgl 15 0 \$0-sync \$0-sync-rcv Sync 7 7 0 10 -4032 -1
-1 0 1;
#X obj 101 114 bng 18 250 50 0 empty empty empty 17 7 0 10 -262144
-1 -1;
#X obj 119 114 bng 18 250 50 0 empty empty empty 17 7 0 10 -262144
-1 -1;
#X obj 100 115 ui_vs \$0 quarters 1 64;
#X text 106 113 -|+;
#X obj 170 125 bng 8 50 20 0 empty \$0-noteout-rcv NOTE 0 -4 0 7 -1
-258113 -1;
#X obj 248 155 hsl 40 15 0 100 0 0 \$0-offset \$0-offset-rcv OFFSET
4 6 0 10 -4032 -1 -1 0 1;
#X obj 248 140 hsl 40 15 0 0.3 0 0 \$0-margins \$0-margins-rcv MARGINS
1 6 0 10 -204786 -1 -1 0 1;
#X obj 222 154 bng 15 250 50 0 empty empty ! 4 9 0 12 -262130 -1 -258113
;
#X obj 223 139 tgl 15 0 \$0-flip \$0-flip-rcv FLIP 0 7 0 10 -262144
-1 -1 0 1;
#X obj 141 115 vradio 11 1 0 5 \$0-beat \$0-beat-rcv empty 0 -8 0 10
-4032 -260097 -1 3;
#X obj 706 124 round_param \$0 transp;
#X obj 599 473 u_parameter \$0 enable;
#X obj 181 115 ui_vs \$0 transp 0 79;
#X obj 598 294 module_loader data_upic \$0 \$1;
#X obj 157 266 inlet data;
#X obj 302 532 outlet data;
#X obj 4 259 inlet~;
#X obj 1 283 outlet~;
#X obj 74 259 inlet~;
#X obj 71 283 outlet~;
#X obj 153 290 route enable source;
#N canvas 0 50 450 300 gestion_messages(data_feuille) 0;
#X obj 88 23 inlet;
#X obj 78 73 route off listen_to_tracker;
#X obj 82 231 s \$0-enable-rcv;
#X msg 82 186 0;
#X msg 124 202 1;
#X obj 130 168 s TO_VIDEO;
#X msg 162 139 UPIC listen_to_tracker \$1;
#X msg 97 112 UPIC listen_off;
#X connect 0 0 1 0;
#X connect 1 0 3 0;
#X connect 1 0 7 0;
#X connect 1 1 4 0;
#X connect 1 1 6 0;
#X connect 3 0 2 0;
#X connect 4 0 2 0;
#X connect 6 0 5 0;
#X connect 7 0 5 0;
#X restore 215 312 pd gestion_messages(data_feuille);
#X obj 100 154 cnv 13 36 13 empty empty empty 20 12 0 14 -262130 -66577
0;
#X floatatom 101 153 5 0 0 0 - #0-quarters -;
#X obj 439 151 r STOP;
#X text 141 145 1/16;
#X text 140 113 1/4;
#X text 140 123 1/8;
#X text 140 134 1/12;
#X text 141 154 1/32;
#X obj 479 372 r \$0-transp;
#X obj 479 424 delay 50;
#X obj 479 394 t b;
#X obj 898 216 namecanvas \$0-this;
#X obj 896 193 triggered_loadbang \$0-this;
#X text 891 143 manually trigger loadbang if the instance of abstraction
is created dynamically, f 29;
#X obj 874 56 declare -path pdr/core;
#X obj 874 79 declare -path pdr/core/stuff;
#X obj 874 108 declare -path pdr/core/rj;
#X connect 3 0 40 0;
#X connect 4 0 22 0;
#X connect 10 0 11 0;
#X connect 11 0 27 0;
#X connect 12 0 10 0;
#X connect 14 0 15 1;
#X connect 15 0 17 0;
#X connect 16 0 15 0;
#X connect 18 0 15 0;
#X connect 19 0 21 0;
#X connect 20 0 24 0;
#X connect 21 0 20 0;
#X connect 22 0 23 1;
#X connect 22 1 62 0;
#X connect 23 0 26 0;
#X connect 25 0 23 0;
#X connect 26 0 62 0;
#X connect 27 0 29 0;
#X connect 29 0 41 0;
#X connect 30 0 31 0;
#X connect 31 0 24 0;
#X connect 33 0 34 0;
#X connect 34 0 35 0;
#X connect 34 0 38 0;
#X connect 35 0 36 0;
#X connect 36 0 34 1;
#X connect 37 0 33 0;
#X connect 38 0 62 0;
#X connect 39 0 62 0;
#X connect 40 0 12 0;
#X connect 41 0 58 0;
#X connect 47 0 18 0;
#X connect 48 0 16 0;
#X connect 54 0 37 0;
#X connect 60 0 3 0;
#X connect 61 0 60 0;
#X connect 61 0 67 0;
#X connect 63 0 64 0;
#X connect 65 0 66 0;
#X connect 67 0 32 0;
#X connect 67 1 68 0;
#X connect 67 2 4 0;
#X connect 71 0 37 0;
#X connect 77 0 79 0;
#X connect 78 0 37 0;
#X connect 79 0 78 0;
#X coords 0 -1 1 1 190 70 1 100 100;
