#N canvas 0 57 1920 1023 10;
#X msg 341 418 sr 44100;
#X msg 458 481 stop;
#X text 504 484 stop playing;
#X obj 595 182 unpack f f;
#X obj 592 263 mtof;
#X obj 592 284 / 261.6;
#X obj 507 332 dbtorms;
#X obj 319 369 loadbang;
#X obj 192 521 s_playtable2;
#X obj 603 449 list prepend \$1;
#X obj 324 12 inlet;
#X obj 95 600 outlet~;
#X obj 221 628 outlet~;
#X obj 1027 398 s \$2;
#X obj 969 359 f, f 5;
#X obj 828 338 t b b;
#X obj 699 429 symbol;
#X obj 573 427 pack f f f f;
#X msg 491 591 \$1 \$2 \$3 \$4 \$5;
#X obj 673 479 list prepend 0;
#X obj 670 525 route 0;
#X obj 783 592 * -1;
#X obj 841 609 +;
#X obj 718 636 pack s f f f f;
#X obj 615 543 list;
#X msg 911 435 0;
#X obj 937 383 t b;
#X msg 603 218 stop;
#X obj 401 167 t l l b;
#X obj 373 257 switch~;
#X obj 563 387 s \$0-speed;
#N canvas 0 50 450 300 sustain 0;
#X obj 101 234 outlet;
#X obj 115 188 / 1;
#X obj 155 160 t b f;
#X obj 192 133 r \$0-speed;
#X obj 78 76 r \$0-global_sustain;
#X obj 229 223 max 1;
#X connect 1 0 5 0;
#X connect 2 0 1 0;
#X connect 2 1 1 1;
#X connect 3 0 2 0;
#X connect 4 0 1 0;
#X connect 5 0 0 0;
#X restore 850 182 pd sustain;
#N canvas 0 50 450 300 sustain 0;
#X obj 101 234 outlet;
#X obj 115 188 / 1;
#X obj 155 160 t b f;
#X obj 192 133 r \$0-speed;
#X obj 78 76 r \$0-global_sustain;
#X connect 1 0 0 0;
#X connect 2 0 1 0;
#X connect 2 1 1 1;
#X connect 3 0 2 0;
#X connect 4 0 1 0;
#X restore 660 383 pd sustain;
#X obj 506 397 min 1.1;
#X obj 737 545 unpack f s f f f f;
#X obj 506 367 max 0.2;
#X msg 248 462 fade 2 2;
#X obj 244 433 loadbang;
#X obj 593 116 list append;
#X obj 832 285 list prepend 0;
#X obj 838 311 select 0 1;
#X obj 324 36 list prepend 0;
#X obj 322 54 route 0 1;
#X msg 818 387 stop;
#N canvas 0 50 460 339 pan 0;
#X obj 234 244 * -1;
#X obj 232 220 - 1;
#X obj 213 175 min 0.8;
#X obj 214 197 max 0.2;
#X obj 236 120 * 0.6;
#X obj 236 145 + 0.2;
#X obj 208 30 mod 10;
#X obj 236 95 / 10;
#X obj 169 18 inlet m;
#X obj 110 273 outlet;
#X obj 234 266 outlet;
#X connect 0 0 10 0;
#X connect 1 0 0 0;
#X connect 2 0 3 0;
#X connect 3 0 1 0;
#X connect 3 0 9 0;
#X connect 4 0 5 0;
#X connect 5 0 2 0;
#X connect 6 0 7 0;
#X connect 7 0 4 0;
#X connect 8 0 6 0;
#X restore 180 443 pd pan;
#X obj 157 572 *~ 0.5;
#X obj 217 572 *~ 0.5;
#X msg 446 219 1;
#X obj 572 4 spigot;
#X msg 632 -22 0;
#X obj 588 38 f;
#X obj 588 60 select 0 1;
#X msg 870 61 1;
#X obj 812 79 spigot;
#X obj 774 154 t b b;
#X msg 874 104 0;
#X obj 654 0 r \$3-sync;
#X obj 968 195 r \$3-loop;
#X obj 418 9 r \$3-loop;
#X obj 705 406 r \$3-table;
#X obj 799 434 r \$3-reverse;
#X obj 280 85 route note;
#X obj 393 84 route remove note;
#X msg 392 133 \$2 \$1;
#X obj 638 361 r \$0-global_offset;
#X obj 898 520 r \$0-global_sustain;
#N canvas 536 118 821 581 global_sustain/offset 0;
#X obj 223 129 *;
#X obj 282 153 -;
#X obj 334 234 *;
#X obj 283 176 * -1;
#X obj 280 198 t b f;
#X obj 286 75 t b b f f f;
#X obj 282 37 r \$3-global_duree;
#X obj 78 34 r \$3-sustain;
#X obj 129 127 +;
#X obj 136 64 r \$0-local_sustain;
#X obj 136 86 t b f;
#X obj 129 149 min 1;
#X obj 130 173 max 0;
#X obj 258 344 s \$0-global_sustain;
#X obj 334 305 s \$0-global_offset;
#X obj 396 86 r \$3-offset;
#X obj 519 78 r \$0-local_offset;
#X obj 384 152 +;
#X obj 519 100 t b f;
#X obj 384 174 min 1;
#X obj 384 196 max 0;
#X floatatom 196 86 5 0 0 0 - - -;
#X obj 223 151 max 5;
#X connect 0 0 22 0;
#X connect 1 0 3 0;
#X connect 2 0 14 0;
#X connect 3 0 4 0;
#X connect 4 0 2 0;
#X connect 4 1 2 1;
#X connect 5 0 2 0;
#X connect 5 0 0 0;
#X connect 5 2 0 1;
#X connect 5 3 1 1;
#X connect 6 0 5 0;
#X connect 7 0 8 0;
#X connect 8 0 11 0;
#X connect 9 0 10 0;
#X connect 9 0 21 0;
#X connect 10 0 8 0;
#X connect 10 1 8 1;
#X connect 11 0 12 0;
#X connect 12 0 0 0;
#X connect 15 0 17 0;
#X connect 16 0 18 0;
#X connect 17 0 19 0;
#X connect 18 0 17 0;
#X connect 18 1 17 1;
#X connect 19 0 20 0;
#X connect 20 0 2 0;
#X connect 22 0 1 0;
#X connect 22 0 13 0;
#X restore 60 39 pd global_sustain/offset;
#X obj 73 216 s \$0-local_sustain;
#X obj 212 199 s \$0-local_offset;
#X obj 88 146 route sustain offset pos pitchbend;
#X obj 514 210 mtof;
#X obj 514 235 / 8.175;
#X obj 587 320 * 1;
#X obj 513 270 t b f;
#X obj 654 263 mtof;
#X msg 673 305 1;
#X obj 929 487 s \$0-local_sustain;
#X obj 933 463 s \$0-local_offset;
#X msg 675 227 60;
#X floatatom 659 285 5 0 0 0 - - -;
#X obj 707 184 r \$3-root_key;
#X obj 978 20 t b b;
#X obj 980 52 timer;
#X obj 1031 98 t b;
#X obj 980 98 t b;
#X text 1061 53 bypass sync for small values;
#X obj 930 411 delay 100;
#X obj 752 222 t b f f b;
#X obj 759 264 delay;
#X obj 980 75 moses 50;
#X floatatom 1124 106 5 0 0 0 - - -;
#X obj 1069 21 r \$3-clock_16th_time;
#X obj 815 0 r \$3-clock_16th;
#X connect 0 0 8 1;
#X connect 1 0 8 1;
#X connect 3 0 6 0;
#X connect 3 1 44 0;
#X connect 3 1 87 0;
#X connect 4 0 5 0;
#X connect 5 0 72 0;
#X connect 6 0 35 0;
#X connect 7 0 0 0;
#X connect 8 0 45 0;
#X connect 8 1 46 0;
#X connect 9 0 19 0;
#X connect 10 0 41 0;
#X connect 14 0 13 0;
#X connect 14 0 26 0;
#X connect 15 0 1 0;
#X connect 15 1 14 0;
#X connect 16 0 9 1;
#X connect 17 0 9 0;
#X connect 18 0 8 0;
#X connect 19 0 20 0;
#X connect 20 0 24 0;
#X connect 20 1 34 0;
#X connect 21 0 23 2;
#X connect 22 0 23 3;
#X connect 23 0 8 0;
#X connect 24 0 18 0;
#X connect 25 0 29 0;
#X connect 25 0 77 0;
#X connect 25 0 76 0;
#X connect 26 0 49 0;
#X connect 26 0 86 0;
#X connect 27 0 86 0;
#X connect 28 0 3 0;
#X connect 28 1 38 1;
#X connect 28 2 27 0;
#X connect 28 2 47 0;
#X connect 31 0 88 1;
#X connect 32 0 17 3;
#X connect 33 0 17 0;
#X connect 34 1 23 0;
#X connect 34 2 23 1;
#X connect 34 3 21 0;
#X connect 34 4 22 0;
#X connect 34 5 23 4;
#X connect 35 0 33 0;
#X connect 36 0 8 1;
#X connect 37 0 36 0;
#X connect 38 0 3 0;
#X connect 39 0 40 0;
#X connect 40 0 15 0;
#X connect 40 1 48 0;
#X connect 41 0 42 0;
#X connect 42 0 61 0;
#X connect 42 1 62 0;
#X connect 44 0 45 1;
#X connect 44 1 46 1;
#X connect 45 0 11 0;
#X connect 46 0 12 0;
#X connect 47 0 29 0;
#X connect 47 0 48 1;
#X connect 48 0 50 0;
#X connect 49 0 48 1;
#X connect 50 0 51 0;
#X connect 51 0 38 0;
#X connect 51 1 81 0;
#X connect 52 0 53 1;
#X connect 53 0 54 0;
#X connect 54 0 38 0;
#X connect 54 1 55 0;
#X connect 54 1 82 0;
#X connect 55 0 53 1;
#X connect 56 0 50 1;
#X connect 57 0 39 1;
#X connect 58 0 41 1;
#X connect 59 0 16 0;
#X connect 60 0 19 1;
#X connect 61 0 63 0;
#X connect 61 1 69 0;
#X connect 62 0 15 0;
#X connect 62 1 63 0;
#X connect 62 2 69 0;
#X connect 63 0 28 0;
#X connect 64 0 17 2;
#X connect 65 0 22 1;
#X connect 69 0 67 0;
#X connect 69 1 68 0;
#X connect 69 2 68 0;
#X connect 69 3 70 0;
#X connect 70 0 71 0;
#X connect 71 0 73 0;
#X connect 72 0 30 0;
#X connect 72 0 17 1;
#X connect 73 0 72 0;
#X connect 73 1 72 1;
#X connect 74 0 5 1;
#X connect 74 0 79 0;
#X connect 75 0 72 1;
#X connect 78 0 74 0;
#X connect 80 0 74 0;
#X connect 81 0 82 0;
#X connect 81 1 82 1;
#X connect 82 0 89 0;
#X connect 83 0 52 0;
#X connect 84 0 38 0;
#X connect 86 0 25 0;
#X connect 86 0 75 0;
#X connect 87 0 88 0;
#X connect 87 1 4 0;
#X connect 87 2 14 1;
#X connect 88 0 39 0;
#X connect 89 0 84 0;
#X connect 89 1 83 0;
#X connect 91 0 89 1;
#X connect 92 0 53 0;
