#N canvas 0 50 691 479 10;
#X obj 133 112 inlet;
#X obj 297 114 inlet;
#X obj 155 233 outlet~;
#X obj 221 234 outlet~;
#X obj 311 440 outlet;
#X obj 431 196 route fade stop;
#X obj 490 236 t b;
#X msg 472 300 0;
#X obj 473 365 switch~;
#X obj 380 270 t b;
#X msg 385 304 1;
#X msg 414 241 stop;
#X obj 472 278 delay 2;
#X obj 155 211 pdr/core/rj/s_playtable2;
#X connect 0 0 9 0;
#X connect 0 0 13 0;
#X connect 1 0 5 0;
#X connect 1 0 13 1;
#X connect 5 0 12 1;
#X connect 5 1 6 0;
#X connect 6 0 12 0;
#X connect 7 0 8 0;
#X connect 9 0 10 0;
#X connect 9 0 11 0;
#X connect 10 0 8 0;
#X connect 11 0 12 0;
#X connect 12 0 7 0;
#X connect 13 0 2 0;
#X connect 13 1 3 0;
#X connect 13 2 4 0;
