#N canvas 750 250 450 473 10;
#X declare -path ../../../../../ressources/core;
#X declare -path ../../../../../ressources/rj;
#X text 28 15 wrapper for using automatonism abstractions inside PdRacks
presets and midi-mapping framework;
#X obj 87 241 u_r \$1 ahr-curve s r 0 1 lin 0;
#X obj 87 311 u_r \$1 ahr-cycle s r 0 1 lin 0;
#X obj 87 271 u_r \$1 ahr-fast/med/slow s r 0 2 lin 0;
#X text 28 64 (c) Jean-Yves Gratius 2018;
#X obj 86 155 u_r \$1 ahr-attack s r 1.27 127 log 0;
#X obj 87 181 u_r \$1 ahr-hold s r 1.27 127 log 0;
#X obj 87 211 u_r \$1 ahr-release s r 1.27 127 log 0;
#N canvas 1 56 450 300 declarative-stuff 0;
#X obj 118 65 declare -path ../../../../../ressources/core;
#X obj 117 87 declare -path ../../../../../ressources/rj;
#X obj 118 152 r \$1-ID;
#X obj 117 244 s \$1-instance-num;
#X obj 118 197 makefilename %d;
#X msg 118 222 label \$1;
#X obj 118 175 pipe f 10;
#X text 139 121 Affichage du numero d'instance;
#X connect 2 0 6 0;
#X connect 4 0 5 0;
#X connect 5 0 3 0;
#X connect 6 0 4 0;
#X restore 253 73 pd declarative-stuff;
#X obj 84 126 module_loader ahr \$1 \$2;
#X connect 1 0 3 0;
#X connect 3 0 2 0;
#X connect 5 0 6 0;
#X connect 6 0 7 0;
#X connect 7 0 1 0;
#X connect 9 0 5 0;
