#N canvas 610 140 885 504 10;
#X declare -path pdr/core;
#X declare -path pdr/core/stuff;
#X declare -path pdr/core/rj;
#N canvas 1 56 450 300 declarative-stuff 0;
#X obj 118 152 r \$1-ID;
#X obj 117 244 s \$1-instance-num;
#X obj 118 197 makefilename %d;
#X msg 118 222 label \$1;
#X obj 118 175 pipe f 10;
#X text 139 121 Affichage du numero d'instance;
#X obj 118 35 declare -path pdr/core;
#X obj 119 61 declare -path pdr/core/stuff;
#X obj 119 81 declare -path pdr/core/rj;
#X connect 0 0 4 0;
#X connect 2 0 3 0;
#X connect 3 0 1 0;
#X connect 4 0 2 0;
#X restore 433 43 pd declarative-stuff;
#X obj 86 85 u_r \$1 bwl-osc-pitch s r 0 127 lin 0;
#X obj 86 115 u_r \$1 bwl-osc-pwidth s r 0 127 lin 0;
#X obj 82 147 u_r \$1 bwl-osc-cv-att s r 0 127 lin 199;
#X obj 88 171 u_r \$1 bwl-osc-fm-att s r 0 127 lin 199;
#X obj 86 209 u_r \$1 bwl-osc-wform s r 0 3 lin 0;
#X obj 93 36 module_loader bwl-osc \$1 \$2;
#X connect 1 0 2 0;
#X connect 2 0 3 0;
#X connect 3 0 4 0;
#X connect 4 0 5 0;
#X connect 6 0 1 0;
