#N canvas 366 70 913 581 10;
#X obj 34 3 inlet;
#X obj 117 275 t b f;
#X obj 119 323 unpack f f;
#X obj 41 297 ofHead;
#X obj 46 413 ofTranslate;
#X obj 41 440 ofCircle 5;
#X msg 33 75 0;
#X obj 59 25 loadbang;
#X msg 172 60 1;
#X obj 392 0 inlet service;
#X obj 63 136 f;
#X obj 43 165 t f f;
#X obj 59 103 select 1 0;
#X msg 115 143 0;
#X obj 401 559 outlet;
#X obj 321 198 change;
#X text 444 237 blob 0 add 380.201 334.797 60.3974 8.47717 -23.0513
142.326;
#X text 540 262 cog.x cog.y width height angle perimeter area;
#X obj 120 301 ofGetPolyline2dPoint @myPolyline2d;
#X obj 31 331 ofDrawPolyline2d @myPolyline2d;
#X msg 649 56 clear;
#X obj 162 85 change;
#X obj 270 22 route add;
#X obj 273 42 route lineTo;
#X obj 272 -3 t a a;
#X obj 486 398 ofGetPolyline2dArea @myPolyline2d;
#X obj 562 338 ofGetPolyline2dCentroid @myPolyline2d;
#X obj 543 358 ofGetPolyline2dBoundingBox @myPolyline2d;
#X obj 505 378 ofGetPolyline2dPerimeter @myPolyline2d;
#X obj 644 292 f \$1;
#X obj 486 285 t b b b b b b, f 14;
#X obj 543 454 list prepend;
#X obj 562 428 list prepend;
#X obj 486 504 list prepend;
#X obj 505 478 list prepend;
#X obj 486 548 list trim;
#X obj 495 67 route done;
#X obj 471 142 t b;
#X obj 192 162 + 1;
#X obj 325 262 f \$1;
#X obj 327 229 select 0;
#X msg 376 520 blob \$1 remove;
#X obj 486 526 list prepend blob;
#X msg 644 314 \$1 add;
#X obj 261 80 t b, f 5;
#X obj 192 140 f 1;
#X msg 312 110 0;
#X obj 663 477 list append 0;
#X obj 393 29 route reset active get_index;
#X obj 164 191 *;
#X msg 177 558 blob \$3 value@index \$1 \$2;
#X obj 176 534 list append \$1;
#X obj 177 487 -;
#X obj 213 487 -;
#X obj 177 509 pack f f;
#X obj 183 437 unpack f f;
#X obj 181 234 spigot;
#X obj 181 256 mod;
#X obj 230 211 t f f;
#X obj 45 473 ofHead;
#X obj 32 521 ofTranslate;
#X obj 293 441 expr $f1*$f1+$f2*$f2;
#X obj 293 463 sqrt;
#X obj 41 550 ofCircle;
#X obj 293 485 / 2;
#X obj 10 500 ofSetColor 127 0 0 64;
#X obj 13 210 select 1;
#X msg 101 228 1;
#X obj 30 257 t f f;
#X obj 31 353 spigot;
#X obj 540 184;
#X obj 220 105 t b;
#X floatatom 561 116 5 0 0 0 - - -, f 5;
#X floatatom 630 118 5 0 0 0 - - -, f 5;
#X floatatom 192 184 5 0 0 0 - - -, f 5;
#X floatatom 131 234 5 0 0 0 - - -, f 5;
#X floatatom 853 127 5 0 0 0 - - -, f 5;
#X obj 181 212 f;
#N canvas 0 50 450 300 ofLoadPolyline2d 1;
#X obj 89 41 inlet;
#X obj 69 244 outlet;
#X obj 346 229 outlet;
#X obj 286 33 table \$0-x 1000;
#X obj 286 53 table \$0-y 1000;
#X restore 630 96 pd ofLoadPolyline2d @myPolyline2d;
#X connect 0 0 24 0;
#X connect 1 0 18 0;
#X connect 1 1 18 0;
#X connect 2 0 4 1;
#X connect 2 0 52 0;
#X connect 2 1 4 2;
#X connect 2 1 53 0;
#X connect 3 0 19 0;
#X connect 4 0 5 0;
#X connect 6 0 21 0;
#X connect 6 0 10 0;
#X connect 7 0 6 0;
#X connect 8 0 21 0;
#X connect 9 0 48 0;
#X connect 10 0 11 0;
#X connect 11 0 66 0;
#X connect 11 0 3 0;
#X connect 11 1 15 0;
#X connect 12 0 10 0;
#X connect 12 1 13 0;
#X connect 13 0 11 0;
#X connect 15 0 40 0;
#X connect 18 0 2 0;
#X connect 19 0 69 0;
#X connect 21 0 10 0;
#X connect 22 0 23 0;
#X connect 23 0 44 0;
#X connect 24 0 22 0;
#X connect 24 1 36 0;
#X connect 25 0 33 0;
#X connect 26 0 32 0;
#X connect 26 0 55 0;
#X connect 27 0 31 0;
#X connect 27 0 61 0;
#X connect 28 0 34 0;
#X connect 29 0 43 0;
#X connect 30 0 25 0;
#X connect 30 1 28 0;
#X connect 30 3 27 0;
#X connect 30 4 26 0;
#X connect 30 5 29 0;
#X connect 31 0 47 0;
#X connect 32 0 31 1;
#X connect 33 0 42 0;
#X connect 34 0 33 1;
#X connect 35 0 14 0;
#X connect 36 0 37 0;
#X connect 36 1 78 0;
#X connect 37 0 30 0;
#X connect 37 0 67 0;
#X connect 38 0 45 1;
#X connect 38 0 49 1;
#X connect 38 0 74 0;
#X connect 39 0 41 0;
#X connect 40 0 39 0;
#X connect 41 0 14 0;
#X connect 42 0 35 0;
#X connect 43 0 32 1;
#X connect 44 0 71 0;
#X connect 45 0 38 0;
#X connect 46 0 45 0;
#X connect 47 0 34 1;
#X connect 48 0 6 0;
#X connect 48 0 20 0;
#X connect 48 0 46 0;
#X connect 48 1 12 0;
#X connect 48 2 49 0;
#X connect 48 2 72 0;
#X connect 49 0 77 0;
#X connect 50 0 14 0;
#X connect 51 0 50 0;
#X connect 52 0 54 0;
#X connect 53 0 54 1;
#X connect 54 0 51 0;
#X connect 55 0 52 1;
#X connect 55 0 60 1;
#X connect 55 1 53 1;
#X connect 55 1 60 2;
#X connect 56 0 57 0;
#X connect 57 0 1 0;
#X connect 58 0 56 1;
#X connect 58 1 57 1;
#X connect 59 0 65 0;
#X connect 60 0 63 0;
#X connect 61 0 62 0;
#X connect 62 0 64 0;
#X connect 64 0 63 1;
#X connect 65 0 60 0;
#X connect 66 1 68 0;
#X connect 67 0 68 0;
#X connect 68 0 69 1;
#X connect 68 1 59 0;
#X connect 69 0 4 0;
#X connect 71 0 8 0;
#X connect 71 0 45 0;
#X connect 77 0 56 0;
#X connect 77 0 75 0;
#X connect 78 1 58 0;
