#N canvas 357 50 913 694 10;
#X obj 34 3 inlet;
#X obj 119 323 unpack f f;
#X obj 41 297 ofHead;
#X obj 46 413 ofTranslate;
#X obj 41 440 ofCircle 5;
#X msg 46 53 0;
#X obj 59 25 loadbang;
#X msg 108 56 1;
#X obj 392 0 inlet service;
#X obj 30 150 f;
#X obj 96 108 select 1 0;
#X msg 115 143 0;
#X obj 401 559 outlet;
#X obj 321 198 change;
#X text 462 249 blob 0 add 380.201 334.797 60.3974 8.47717 -23.0513
142.326;
#X text 540 262 cog.x cog.y width height angle perimeter area;
#X msg 399 83 clear;
#X obj 270 22 route add;
#X obj 272 -3 t a a;
#X obj 644 292 f \$1;
#X obj 486 285 t b b b b b b, f 14;
#X obj 543 454 list prepend;
#X obj 562 428 list prepend;
#X obj 486 504 list prepend;
#X obj 505 478 list prepend;
#X obj 486 548 list trim;
#X obj 495 67 route done;
#X obj 310 135 + 1;
#X obj 325 262 f \$1;
#X obj 327 229 select 0;
#X msg 376 520 blob \$1 remove;
#X obj 486 526 list prepend blob;
#X msg 644 314 \$1 add;
#X obj 253 97 t b, f 5;
#X obj 252 142 f 1;
#X msg 312 110 0;
#X obj 663 477 list append 0;
#X msg 177 558 blob \$3 value@index \$1 \$2;
#X obj 176 534 list append \$1;
#X obj 177 487 -;
#X obj 213 487 -;
#X obj 177 509 pack f f;
#X obj 183 437 unpack f f;
#X obj 45 473 ofHead;
#X obj 32 521 ofTranslate;
#X obj 293 441 expr $f1*$f1+$f2*$f2;
#X obj 293 463 sqrt;
#X obj 41 550 ofCircle;
#X obj 293 485 / 2;
#X obj 10 500 ofSetColor 127 0 0 64;
#X obj 0 219 select 1;
#X msg 101 228 1;
#X obj 79 258 t f f;
#X obj 31 383 spigot;
#X obj 220 105 t b;
#X floatatom 630 118 5 0 0 0 - - -, f 5;
#X floatatom 853 127 5 0 0 0 - - -, f 5;
#X obj 273 42 route lineTo;
#X floatatom 305 167 5 0 0 0 - - -, f 5;
#X obj 630 96 ofLoadPolyline2d \$0-myPolyline2d;
#N canvas 355 57 659 514 getPoint@Index 0;
#X obj 61 466 outlet;
#X obj 235 16 inlet size;
#X obj 103 21 inlet float_index;
#X obj 147 82 spigot;
#X obj 196 225 mod;
#X obj 148 132 t f f;
#X obj 185 154 int;
#X obj 185 181 t f f;
#X obj 185 203 + 1;
#X obj 147 104 *;
#X obj 227 44 t f f f f;
#X obj 305 214 mod;
#X obj 287 349 unpack f f;
#X obj 148 154 -;
#X obj 91 195 t f f;
#X obj 125 221 * -1;
#X obj 125 243 + 1;
#X obj 254 396 *;
#X obj 324 399 *;
#X obj 125 265 t f f;
#X obj 167 339 unpack f f;
#X obj 134 386 *;
#X obj 204 389 *;
#X obj 95 345 t f f;
#X obj 206 434 +;
#X obj 134 408 +;
#X obj 134 430 pack f f;
#X floatatom 103 43 5 0 0 0 - - -, f 5;
#X obj 214 286 ofGetPolyline2dPoint \$0-myPolyline2d;
#X obj 287 327 ofGetPolyline2dPoint \$0-myPolyline2d;
#X obj 214 260 t b f;
#X obj 314 260 t b f;
#X obj 328 124 + 1;
#X obj 276 124 + 0;
#X obj 227 66 > 1;
#X text 318 40 Interpolation linéaire entre 2 points du contour;
#X connect 1 0 10 0;
#X connect 2 0 3 0;
#X connect 2 0 27 0;
#X connect 3 0 9 0;
#X connect 4 0 30 0;
#X connect 5 0 13 0;
#X connect 5 1 6 0;
#X connect 6 0 7 0;
#X connect 6 0 13 1;
#X connect 7 0 8 0;
#X connect 7 1 11 0;
#X connect 8 0 4 0;
#X connect 9 0 5 0;
#X connect 10 0 34 0;
#X connect 10 1 9 1;
#X connect 10 2 33 0;
#X connect 11 0 31 0;
#X connect 12 0 17 1;
#X connect 12 1 18 1;
#X connect 13 0 14 0;
#X connect 14 0 23 0;
#X connect 14 1 15 0;
#X connect 15 0 16 0;
#X connect 16 0 19 0;
#X connect 17 0 25 1;
#X connect 18 0 24 1;
#X connect 19 0 17 0;
#X connect 19 1 18 0;
#X connect 20 0 21 1;
#X connect 20 1 22 1;
#X connect 21 0 25 0;
#X connect 22 0 24 0;
#X connect 23 0 21 0;
#X connect 23 1 22 0;
#X connect 24 0 26 1;
#X connect 25 0 26 0;
#X connect 26 0 0 0;
#X connect 28 0 20 0;
#X connect 29 0 12 0;
#X connect 30 0 28 0;
#X connect 30 1 28 0;
#X connect 31 0 29 0;
#X connect 31 1 29 0;
#X connect 33 0 4 1;
#X connect 33 0 11 1;
#X connect 34 0 3 1;
#X restore 190 293 pd getPoint@Index \$0-myPolyline2d;
#X obj 31 361 ofDrawPolyline2d \$0-myPolyline2d;
#X obj 562 338 ofGetPolyline2dCentroid \$0-myPolyline2d;
#X obj 543 358 ofGetPolyline2dBoundingBox \$0-myPolyline2d;
#X obj 505 378 ofGetPolyline2dPerimeter \$0-myPolyline2d;
#X obj 486 398 ofGetPolyline2dArea \$0-myPolyline2d;
#X obj 571 141 f \$0;
#X floatatom 571 163 5 0 0 0 - - -, f 5;
#X obj 572 117 bng 15 250 50 0 empty empty empty 17 7 0 10 -262144
-1 -1;
#X obj 23 129 bng 15 250 50 0 empty empty empty 17 7 0 10 -262144 -1
-1;
#X obj 46 98 t f f;
#X obj 180 171 select 1;
#X obj 46 76 change -1;
#X obj 41 572 ofSetColor 127 127 0 255;
#X obj 36 607 ofDrawText \$2-myFonts[0];
#X obj 376 599 loadbang;
#X obj 376 621 f \$1;
#X obj 376 643 + 1;
#X obj 52 185 t f f f;
#X obj 180 48 f;
#X obj 160 69 == 0;
#X obj 178 27 t b;
#X obj 471 142 t b b b;
#X msg 453 192 0;
#X obj 356 95 f;
#X obj 538 169 f;
#X obj 674 54 t b;
#X obj 371 25 route reset active get_index switch resume;
#X obj 540 196 select 1;
#X msg 282 591 text \$1;
#X connect 0 0 18 0;
#X connect 1 0 3 1;
#X connect 1 0 39 0;
#X connect 1 1 3 2;
#X connect 1 1 40 0;
#X connect 2 0 61 0;
#X connect 3 0 4 0;
#X connect 5 0 72 0;
#X connect 6 0 5 0;
#X connect 7 0 72 0;
#X connect 8 0 87 0;
#X connect 9 0 71 0;
#X connect 9 0 78 0;
#X connect 10 0 9 0;
#X connect 10 1 11 0;
#X connect 11 0 78 0;
#X connect 13 0 29 0;
#X connect 16 0 59 0;
#X connect 17 0 57 0;
#X connect 18 0 17 0;
#X connect 18 1 26 0;
#X connect 19 0 32 0;
#X connect 20 0 65 0;
#X connect 20 1 64 0;
#X connect 20 3 63 0;
#X connect 20 4 62 0;
#X connect 20 5 19 0;
#X connect 21 0 36 0;
#X connect 22 0 21 1;
#X connect 23 0 31 0;
#X connect 24 0 23 1;
#X connect 25 0 12 0;
#X connect 26 0 82 0;
#X connect 26 1 59 0;
#X connect 27 0 34 1;
#X connect 27 0 58 0;
#X connect 27 0 60 1;
#X connect 28 0 30 0;
#X connect 29 0 28 0;
#X connect 30 0 12 0;
#X connect 31 0 25 0;
#X connect 32 0 22 1;
#X connect 33 0 54 0;
#X connect 34 0 27 0;
#X connect 35 0 34 0;
#X connect 36 0 24 1;
#X connect 37 0 12 0;
#X connect 38 0 37 0;
#X connect 39 0 41 0;
#X connect 40 0 41 1;
#X connect 41 0 38 0;
#X connect 42 0 39 1;
#X connect 42 0 44 1;
#X connect 42 1 40 1;
#X connect 42 1 44 2;
#X connect 43 0 49 0;
#X connect 44 0 47 0;
#X connect 45 0 46 0;
#X connect 46 0 48 0;
#X connect 47 0 73 0;
#X connect 48 0 47 1;
#X connect 49 0 44 0;
#X connect 50 1 52 0;
#X connect 51 0 52 0;
#X connect 52 0 53 1;
#X connect 52 1 43 0;
#X connect 53 0 3 0;
#X connect 54 0 7 0;
#X connect 54 0 34 0;
#X connect 57 0 33 0;
#X connect 59 0 55 0;
#X connect 59 1 56 0;
#X connect 60 0 1 0;
#X connect 61 0 53 0;
#X connect 62 0 22 0;
#X connect 62 0 42 0;
#X connect 63 0 21 0;
#X connect 63 0 45 0;
#X connect 64 0 24 0;
#X connect 65 0 23 0;
#X connect 66 0 67 0;
#X connect 68 0 66 0;
#X connect 69 0 9 0;
#X connect 70 0 9 1;
#X connect 70 1 78 0;
#X connect 71 0 82 0;
#X connect 72 0 70 0;
#X connect 73 0 74 0;
#X connect 75 0 76 0;
#X connect 76 0 77 0;
#X connect 77 0 89 0;
#X connect 78 0 50 0;
#X connect 78 0 2 0;
#X connect 78 1 13 0;
#X connect 78 2 79 1;
#X connect 78 2 85 1;
#X connect 79 0 80 0;
#X connect 80 0 10 0;
#X connect 81 0 79 0;
#X connect 82 0 51 0;
#X connect 82 1 83 0;
#X connect 82 2 20 0;
#X connect 83 0 60 0;
#X connect 85 0 88 0;
#X connect 86 0 85 0;
#X connect 87 0 5 0;
#X connect 87 0 16 0;
#X connect 87 0 35 0;
#X connect 87 1 10 0;
#X connect 87 2 60 0;
#X connect 87 3 81 0;
#X connect 87 4 86 0;
#X connect 88 0 9 0;
#X connect 89 0 74 0;
