#N canvas 0 50 904 545 10;
#X obj 315 431 unpack f f;
#X obj 592 414 unpack f f;
#X obj 217 540 pack f f f f f f f f, f 68;
#X obj 621 167 r WIDTH;
#X obj 688 203 r HEIGHT;
#X obj 218 461 expr $f1/$f5 \; 1-$f2/$f6 \; $f3/$f5 \; 1-$f4/$f6,
f 29;
#X obj 528 461 expr $f1/$f5 \; 1-$f2/$f6 \; $f3/$f5 \; 1-$f4/$f6,
f 29;
#X obj 494 427 unpack f f;
#X obj 205 431 unpack f f;
#X obj 226 324 cvContoursPoints 4;
#X obj 226 400 route 3 2 1 0;
#X obj 204 248 cvApproxContours 0.1;
#X obj 453 147 route 0;
#X obj 453 172 list split 9;
#X obj 453 197 print;
#X obj 438 90 r tracker_update;
#X connect 0 0 5 2;
#X connect 0 1 5 3;
#X connect 1 0 6 2;
#X connect 1 1 6 3;
#X connect 3 0 5 4;
#X connect 3 0 6 4;
#X connect 4 0 5 5;
#X connect 4 0 6 5;
#X connect 5 0 2 0;
#X connect 5 1 2 1;
#X connect 5 2 2 2;
#X connect 5 3 2 3;
#X connect 6 0 2 4;
#X connect 6 1 2 5;
#X connect 6 2 2 6;
#X connect 6 3 2 7;
#X connect 7 0 6 0;
#X connect 7 1 6 1;
#X connect 8 0 5 0;
#X connect 8 1 5 1;
#X connect 9 0 10 0;
#X connect 10 0 8 0;
#X connect 10 1 0 0;
#X connect 10 2 7 0;
#X connect 10 3 1 0;
#X connect 11 0 9 0;
#X connect 12 0 13 0;
#X connect 13 1 14 0;
