#N canvas 813 166 706 429 10;
#N canvas 287 50 587 456 blob_lists 1;
#X obj 179 -15 inlet;
#X obj 48 166 until;
#X obj 48 203 f;
#X obj 48 135 t f b;
#X msg 88 167 0;
#X obj 96 203 + 1;
#X obj 67 298 sel -1;
#X obj 100 352 sel -1;
#X obj 48 235 t f f f;
#X obj 275 350 sel -1;
#N canvas 398 107 402 514 is_in_border_area 0;
#X obj 48 15 inlet;
#X obj 48 449 outlet;
#X obj 249 15 inlet;
#X floatatom 243 252 5 0 0 2 min_border - -, f 5;
#X obj 297 218 -;
#X floatatom 307 251 5 0 0 2 max_border - -, f 5;
#X obj 48 378 expr if ($f2 < $f4 || $f2 > $f5 \, $f1 \, -1) \; if ($f3
< $f4 || $f3 > $f5 \, $f1 \, -1);
#X obj 48 423 max;
#X obj 234 146 f;
#X obj 48 44 t f f f b;
#X msg 297 193 1 \$1;
#X obj 234 168 t f f;
#X obj 65 324 tabread \$0-blob_x;
#X obj 202 324 tabread \$0-blob_y;
#X connect 0 0 9 0;
#X connect 2 0 8 1;
#X connect 4 0 5 0;
#X connect 4 0 6 4;
#X connect 6 0 7 0;
#X connect 6 1 7 1;
#X connect 7 0 1 0;
#X connect 8 0 11 0;
#X connect 9 0 6 0;
#X connect 9 1 12 0;
#X connect 9 2 13 0;
#X connect 9 3 8 0;
#X connect 10 0 4 0;
#X connect 11 0 3 0;
#X connect 11 0 6 3;
#X connect 11 1 10 0;
#X connect 12 0 6 1;
#X connect 13 0 6 2;
#X restore 67 269 pd is_in_border_area;
#N canvas 883 247 313 367 remove_blob 1;
#X obj 11 8 inlet;
#X obj 11 54 sel -1;
#N canvas 484 50 431 658 remove_index 0;
#X obj 22 34 inlet;
#X text 21 15 index to remove:;
#X obj 41 180 until;
#X obj 41 206 f;
#X obj 90 205 + 1;
#X obj 228 266 - 1;
#X obj 22 58 t b b f;
#X obj 22 516 - 1;
#X obj 41 233 t f f f f f f;
#X obj 101 290 tabread \$0-blob_times;
#X obj 101 313 tabwrite \$0-blob_times;
#X obj 86 341 tabread \$0-blob_y;
#X obj 86 364 tabwrite \$0-blob_y;
#X obj 71 391 tabread \$0-blob_x;
#X obj 71 414 tabwrite \$0-blob_x;
#X obj 56 443 tabread \$0-blob_ids;
#X obj 56 466 tabwrite \$0-blob_ids;
#X obj 42 99 v \$0-blob_ids_size;
#X obj 22 490 v \$0-blob_ids_size;
#X obj 22 570 v \$0-blob_ids_size;
#X obj 41 152 -;
#X obj 42 121 - 1;
#X obj 22 538 max 1;
#X connect 0 0 6 0;
#X connect 2 0 3 0;
#X connect 3 0 8 0;
#X connect 4 0 3 1;
#X connect 5 0 10 1;
#X connect 5 0 12 1;
#X connect 5 0 14 1;
#X connect 5 0 16 1;
#X connect 6 0 18 0;
#X connect 6 1 17 0;
#X connect 6 2 4 0;
#X connect 6 2 20 1;
#X connect 7 0 22 0;
#X connect 8 0 4 0;
#X connect 8 1 15 0;
#X connect 8 2 13 0;
#X connect 8 3 11 0;
#X connect 8 4 9 0;
#X connect 8 5 5 0;
#X connect 9 0 10 0;
#X connect 11 0 12 0;
#X connect 13 0 14 0;
#X connect 15 0 16 0;
#X connect 17 0 21 0;
#X connect 18 0 7 0;
#X connect 20 0 2 0;
#X connect 21 0 20 0;
#X connect 22 0 19 0;
#X restore 22 308 pd remove_index;
#X obj 43 90 t f f;
#X obj 126 260 tabwrite \$0-blob_ids;
#X obj 136 280 tabwrite \$0-blob_x;
#X obj 146 300 tabwrite \$0-blob_y;
#X obj 156 320 tabwrite \$0-blob_times;
#X msg 86 121 -1 \$1;
#X obj 109 31 index_of_blob \$0;
#X connect 0 0 1 0;
#X connect 1 1 3 0;
#X connect 3 0 2 0;
#X connect 3 1 8 0;
#X connect 8 0 4 0;
#X connect 8 0 5 0;
#X connect 8 0 6 0;
#X connect 8 0 7 0;
#X restore 133 385 pd remove_blob;
#X floatatom 334 358 5 0 0 0 - - -, f 5;
#X obj 179 25 route borderAreaSize maxTimeInBorderArea maxTimeAtAll
;
#X obj 19 420 outlet;
#X obj 20 59 t a b;
#X obj 48 107 v \$0-blob_ids_size;
#X floatatom 122 134 5 0 0 0 - - -, f 5;
#X obj 58 331 bng 15 250 50 0 empty empty empty 17 7 0 10 -262144 -1
-1;
#X obj 141 308 bng 15 250 50 0 empty empty empty 17 7 0 10 -262144
-1 -1;
#X obj 86 80 bng 15 250 50 0 empty empty empty 17 7 0 10 -262144 -1
-1;
#X obj 320 85 send \$0-blobsize;
#X obj 207 123 r \$0-borderAreaSize;
#X obj 242 161 r \$0-maxTimeInBorderArea;
#X obj 444 197 r \$0-maxTimeAtAll;
#X obj 288 402 print remove_blob;
#X obj 322 387 bng 15 250 50 0 empty empty empty 17 7 0 10 -262144
-1 -1;
#X obj 275 324 older_than_threshold \$0;
#X obj 100 324 older_than_threshold \$0;
#X connect 0 0 13 0;
#X connect 1 0 2 0;
#X connect 2 0 8 0;
#X connect 3 0 1 0;
#X connect 3 1 4 0;
#X connect 4 0 2 1;
#X connect 5 0 2 1;
#X connect 6 0 18 0;
#X connect 6 1 19 0;
#X connect 6 1 28 0;
#X connect 7 1 11 0;
#X connect 7 1 25 0;
#X connect 8 0 5 0;
#X connect 8 1 10 0;
#X connect 8 2 27 0;
#X connect 9 1 11 0;
#X connect 9 1 25 0;
#X connect 9 1 26 0;
#X connect 10 0 6 0;
#X connect 13 0 10 1;
#X connect 13 1 28 1;
#X connect 13 2 27 1;
#X connect 13 3 15 0;
#X connect 15 0 14 0;
#X connect 15 1 16 0;
#X connect 15 1 20 0;
#X connect 16 0 3 0;
#X connect 16 0 17 0;
#X connect 22 0 10 1;
#X connect 23 0 28 1;
#X connect 24 0 27 1;
#X connect 27 0 9 0;
#X connect 27 0 12 0;
#X connect 28 0 7 0;
#X restore 84 139 pd blob_lists;
#N canvas 381 176 515 511 processBlobs 1;
#X obj 91 5 inlet;
#X obj 269 6 inlet;
#X obj 152 219 sel -1;
#X obj 209 155 t f f f;
#X obj 152 154 t f f f;
#X obj 125 55 t b a;
#N canvas 582 50 534 676 id_of_blob_by_pos 0;
#X obj 74 12 inlet;
#X obj 238 12 inlet;
#X obj 407 12 inlet;
#X obj 74 188 until;
#X obj 74 161 t f b;
#X msg 141 189 0;
#X obj 74 215 f;
#X obj 131 215 + 1;
#X obj 142 353 -;
#X obj 127 376 abs;
#X obj 223 345 -;
#X obj 223 371 abs;
#X obj 155 414 +;
#X msg 311 173 -1;
#X obj 74 245 t f f f f f;
#X obj 85 130 t f f;
#X obj 74 524 + 1;
#X obj 74 546 sel;
#X msg 343 173 10;
#X obj 74 42 t b f b b;
#X obj 296 638 outlet;
#X obj 296 612 f;
#X obj 188 539 f;
#X obj 155 456 expr if ($f1 < $f2 && $f1 < $f3 \, $f1 \, -1) \;;
#X obj 155 487 sel -1;
#X obj 188 513 t b f;
#X obj 206 274 tabread \$0-blob_ids;
#X obj 91 312 tabread \$0-blob_x;
#X obj 223 318 tabread \$0-blob_y;
#X obj 74 104 v \$0-blob_ids_size;
#X floatatom 74 126 5 0 0 0 - - -, f 5;
#X obj 159 515 bng 15 250 50 0 empty empty empty 17 7 0 10 -262144
-1 -1;
#X floatatom 272 504 5 0 0 0 - - -, f 5;
#X floatatom 407 34 5 0 0 0 - - -, f 5;
#X floatatom 155 436 5 0 0 0 - - -, f 5;
#X floatatom 91 334 5 0 0 0 - - -, f 5;
#X floatatom 262 341 5 0 0 0 - - -, f 5;
#X floatatom 74 267 5 0 0 0 - - -, f 5;
#X obj 48 274 bng 15 250 50 0 empty empty empty 17 7 0 10 -262144 -1
-1;
#X floatatom 179 564 5 0 0 0 - - -, f 5;
#X connect 0 0 19 0;
#X connect 1 0 10 1;
#X connect 2 0 23 2;
#X connect 2 0 33 0;
#X connect 3 0 6 0;
#X connect 4 0 3 0;
#X connect 4 1 5 0;
#X connect 5 0 6 1;
#X connect 6 0 14 0;
#X connect 7 0 6 1;
#X connect 8 0 9 0;
#X connect 9 0 12 0;
#X connect 10 0 11 0;
#X connect 11 0 12 1;
#X connect 12 0 23 0;
#X connect 12 0 34 0;
#X connect 13 0 21 1;
#X connect 14 0 16 0;
#X connect 14 0 37 0;
#X connect 14 0 38 0;
#X connect 14 1 7 0;
#X connect 14 2 27 0;
#X connect 14 3 28 0;
#X connect 14 4 22 1;
#X connect 15 0 4 0;
#X connect 15 1 17 1;
#X connect 16 0 17 0;
#X connect 17 0 21 0;
#X connect 18 0 23 1;
#X connect 18 0 32 0;
#X connect 19 0 29 0;
#X connect 19 1 8 1;
#X connect 19 2 13 0;
#X connect 19 3 18 0;
#X connect 21 0 20 0;
#X connect 22 0 21 1;
#X connect 22 0 39 0;
#X connect 23 0 24 0;
#X connect 24 0 31 0;
#X connect 24 1 25 0;
#X connect 25 0 22 0;
#X connect 25 1 23 1;
#X connect 25 1 32 0;
#X connect 26 0 22 1;
#X connect 27 0 8 0;
#X connect 27 0 35 0;
#X connect 28 0 10 0;
#X connect 28 0 36 0;
#X connect 29 0 15 0;
#X connect 29 0 30 0;
#X restore 152 189 pd id_of_blob_by_pos;
#X obj 186 101 route list;
#X obj 152 129 unpack f f;
#N canvas 575 195 456 384 change_blob 0;
#X obj 15 29 inlet;
#X text 15 9 id:;
#X obj 119 30 inlet;
#X obj 220 31 inlet;
#X text 119 10 new x:;
#X text 220 11 new y:;
#X obj 15 95 sel -1;
#X obj 247 290 f;
#X obj 106 287 f;
#X obj 48 179 t b b f b f;
#X obj 15 64 index_of_blob \$0;
#X obj 15 310 get_time \$0;
#X obj 106 310 tabwrite \$0-blob_x;
#X obj 247 311 tabwrite \$0-blob_y;
#X obj 48 339 tabwrite \$0-blob_times;
#X connect 0 0 6 0;
#X connect 2 0 8 1;
#X connect 3 0 7 1;
#X connect 6 1 9 0;
#X connect 7 0 13 0;
#X connect 8 0 12 0;
#X connect 9 0 11 0;
#X connect 9 1 8 0;
#X connect 9 2 12 1;
#X connect 9 2 14 1;
#X connect 9 3 7 0;
#X connect 9 4 13 1;
#X connect 10 0 6 0;
#X connect 11 0 14 0;
#X restore 185 256 pd change_blob;
#N canvas 306 50 687 721 add_blob 0;
#X obj 283 29 inlet;
#X obj 387 29 inlet;
#X text 387 9 pos_y:;
#X text 283 9 pos_x:;
#X obj 61 272 + 1;
#X floatatom 49 497 5 0 0 0 - - -, f 5;
#X obj 41 29 inlet;
#X text 41 9 bang:;
#X obj 41 56 t b b;
#X obj 152 193 sel -1;
#X msg 152 218 0;
#X msg 185 218 1;
#X msg 152 140 0;
#X obj 41 522 t f f;
#X obj 41 625 outlet;
#X obj 41 409 t b b b b;
#X obj 372 523 f;
#X obj 268 525 f;
#X obj 152 246 t f f f f f;
#X obj 152 114 sel 1;
#X obj 152 88 value \$0-blobIDs;
#X obj 152 167 tabread \$0-blob_ids;
#X obj 89 309 value \$0-blobIDs;
#X obj 41 474 get_valid_id \$0;
#X obj 68 546 tabwrite \$0-blob_ids;
#X obj 268 546 tabwrite \$0-blob_x;
#X obj 422 546 tabwrite \$0-blob_y;
#X obj 565 547 tabwrite \$0-blob_times;
#X obj 565 523 get_time \$0;
#X obj 62 340 v \$0-blobs_ids_size;
#X obj 115 36 print addblob;
#X floatatom 152 268 5 0 0 0 - - -, f 5;
#X obj 298 82 v \$0-blobs_ids_size;
#X floatatom 232 565 5 0 0 0 - - -, f 5;
#X obj 62 119 bng 15 250 50 0 empty empty empty 17 7 0 10 -262144 -1
-1;
#X connect 0 0 17 1;
#X connect 1 0 16 1;
#X connect 4 0 22 0;
#X connect 4 0 29 0;
#X connect 6 0 8 0;
#X connect 8 0 15 0;
#X connect 8 0 34 0;
#X connect 8 1 30 0;
#X connect 8 1 32 0;
#X connect 9 0 10 0;
#X connect 9 1 11 0;
#X connect 10 0 18 0;
#X connect 11 0 18 0;
#X connect 12 0 21 0;
#X connect 13 0 14 0;
#X connect 13 1 24 0;
#X connect 15 0 23 0;
#X connect 15 1 17 0;
#X connect 15 2 16 0;
#X connect 15 3 28 0;
#X connect 16 0 26 0;
#X connect 17 0 25 0;
#X connect 17 0 33 0;
#X connect 18 0 4 0;
#X connect 18 0 31 0;
#X connect 18 1 24 1;
#X connect 18 2 25 1;
#X connect 18 3 26 1;
#X connect 18 4 27 1;
#X connect 19 0 12 0;
#X connect 19 1 18 0;
#X connect 20 0 19 0;
#X connect 21 0 9 0;
#X connect 23 0 5 0;
#X connect 23 0 13 0;
#X connect 28 0 27 0;
#X connect 32 0 19 0;
#X restore 136 292 pd add_blob;
#X obj 91 31 list split 3;
#X obj 152 79 list split 2;
#X text 203 36 splitter "Matrix N 2";
#N canvas 738 270 450 300 extract_blobs_id 0;
#X obj 22 14 inlet;
#X obj 22 63 t f b;
#X obj 22 88 until;
#X obj 22 114 f;
#X msg 64 87 0;
#X obj 22 139 t f f;
#X obj 64 113 + 1;
#X obj 49 186 moses 1;
#X obj 107 229 outlet;
#X obj 49 163 tabread \$0-blob_ids;
#X obj 22 39 v \$0-blob_ids_size;
#X connect 0 0 10 0;
#X connect 1 0 2 0;
#X connect 1 1 4 0;
#X connect 2 0 3 0;
#X connect 3 0 5 0;
#X connect 4 0 3 1;
#X connect 5 0 6 0;
#X connect 5 1 9 0;
#X connect 6 0 3 1;
#X connect 7 1 8 0;
#X connect 9 0 7 0;
#X connect 10 0 1 0;
#X restore 125 329 pd extract_blobs_id;
#N canvas 725 87 450 582 draw_blob 0;
#X obj 24 14 inlet;
#X obj 148 159 * -6;
#X obj 148 183 + 3;
#X obj 24 240 translateXYZ;
#X obj 24 263 colorRGB 1 0.5 1;
#X obj 43 182 - 4;
#X obj 43 158 * 8;
#X obj 24 104 t b f f;
#X obj 24 377 colorRGB 0 1 0.5;
#X obj 38 405 loadbang;
#X msg 38 428 font Vera.ttf;
#X obj 24 472 text3d \$1;
#X obj 24 44 t f f;
#X floatatom 268 130 5 0 0 0 - - -, f 5;
#X obj 24 309 rectangle 0.01 0.6;
#X obj 24 286 rectangle 0.6 0.01;
#X msg 75 451 9;
#X obj 24 350 translateXYZ 0.2 0.4 0;
#X obj 24 217 gemhead;
#X obj 43 135 tabread \$0-blob_x;
#X obj 148 135 tabread \$0-blob_y;
#X obj 24 73 index_of_blob \$0;
#X connect 0 0 12 0;
#X connect 1 0 2 0;
#X connect 2 0 3 2;
#X connect 3 0 4 0;
#X connect 4 0 15 0;
#X connect 5 0 3 1;
#X connect 6 0 5 0;
#X connect 7 0 18 0;
#X connect 7 1 19 0;
#X connect 7 2 20 0;
#X connect 8 0 11 0;
#X connect 9 0 10 0;
#X connect 9 0 16 0;
#X connect 10 0 11 0;
#X connect 12 0 21 0;
#X connect 12 1 13 0;
#X connect 13 0 11 0;
#X connect 14 0 17 0;
#X connect 15 0 14 0;
#X connect 16 0 11 1;
#X connect 17 0 8 0;
#X connect 18 0 3 0;
#X connect 19 0 6 0;
#X connect 20 0 1 0;
#X connect 21 0 7 0;
#X restore 202 368 pd draw_blob;
#X obj 125 351 outlet;
#X connect 0 0 11 0;
#X connect 1 0 6 2;
#X connect 2 0 10 0;
#X connect 2 1 9 0;
#X connect 3 0 6 1;
#X connect 3 1 10 2;
#X connect 3 2 9 2;
#X connect 4 0 6 0;
#X connect 4 1 10 1;
#X connect 4 2 9 1;
#X connect 5 0 14 0;
#X connect 5 1 12 0;
#X connect 6 0 2 0;
#X connect 7 0 12 0;
#X connect 8 0 4 0;
#X connect 8 1 3 0;
#X connect 11 1 5 0;
#X connect 12 0 8 0;
#X connect 12 1 7 0;
#X connect 14 0 15 0;
#X connect 14 0 16 0;
#X restore 84 201 pd processBlobs;
#X obj 77 89 list prepend matrix N 2;
#N canvas 771 50 583 614 init 0;
#X obj 15 31 loadbang;
#X msg 60 352 0.2;
#X msg 6 539 0.15;
#N canvas 926 216 527 405 blob_lists 0;
#X obj 19 11 inlet;
#X obj 201 11 cnv 15 115 100 empty empty empty 20 12 0 14 -261234 -66577
0;
#X obj 82 96 s \$0-reset_time;
#X obj 245 160 v \$0-blob_ids_size;
#X msg 255 134 1;
#X obj 81 149 tabwrite \$0-blob_ids;
#X msg 77 124 -1 0;
#X msg 50 178 -1 0;
#X obj 91 209 tabwrite \$0-blob_x;
#X obj 37 257 tabwrite \$0-blob_y;
#X msg 34 234 -1 0;
#X obj 17 347 tabwrite \$0-blob_times;
#X msg 19 289 -1 0;
#X obj 22 69 t b b b b b;
#X obj 207 18 table \$0-blob_ids 10;
#X obj 207 40 table \$0-blob_x 10;
#X obj 207 62 table \$0-blob_y 10;
#X obj 207 85 table \$0-blob_times 10;
#X connect 0 0 13 0;
#X connect 4 0 3 0;
#X connect 6 0 5 0;
#X connect 7 0 8 0;
#X connect 10 0 9 0;
#X connect 12 0 11 0;
#X connect 13 0 12 0;
#X connect 13 1 10 0;
#X connect 13 2 7 0;
#X connect 13 3 6 0;
#X connect 13 3 4 0;
#X connect 13 4 2 0;
#X restore 141 83 pd blob_lists;
#X text 73 31 this thing initializes all the sliders and values;
#X obj 6 9 inlet;
#X obj 6 56 t b b b b b b b b b b b;
#X msg 19 492 3700;
#X msg 33 446 2500;
#X msg 46 399 0.75;
#X text 39 39 comment;
#X text 39 39 comment;
#X text 39 39 comment;
#X obj 60 375 send \$0-blobsize;
#X obj 46 422 send \$0-borderAreaSize;
#X obj 33 469 send \$0-maxTimeInBorderArea;
#X obj 19 515 send \$0-maxTimeAtAll;
#X obj 6 563 send \$0-maxManhattanDistance;
#X connect 0 0 6 0;
#X connect 1 0 13 0;
#X connect 2 0 17 0;
#X connect 5 0 6 0;
#X connect 6 0 2 0;
#X connect 6 1 7 0;
#X connect 6 2 8 0;
#X connect 6 3 9 0;
#X connect 6 4 1 0;
#X connect 6 10 3 0;
#X connect 7 0 16 0;
#X connect 8 0 15 0;
#X connect 9 0 14 0;
#X restore 285 59 pd init;
#X obj 285 38 bng 15 250 50 0 empty empty empty 17 7 0 10 -262144 -1
-1;
#X text 305 36 revert to initial settings;
#X obj 84 240 outlet;
#X obj 84 45 inlet feed;
#X obj 284 204 moses 1;
#X obj 287 175 tabread \$0-blob_ids;
#X obj 292 142 unpack f s;
#X obj 316 243 s;
#X obj 292 120 r \$1-channel;
#X obj 245 320 v \$0-blob_ids_size;
#X obj 36 283 r \$0-maxManhattanDistance;
#X connect 0 0 1 0;
#X connect 1 0 6 0;
#X connect 2 0 0 0;
#X connect 4 0 3 0;
#X connect 7 0 2 0;
#X connect 8 1 11 0;
#X connect 9 0 8 0;
#X connect 10 0 9 0;
#X connect 10 1 11 1;
#X connect 12 0 10 0;
#X connect 14 0 1 1;
