#N canvas 0 50 450 300 10;
#X obj 147 53 inlet;
#X obj 179 236 choice \$1;
#X obj 147 75 route add clear print;
#X msg 215 141 print;
#X msg 179 144 clear;
#X obj 179 258 outlet;
#X obj 24 117 list prepend \$2;
#X obj 24 139 route 0;
#X obj 27 204 list prepend add;
#X obj 27 226 list trim;
#X obj 274 117 list prepend \$2;
#X obj 274 139 route 0;
#X obj 80 160 list split 1;
#X obj 120 180 list split \$2;
#X obj 290 170 list split 1;
#X obj 330 190 list split \$2;
#X connect 0 0 2 0;
#X connect 1 0 5 0;
#X connect 2 0 6 0;
#X connect 2 1 4 0;
#X connect 2 2 3 0;
#X connect 2 3 10 0;
#X connect 3 0 1 0;
#X connect 4 0 1 0;
#X connect 6 0 7 0;
#X connect 7 0 8 0;
#X connect 7 1 12 0;
#X connect 8 0 9 0;
#X connect 9 0 1 0;
#X connect 10 0 11 0;
#X connect 11 0 1 0;
#X connect 11 1 14 0;
#X connect 12 1 13 0;
#X connect 13 0 8 0;
#X connect 14 1 15 0;
#X connect 15 0 1 0;
