#N canvas 205 343 768 541 12;
#X obj 204 153 gemwin;
#X msg 391 123 destroy;
#X obj 19 3 cnv 15 700 60 empty empty CVLIB:OpenCV_with_Pure_Data 20
30 0 30 -219146 -66577 0;
#X text 94 124 click here ->;
#X obj 45 307 pix_video;
#X obj 43 249 gemhead;
#X msg 112 244 colorspace grey;
#X msg 113 270 colorspace RGBA;
#X msg 432 332 width \$1;
#X msg 200 339 color \$1 \$2 \$3;
#X floatatom 384 279 5 0 0 0 x - -, f 5;
#X floatatom 384 307 5 0 0 0 y - -, f 5;
#X floatatom 385 332 5 0 0 0 r - -, f 5;
#X text 384 257 position / size;
#X floatatom 519 294 5 -1 255 0 - - -, f 5;
#X msg 251 278 0 255 0;
#X text 562 291 max = 255;
#X text 561 327 fill = -1;
#X msg 250 254 255 0 0;
#X msg 251 306 0 0 255;
#X text 559 309 default = 1;
#X text 518 265 Width;
#X text 243 190 Color (RGB \, 0-255);
#X obj 35 358 pix_rgba;
#X msg 202 121 dimen 1 1 \, create \, 1;
#X obj 193 414 cvDrawCircle;
#X obj 195 443 cvShowImage cvDrawCircle 320 240;
#X text 18 75 cvDrawCircle : circle drawing function (implementation
of cvCircle function);
#X obj 588 22 cvlib-overview;
#X obj 340 297 f;
#X obj 354 225 bng 15 250 50 0 empty empty new_point 17 7 0 10 -262144
-1 -1;
#X obj 627 408 cvDrawCircles;
#X text 392 409 cvDrawCircle is obsolete \, use ->;
#X connect 1 0 0 0;
#X connect 4 0 23 0;
#X connect 5 0 4 0;
#X connect 6 0 4 0;
#X connect 7 0 4 0;
#X connect 8 0 25 0;
#X connect 9 0 25 0;
#X connect 10 0 29 1;
#X connect 11 0 25 2;
#X connect 12 0 25 3;
#X connect 14 0 8 0;
#X connect 15 0 9 0;
#X connect 18 0 9 0;
#X connect 19 0 9 0;
#X connect 23 0 25 0;
#X connect 24 0 0 0;
#X connect 25 0 26 0;
#X connect 29 0 25 1;
#X connect 30 0 29 0;
