#N canvas 1 56 450 300 10;
#X obj 176 75 inlet;
#X obj 173 275 outlet;
#X obj 226 75 inlet;
#X obj 286 75 inlet;
#X obj 336 75 inlet;
#X obj 172 199 cvDrawCircles;
#X msg 337 181 add_circle \$1 \$2 \$3;
#X obj 337 142 pack f f f;
#X text 72 19 abstraction maintained only for compatibility. use cvDrawCircles
instead;
#X obj 157 127 t b a;
#X msg 124 164 clear;
#X connect 0 0 9 0;
#X connect 2 0 7 0;
#X connect 3 0 7 1;
#X connect 4 0 7 2;
#X connect 5 0 1 0;
#X connect 6 0 5 0;
#X connect 7 0 6 0;
#X connect 9 0 10 0;
#X connect 9 1 5 0;
#X connect 10 0 5 0;
