#N canvas 174 0 1208 691 10;
#X obj 101 618 outlet;
#X obj 181 50 inlet;
#X obj 245 495 cvDrawCircle;
#X obj 36 167 loadbang;
#X obj 239 315 cvDrawCircle;
#X obj 55 209 list append \$2 \$3 \$4;
#X obj 352 121 r \$1;
#X obj 308 420 t f b;
#X obj 375 260 loadbang;
#X obj 414 210 unpack f f;
#X obj 176 133 spigot;
#X obj 257 76 == 0;
#X obj 94 105 spigot 1;
#X obj 272 455 f;
#X obj 242 421 t a b;
#X obj 352 160 route float list index;
#X obj 558 303 array size \$1.x;
#X obj 518 267 t f b;
#X obj 520 361 *;
#X obj 520 383 t f f;
#X obj 518 486 tabread \$1.x;
#X obj 626 417 tabread \$1.y;
#X obj 593 38 inlet;
#X obj 518 211 min 1;
#X obj 518 233 max 0;
#X obj 243 336 cvDrawContours;
#X obj 247 534 t a b;
#X obj 269 100 r \$1.cvContours;
#X obj 252 233 tabread \$1.x;
#X msg 266 207 0;
#X obj 232 155 t a b;
#X obj 286 262 tabread \$1.y;
#X msg 20 332 color \$1 \$2 \$3 \, width -1;
#X msg 372 285 7;
#X msg 53 277 color \$1 \$2 \$3 \, width -1;
#X obj 416 511 line;
#X msg 368 523 2 100;
#X msg 390 469 10;
#X msg 14 243 color \$2 \$3 \$1 \, thickness 2;
#X connect 1 0 10 0;
#X connect 1 0 12 0;
#X connect 2 0 26 0;
#X connect 3 0 5 0;
#X connect 4 0 25 0;
#X connect 5 0 34 0;
#X connect 5 0 32 0;
#X connect 5 0 38 0;
#X connect 6 0 15 0;
#X connect 7 0 13 1;
#X connect 7 1 37 0;
#X connect 8 0 33 0;
#X connect 9 0 7 0;
#X connect 9 1 2 2;
#X connect 10 0 30 0;
#X connect 11 0 12 1;
#X connect 12 0 0 0;
#X connect 13 0 2 1;
#X connect 14 0 2 0;
#X connect 14 1 13 0;
#X connect 15 0 10 1;
#X connect 15 0 11 0;
#X connect 15 1 9 0;
#X connect 15 2 23 0;
#X connect 16 0 18 1;
#X connect 17 0 18 0;
#X connect 17 1 16 0;
#X connect 18 0 19 0;
#X connect 19 0 20 0;
#X connect 19 1 21 0;
#X connect 20 0 7 0;
#X connect 21 0 2 2;
#X connect 22 0 15 0;
#X connect 23 0 24 0;
#X connect 24 0 17 0;
#X connect 25 0 14 0;
#X connect 26 0 0 0;
#X connect 26 1 36 0;
#X connect 27 0 25 1;
#X connect 28 0 4 1;
#X connect 29 0 28 0;
#X connect 29 0 31 0;
#X connect 30 0 4 0;
#X connect 30 1 29 0;
#X connect 31 0 4 2;
#X connect 32 0 4 0;
#X connect 33 0 4 3;
#X connect 34 0 2 0;
#X connect 35 0 2 3;
#X connect 36 0 35 0;
#X connect 37 0 35 0;
#X connect 38 0 25 0;
