#N canvas 317 53 429 462 10;
#X obj 12 7 inlet;
#X obj 12 173 f;
#X obj 39 173 + 1;
#X obj 12 140 until;
#X msg 48 140 0;
#X obj 12 34 t b f b;
#X msg 298 230 0;
#X obj 12 350 expr if ($f1+1 >= $f2 \, $f3 \, -1);
#X obj 12 207 t f f f;
#X obj 110 275 expr if ($f1 == $f2 \, 1 \, 0);
#X obj 45 400 outlet;
#X obj 12 111 t f b f;
#X obj 12 375 sel -1;
#X obj 110 304 max;
#X obj 300 319 t f f;
#X text 13 423 Abstraction used in 07b-multi-blobtracker-IDs.pd;
#X obj 299 294 f;
#X obj 42 88 value \$1-blobIDs;
#X obj 110 245 tabread \$1-blob_ids;
#X obj 9 58 v \$0-blobs_ids_size;
#X connect 0 0 5 0;
#X connect 1 0 8 0;
#X connect 2 0 1 1;
#X connect 3 0 1 0;
#X connect 4 0 1 1;
#X connect 5 0 19 0;
#X connect 5 1 9 1;
#X connect 5 2 6 0;
#X connect 6 0 16 0;
#X connect 7 0 12 0;
#X connect 8 0 7 0;
#X connect 8 1 2 0;
#X connect 8 2 18 0;
#X connect 9 0 13 0;
#X connect 11 0 3 0;
#X connect 11 1 4 0;
#X connect 11 2 7 1;
#X connect 12 1 10 0;
#X connect 13 0 16 0;
#X connect 14 0 7 2;
#X connect 14 1 13 1;
#X connect 16 0 14 0;
#X connect 17 0 11 0;
#X connect 18 0 9 0;
#X connect 19 0 11 0;
