#N canvas 0 50 450 300 10;
#X obj 125 38 inlet;
#X obj 123 105 list append \$0-receive;
#X obj 125 168 r \$0-receive;
#X obj 125 230 outlet;
#X obj 125 60 + 1;
#X obj 125 190 - 1;
#X obj 123 127 s \$1-channnel;
#X connect 0 0 4 0;
#X connect 1 0 6 0;
#X connect 2 0 5 0;
#X connect 4 0 1 0;
#X connect 5 0 3 0;
