#N canvas 0 162 356 145 10;
#X obj 106 55 realtime;
#X obj 151 5 inlet;
#X obj 106 78 outlet;
#X text 31 102 Abstraction used in 07b-multi-blobtracker-IDs.pd;
#X obj 30 20 r \$1-reset_time;
#X connect 0 0 2 0;
#X connect 1 0 0 1;
#X connect 4 0 0 0;
