#N canvas 720 172 475 541 10;
#X obj 74 9 inlet;
#X obj 281 483 outlet;
#X obj 74 169 until;
#X obj 74 141 t f b;
#X msg 296 84 -1;
#X obj 74 201 f;
#X obj 130 200 + 1;
#X msg 130 169 0;
#X obj 108 357 sel -1;
#X obj 108 329 expr if ($f1 == $f2 \, $f3 \, -1);
#X obj 74 232 t f f f f;
#X obj 74 400 + 1;
#X obj 74 110 t f f;
#X obj 74 424 sel;
#X obj 74 38 t b f b;
#X obj 281 457 f;
#X text 59 506 Abstraction used in 07b-multi-blobtracker-IDs.pd;
#X obj 108 301 tabread \$1-blob_ids;
#X obj 74 82 v \$1-blob_ids_size;
#X connect 0 0 14 0;
#X connect 2 0 5 0;
#X connect 3 0 2 0;
#X connect 3 1 7 0;
#X connect 4 0 15 1;
#X connect 5 0 10 0;
#X connect 6 0 5 1;
#X connect 7 0 5 1;
#X connect 8 1 15 1;
#X connect 9 0 8 0;
#X connect 10 0 11 0;
#X connect 10 1 6 0;
#X connect 10 2 17 0;
#X connect 10 3 9 2;
#X connect 11 0 13 0;
#X connect 12 0 3 0;
#X connect 12 1 13 1;
#X connect 13 0 15 0;
#X connect 14 0 18 0;
#X connect 14 1 9 1;
#X connect 14 2 4 0;
#X connect 15 0 1 0;
#X connect 17 0 9 0;
#X connect 18 0 12 0;
