#N canvas 788 98 470 486 10;
#X obj 48 20 inlet;
#X obj 16 378 outlet;
#X obj 219 20 inlet;
#X obj 65 171 -;
#X obj 65 200 >;
#X obj 65 226 sel 0;
#X msg 16 286 -1;
#X obj 48 299 spigot;
#X msg 116 271 0;
#X obj 254 118 f;
#X obj 48 55 t f b f b;
#N canvas 695 164 420 104 id_of_blob_by_index 0;
#X obj 21 96 outlet;
#X obj 21 16 inlet;
#X obj 21 43 sel -1;
#X msg 21 69 -1;
#X obj 54 69 tabread \$1-blob_ids;
#X connect 1 0 2 0;
#X connect 2 0 3 0;
#X connect 2 1 4 0;
#X connect 3 0 0 0;
#X connect 4 0 0 0;
#X restore 132 336 pd id_of_blob_by_index;
#N canvas 869 359 196 121 get_time 0;
#X obj 26 103 realtime;
#X obj 143 22 inlet;
#X obj 26 126 outlet;
#X obj 26 22 r \$1-reset_time;
#X connect 0 0 2 0;
#X connect 1 0 0 1;
#X connect 3 0 0 0;
#X restore 65 139 pd get_time;
#X text 18 412 Abstraction used in 07b-multi-blobtracker-IDs.pd;
#X obj 88 82 tabread \$1-blob_times;
#X obj 224 170 > 0;
#X obj 23 345 spigot;
#X connect 0 0 10 0;
#X connect 2 0 9 1;
#X connect 3 0 4 0;
#X connect 4 0 5 0;
#X connect 5 0 6 0;
#X connect 5 1 7 1;
#X connect 6 0 16 0;
#X connect 7 0 8 0;
#X connect 7 0 16 0;
#X connect 8 0 7 1;
#X connect 9 0 4 1;
#X connect 10 0 7 0;
#X connect 10 1 12 0;
#X connect 10 2 14 0;
#X connect 10 3 9 0;
#X connect 11 0 1 0;
#X connect 12 0 3 0;
#X connect 14 0 3 1;
#X connect 14 0 15 0;
#X connect 15 0 16 1;
#X connect 16 0 1 0;
