#N canvas 630 50 600 500 10;
#X obj 198 50 gemhead;
#X obj 202 77 part_head;
#X obj 198 136 part_color;
#X obj 198 447 part_draw;
#X text 329 37 set the color range;
#X obj 198 174 part_size 1;
#X text 299 126 set the size;
#X obj 198 331 part_gravity 0 -0.01 0;
#X text 310 269 set the number per frame;
#X text 310 378 set the age to kill at;
#X text 366 327 gravity to affect the particles;
#X text 428 174 the velocity domain;
#X text 426 191 a sphere at 0 \, 0.2 \, 0;
#X msg 219 413 draw line;
#X msg 298 413 draw point;
#X obj 198 381 part_killold 45;
#X text 426 208 radius = 0.2;
#X msg 126 51 speed 0.1;
#X msg 152 22 speed 0.4;
#X msg 393 69 1 1 1;
#X msg 335 69 1 1 1;
#X msg 422 419 draw \$1;
#X floatatom 488 388 5 0 0 0 - - -, f 5;
#X msg 309 151 1;
#X obj 198 270 part_source 25;
#X floatatom 499 241 5 0 0 0 - - -, f 5;
#X obj 44 51 r PARTICULES;
#X floatatom 296 16 5 0 0 0 - - -, f 5;
#X obj 76 142 unpack f f f f f;
#X obj 169 184 * 24;
#X obj 44 73 route wintablet;
#X obj 42 188 / 1024;
#X obj 102 188 / 1024;
#X obj 42 210 - 0.5;
#X obj 102 210 - 0.5;
#X obj 42 232 * 4;
#X obj 102 232 * 4;
#X obj 42 254 pack f f 0;
#X obj 244 18 tgl 15 1 empty empty empty 17 7 0 10 -262144 -1 -1 0
1;
#X obj 194 217 part_velocity point -0.2 0.1 0;
#X connect 0 0 1 0;
#X connect 1 0 2 0;
#X connect 2 0 5 0;
#X connect 5 0 39 0;
#X connect 7 0 15 0;
#X connect 13 0 3 0;
#X connect 14 0 3 0;
#X connect 15 0 3 0;
#X connect 17 0 1 0;
#X connect 18 0 1 0;
#X connect 19 0 2 2;
#X connect 20 0 2 1;
#X connect 21 0 3 0;
#X connect 22 0 21 0;
#X connect 23 0 5 1;
#X connect 24 0 7 0;
#X connect 25 0 24 1;
#X connect 26 0 30 0;
#X connect 28 0 31 0;
#X connect 28 1 32 0;
#X connect 28 4 29 0;
#X connect 29 0 24 1;
#X connect 30 0 28 0;
#X connect 31 0 33 0;
#X connect 32 0 34 0;
#X connect 33 0 35 0;
#X connect 34 0 36 0;
#X connect 35 0 37 0;
#X connect 36 0 37 1;
#X connect 38 0 0 0;
#X connect 39 0 24 0;
