#N canvas 0 50 1182 677 12;
#X obj 65 22 inlet;
#X text 443 374 Les coordonnées de ses \$1 points sont stockées dans
les tables suivantes ->, f 38;
#X text 569 37 Les n points stockés dans le tableau sont obtenus par
interpolation/rééchantillonnage du contour;
#X text 569 15 store_contour stocke un contour dans un tableau de points
(x \, y), f 66;
#X text 581 138 <- on pourrait le cas échéant stocker d'autres caractéristiques
du contour dans d'autres tableaux / variables -par exemple le C.O.G.
\, etc....;
#X obj 274 7 inlet;
#X obj 131 90 spigot;
#X msg 194 65 1;
#X msg 195 36 0;
#X obj 393 199 unpack f f f f;
#X obj 131 115 t a a a;
#X obj 211 341 spigot;
#X msg 278 317 1;
#X obj 211 366 t a b;
#X msg 289 363 0;
#X obj 201 521 list prepend send CYCLOGROOVE;
#X obj 201 546 list trim;
#X obj 201 571 s TO_AUDIO_SESSION;
#X obj 83 385 t b;
#X obj 218 183 list prepend;
#X obj 341 73 s \$2-\$1;
#X obj 7 195 s \$2-\$1.cvContours;
#X obj 176 227 v \$2-\$1.Perimeter;
#X obj 365 238 v \$2-\$1.cog.x;
#X obj 475 238 v \$2-\$1.cog.y;
#X obj 65 264 cvContoursInterpolPoints \$3;
#X obj 751 370 table \$2-\$1.x \$3;
#X obj 751 397 table \$2-\$1.y \$3;
#X obj 19 474 list prepend blob \$1 remove;
#X obj 65 289 cvContoursPoints \$2-\$1.x \$2-\$1.y \$3;
#X text 311 265 le contour est rééchantillonné sur \$3 points;
#X msg 419 61 index \$1;
#N canvas 0 114 605 497 get_value@index 0;
#X obj 45 15 inlet;
#X obj 38 137 t f b;
#X obj 38 81 min 1;
#X obj 38 103 max 0;
#X obj 40 231 * \$3;
#X obj 186 287 tabread \$2-\$1.y;
#X obj 44 287 tabread \$2-\$1.x;
#X obj 38 381 pack f f;
#X obj 38 406 outlet;
#X obj 70 346 -;
#X obj 157 348 -;
#X obj 315 238 v \$2-\$1.cog.x;
#X obj 425 238 v \$2-\$1.cog.y;
#X obj 40 253 t f f b b;
#X connect 0 0 2 0;
#X connect 1 0 4 0;
#X connect 2 0 3 0;
#X connect 3 0 1 0;
#X connect 4 0 13 0;
#X connect 5 0 10 0;
#X connect 6 0 9 0;
#X connect 7 0 8 0;
#X connect 9 0 7 0;
#X connect 10 0 7 1;
#X connect 11 0 9 1;
#X connect 12 0 10 1;
#X connect 13 0 6 0;
#X connect 13 1 5 0;
#X connect 13 2 11 0;
#X connect 13 3 12 0;
#X restore 521 511 pd get_value@index;
#X obj 521 536 list prepend blob \$1 value@index;
#X obj 200 431 list append;
#X obj 201 496 list prepend blob \$1 add;
#X obj 175 151 cvContoursFeature Perimeter MinAreaRect Area;
#X obj 272 33 route add remove get_index;
#X connect 0 0 6 0;
#X connect 5 0 37 0;
#X connect 6 0 10 0;
#X connect 7 0 6 1;
#X connect 7 0 20 0;
#X connect 8 0 6 1;
#X connect 8 0 20 0;
#X connect 9 0 23 0;
#X connect 9 1 24 0;
#X connect 10 0 21 0;
#X connect 10 1 25 0;
#X connect 10 2 36 0;
#X connect 11 0 13 0;
#X connect 12 0 11 1;
#X connect 13 0 34 0;
#X connect 13 1 14 0;
#X connect 14 0 11 1;
#X connect 15 0 16 0;
#X connect 16 0 17 0;
#X connect 18 0 28 0;
#X connect 19 0 11 0;
#X connect 25 0 29 0;
#X connect 28 0 15 0;
#X connect 31 0 20 0;
#X connect 32 0 33 0;
#X connect 33 0 15 0;
#X connect 34 0 35 0;
#X connect 35 0 15 0;
#X connect 36 0 19 0;
#X connect 36 0 22 0;
#X connect 36 1 9 0;
#X connect 36 1 19 1;
#X connect 36 2 34 1;
#X connect 37 0 7 0;
#X connect 37 1 8 0;
#X connect 37 1 12 0;
#X connect 37 1 18 0;
#X connect 37 2 31 0;
#X connect 37 2 32 0;
#X coords 0 677 1 676 250 20 0;
