#N canvas 0 50 1052 551 10;
#X obj 387 149 list prepend add;
#X obj 387 171 list trim;
#X obj 112 91 list append;
#X obj 111 7 r \$2-eval_incoming_vectors;
#X obj 434 71 r \$2-incoming_vectors;
#X obj 275 228 select -1;
#X obj 281 294 list append;
#X obj 281 356 s \$2-tracker_vector;
#X obj 209 67 r \$0-local_vector;
#X obj 42 112 inlet;
#X obj 398 262 r \$0-local_vector;
#X obj 10 508 s \$0-local_vector;
#X obj 357 6 r \$2-get_trackers_matches_for_incoming_vector_n;
#X obj 138 212 spigot 1;
#X obj 138 234 t l b;
#X obj 176 261 v \$2-done;
#X obj 119 340 spigot;
#X obj 588 146 == 0;
#X obj 111 59 spigot;
#X obj 142 34 r \$0-tracking;
#X obj 588 124 r \$0-tracking;
#X obj 355 55 spigot;
#X obj 386 30 r \$0-tracking;
#X obj 419 120 spigot;
#X obj 475 99 r \$0-tracking;
#X obj 155 309 == 0;
#X obj 176 283 t f f;
#X obj 196 361 v \$2-done;
#X obj 197 314 select 0;
#X msg 197 336 1;
#X obj 72 393 s \$0-local_vector;
#X obj 220 405 s \$0-tracking;
#X obj 119 362 t l b;
#X msg 219 384 1;
#X obj 42 134 route update add timeout;
#X obj 635 207 r \$0-local_vector;
#X obj 635 229 t b;
#X obj 587 356 s \$0-tracking;
#X msg 580 331 0;
#X msg 472 189 clear;
#X obj 297 258 t b b;
#X obj 281 316 list prepend \$1;
#X obj 481 490 list trim;
#X obj 482 520 outlet;
#X obj 464 409 list prepend add;
#X obj 495 446 list prepend update;
#X obj 512 469 list prepend remove;
#X obj 28 225 t l l;
#X obj 18 334 list prepend 1;
#X obj 14 407 t l l;
#X obj 18 356 route 1 0;
#X obj 72 476 s \$2-rejected;
#X obj 767 313 f \$3;
#X obj 767 335 select 0;
#X obj 580 309 delay 200;
#X obj 756 283 loadbang;
#N canvas 356 115 719 613 distance_test 0;
#X obj 82 16 inlet;
#X obj 83 197 list split 1;
#X obj 239 37 r \$0-local_vector;
#X obj 241 161 list split 1;
#X obj 118 225 list append;
#X obj 273 189 list append;
#X obj 89 264 -;
#X obj 82 138 t l b;
#X obj 89 286 t f f;
#X obj 89 308 *;
#X obj 125 381 +;
#X obj 173 382 f;
#X msg 187 325 0;
#X obj 159 426 t b b f;
#X obj 195 458 f;
#X obj 201 519 outlet;
#X obj 254 289 loadbang;
#X obj 254 311 f \$4;
#X obj 224 423 t f f;
#X obj 224 445 *;
#X obj 204 487 <;
#X obj 254 333 select 0;
#X msg 254 355 0.02;
#X obj 241 79 route 0;
#X obj 257 110 list split 1;
#X obj 241 57 list prepend \$5;
#X obj 297 130 list split \$5;
#X obj 81 63 route 0;
#X obj 97 94 list split 1;
#X obj 81 41 list prepend \$5;
#X obj 137 114 list split \$5;
#X connect 0 0 29 0;
#X connect 1 0 6 0;
#X connect 1 1 4 1;
#X connect 1 2 14 0;
#X connect 2 0 25 0;
#X connect 3 0 6 1;
#X connect 3 1 5 1;
#X connect 4 0 1 0;
#X connect 5 0 3 0;
#X connect 6 0 8 0;
#X connect 7 0 1 0;
#X connect 7 1 12 0;
#X connect 8 0 9 0;
#X connect 8 1 9 1;
#X connect 9 0 10 0;
#X connect 10 0 11 0;
#X connect 10 0 13 0;
#X connect 11 0 10 1;
#X connect 12 0 10 1;
#X connect 13 0 4 0;
#X connect 13 1 5 0;
#X connect 13 2 14 1;
#X connect 14 0 20 0;
#X connect 16 0 17 0;
#X connect 17 0 21 0;
#X connect 18 0 19 0;
#X connect 18 1 19 1;
#X connect 19 0 20 1;
#X connect 20 0 15 0;
#X connect 21 0 22 0;
#X connect 21 1 18 0;
#X connect 22 0 18 0;
#X connect 23 0 3 0;
#X connect 23 1 24 0;
#X connect 24 1 26 0;
#X connect 25 0 23 0;
#X connect 26 0 3 0;
#X connect 27 0 7 0;
#X connect 27 1 28 0;
#X connect 28 1 30 0;
#X connect 29 0 27 0;
#X connect 30 0 7 0;
#X restore 40 265 pd distance_test;
#X text 802 61 \$1 = sid;
#X text 805 81 \$2 = \$0 parent;
#X text 801 113 \$3 = tracking timeout;
#X text 803 131 \$4 = max distance;
#X text 804 149 \$5 = vector dimension for choice (0=full);
#X obj 383 213 choice2 0 \$5;
#X obj 704 510 outlet;
#X obj 703 480 list trim;
#X obj 30 160 list split 1;
#X obj 695 438 list append;
#X obj 697 83 r \$2-reset;
#X obj 23 202 list append;
#X obj 30 182 t b f;
#X connect 0 0 1 0;
#X connect 1 0 62 0;
#X connect 2 0 62 0;
#X connect 3 0 18 0;
#X connect 4 0 23 0;
#X connect 5 0 40 0;
#X connect 6 0 41 0;
#X connect 8 0 2 1;
#X connect 9 0 34 0;
#X connect 10 0 6 1;
#X connect 12 0 21 0;
#X connect 13 0 14 0;
#X connect 14 0 16 0;
#X connect 14 1 15 0;
#X connect 15 0 26 0;
#X connect 16 0 32 0;
#X connect 17 0 13 1;
#X connect 18 0 2 0;
#X connect 19 0 18 1;
#X connect 20 0 17 0;
#X connect 21 0 5 0;
#X connect 22 0 21 1;
#X connect 23 0 0 0;
#X connect 24 0 23 1;
#X connect 25 0 16 1;
#X connect 26 0 25 0;
#X connect 26 1 28 0;
#X connect 28 0 29 0;
#X connect 29 0 27 0;
#X connect 32 0 30 0;
#X connect 32 0 44 0;
#X connect 32 1 33 0;
#X connect 33 0 31 0;
#X connect 34 0 65 0;
#X connect 34 1 13 0;
#X connect 34 2 54 1;
#X connect 35 0 36 0;
#X connect 36 0 54 0;
#X connect 38 0 37 0;
#X connect 39 0 62 0;
#X connect 40 1 6 0;
#X connect 41 0 7 0;
#X connect 42 0 43 0;
#X connect 44 0 42 0;
#X connect 45 0 66 0;
#X connect 46 0 42 0;
#X connect 47 0 48 0;
#X connect 47 1 56 0;
#X connect 48 0 50 0;
#X connect 49 0 11 0;
#X connect 49 1 45 0;
#X connect 50 0 49 0;
#X connect 50 1 51 0;
#X connect 52 0 53 0;
#X connect 53 1 54 1;
#X connect 54 0 38 0;
#X connect 54 0 46 0;
#X connect 55 0 52 0;
#X connect 56 0 48 1;
#X connect 62 0 5 1;
#X connect 64 0 63 0;
#X connect 65 0 69 0;
#X connect 65 1 68 1;
#X connect 66 0 64 0;
#X connect 67 0 39 0;
#X connect 68 0 47 0;
#X connect 69 0 68 0;
#X connect 69 1 66 1;
#X coords 0 551 1 550 300 15 0;
