#N canvas 150 56 1356 772 10;
#X declare -path pdr/core;
#X declare -path pdr/core/stuff;
#X declare -path pdr/core/rj;
#X obj 76 45 inlet~;
#X obj 146 45 inlet~;
#X obj 256 45 inlet~;
#X obj 101 313 outlet~;
#X obj 658 477 makefilename %d;
#X msg 658 502 label \$1;
#X obj 658 455 pipe f 10;
#X text 679 401 Affichage du numero d'instance;
#X obj 658 315 declare -path pdr/core;
#X obj 659 341 declare -path pdr/core/stuff;
#X obj 659 361 declare -path pdr/core/rj;
#X msg 810 522 symbol \$1-instance-num;
#X obj 645 583 s;
#X obj 658 432 r \$0-ID;
#X obj 810 499 r \$0-module;
#X obj 326 45 inlet~;
#X obj 201 313 outlet~;
#X obj 604 36 module_loader ahr \$0 \$1;
#X text 317 101 <- this object has to be created immediately after
that ->, f 28;
#X obj 603 68 u_r \$0 ahr-attack s r 1.27 127 log 0;
#X obj 604 94 u_r \$0 ahr-hold s r 1.27 127 log 0;
#X obj 604 124 u_r \$0 ahr-release s r 1.27 127 log 0;
#X obj 604 154 u_r \$0 ahr-curve s r 0 1 lin 0;
#X obj 604 184 u_r \$0 ahr-fast/med/slow s r 0 2 lin 0;
#X obj 604 224 u_r \$0 ahr-cycle s r 0 1 lin 0;
#X obj 364 132 get_module_dollarzero \$0;
#X obj 100 100 modular/patch_editor_abs/ahr;
#X obj 730 5 savestate;
#X connect 0 0 26 0;
#X connect 1 0 26 1;
#X connect 2 0 26 2;
#X connect 4 0 5 0;
#X connect 5 0 12 0;
#X connect 6 0 4 0;
#X connect 11 0 12 1;
#X connect 13 0 6 0;
#X connect 14 0 11 0;
#X connect 15 0 26 3;
#X connect 17 0 19 0;
#X connect 17 1 27 0;
#X connect 19 0 20 0;
#X connect 20 0 21 0;
#X connect 21 0 22 0;
#X connect 22 0 23 0;
#X connect 23 0 24 0;
#X connect 26 0 3 0;
#X connect 26 1 16 0;
#X connect 27 0 17 1;
#X connect 27 1 17 2;
#X coords 0 -1 1 1 125 175 2 100 100;
