#N canvas 380 235 1068 703 10;
#X declare -path pdr/core;
#X declare -path pdr/core/stuff;
#X declare -path pdr/core/rj;
#X obj 101 24 inlet~;
#X obj 171 24 inlet~;
#X obj 281 24 inlet~;
#X obj 101 263 outlet~;
#X obj 658 477 makefilename %d;
#X msg 658 502 label \$1;
#X obj 658 455 pipe f 10;
#X text 679 401 Affichage du numero d'instance;
#X obj 658 315 declare -path pdr/core;
#X obj 659 341 declare -path pdr/core/stuff;
#X obj 659 361 declare -path pdr/core/rj;
#X text 317 101 <- this object has to be created immediately after
that ->, f 28;
#X obj 364 132 get_module_dollarzero \$0;
#X obj 100 100 modular/patch_editor_abs/bwl-osc \$1;
#X obj 598 117 u_r \$0 bwl-osc-pwidth s r 0 127 lin 0;
#X obj 592 147 u_r \$0 bwl-osc-cv-att s r 0 127 lin 199;
#X obj 598 171 u_r \$0 bwl-osc-fm-att s r 0 127 lin 199;
#X obj 596 209 u_r \$0 bwl-osc-wform s r 0 3 lin 0;
#X obj 596 85 u_r \$0 bwl-osc-pitch s r 0 127 lin 0;
#X obj 604 36 module_loader bwl-osc \$0 \$1;
#X msg 810 522 symbol \$1-instance-num;
#X obj 645 583 s;
#X obj 658 432 r \$0-ID;
#X obj 810 499 r \$0-module;
#X obj 709 10 savestate;
#X connect 0 0 13 0;
#X connect 1 0 13 1;
#X connect 2 0 13 2;
#X connect 4 0 5 0;
#X connect 5 0 21 0;
#X connect 6 0 4 0;
#X connect 13 0 3 0;
#X connect 14 0 15 0;
#X connect 15 0 16 0;
#X connect 16 0 17 0;
#X connect 18 0 14 0;
#X connect 19 0 18 0;
#X connect 19 1 24 0;
#X connect 20 0 21 1;
#X connect 22 0 6 0;
#X connect 23 0 20 0;
#X connect 24 0 19 1;
#X connect 24 1 19 2;
#X coords 0 -1 1 1 190 112 2 100 100;
