#N canvas 85 489 1356 743 10;
#X declare -path pdr/core;
#X declare -path pdr/core/stuff;
#X declare -path pdr/core/rj;
#X obj 76 45 inlet~;
#X obj 146 45 inlet~;
#X obj 256 45 inlet~;
#X obj 99 216 outlet~;
#X obj 658 477 makefilename %d;
#X msg 658 502 label \$1;
#X obj 658 455 pipe f 10;
#X text 679 401 Affichage du numero d'instance;
#X obj 658 315 declare -path pdr/core;
#X obj 659 341 declare -path pdr/core/stuff;
#X obj 659 361 declare -path pdr/core/rj;
#X msg 810 522 symbol \$1-instance-num;
#X obj 645 583 s;
#X obj 658 432 r \$0-ID;
#X obj 810 499 r \$0-module;
#X text 317 101 <- this object has to be created immediately after
that ->, f 28;
#X obj 364 132 get_module_dollarzero \$0;
#X obj 100 100 modular/patch_editor_abs/overdrive;
#X obj 604 36 module_loader overdrive \$0 \$1;
#X obj 605 62 u_r \$0 overdrive-drive s r 0 127 lin 0;
#X obj 603 87 u_r \$0 overdrive-tone s r 0 127 lin 0;
#X obj 759 3 savestate;
#X connect 0 0 17 0;
#X connect 1 0 17 1;
#X connect 2 0 17 2;
#X connect 4 0 5 0;
#X connect 5 0 12 0;
#X connect 6 0 4 0;
#X connect 11 0 12 1;
#X connect 13 0 6 0;
#X connect 14 0 11 0;
#X connect 17 0 3 0;
#X connect 18 0 19 0;
#X connect 18 1 21 0;
#X connect 19 0 20 0;
#X connect 21 0 18 1;
#X connect 21 1 18 2;
#X coords 0 -1 1 1 175 75 2 100 100;
