#N canvas 871 347 763 594 10;
#N canvas 1 56 450 300 speed_lim 0;
#X obj 87 20 inlet;
#X obj 87 105 t b b a;
#X obj 83 278 list append;
#X obj 83 307 list trim;
#X msg 129 200 1;
#X msg 57 177 0;
#X obj 83 332 outlet;
#X obj 55 145 delay 100;
#X obj 83 249 metro 100;
#X obj 33 226 change;
#X connect 0 0 1 0;
#X connect 1 0 7 0;
#X connect 1 1 4 0;
#X connect 1 2 2 1;
#X connect 2 0 3 0;
#X connect 3 0 6 0;
#X connect 4 0 9 0;
#X connect 5 0 9 0;
#X connect 7 0 5 0;
#X connect 8 0 2 0;
#X connect 9 0 8 0;
#X restore 283 440 pd speed_lim;
#X floatatom 289 117 5 0 0 0 - - -;
#X text 45 68 arguments : \$0 ctl-name <send-suffix> <receive-suffix>
<min_value> <max_value> <lin/log> <default_color>, f 109;
#X text 295 24 u_r : wrapper for automatonism modules inside pdracks
;
#X obj 435 439 inlet;
#X obj 432 490 outlet;
#X obj 584 124 r \$1-module;
#X obj 268 525 s;
#X msg 531 193 symbol \$1-\$2-\$4;
#X obj 584 147 list append \$2 \$3 \$4;
#X msg 338 212 symbol \$1-\$2-\$3;
#X obj 432 467 u_dispatch \$1 \$2;
#X obj 25 116 midi-colors \$1 \$2 \$0-\$2-\$4 \$5 \$6 \$7 \$8;
#X obj 333 318 s \$1-\$2;
#X obj 276 323 r \$1-\$2;
#N canvas 0 50 450 300 \$0-from_gui 1;
#X obj 140 42 inlet;
#X msg 139 85 obj 100 200 r \$1 \, connect 4 0 3 0;
#X obj 146 117 s pd-\$0-from_gui;
#X obj 100 231 outlet;
#X connect 0 0 1 0;
#X connect 1 0 2 0;
#X restore 312 248 pd \$0-from_gui;
#X obj 611 479 outlet;
#X obj 312 271 t b a b;
#X obj 279 357 t a a;
#X obj 278 393 spigot 1;
#X msg 357 356 0;
#X msg 326 358 1;
#X connect 0 0 7 0;
#X connect 1 0 12 1;
#X connect 4 0 11 0;
#X connect 6 0 9 0;
#X connect 8 0 7 1;
#X connect 9 0 8 0;
#X connect 9 0 10 0;
#X connect 10 0 15 0;
#X connect 11 0 5 0;
#X connect 12 1 7 0;
#X connect 14 0 18 0;
#X connect 15 0 17 0;
#X connect 17 0 21 0;
#X connect 17 1 13 0;
#X connect 17 2 20 0;
#X connect 18 0 19 0;
#X connect 18 1 16 0;
#X connect 19 0 0 0;
#X connect 20 0 19 1;
#X connect 21 0 19 1;
